<svg xmlns="http://www.w3.org/2000/svg" xmlns:xlink="http://www.w3.org/1999/xlink" xmlns:lucid="lucid" width="1200" height="720"><g transform="translate(-60 -20)" lucid:page-tab-id="0_0"><path d="M400 620c0 22.1-17.9 40-40 40s-40-17.9-40-40 17.9-40 40-40 40 17.9 40 40z" stroke="#5e5e5e" stroke-width="3" fill="#333"/><use xlink:href="#a" transform="matrix(1,0,0,1,325,585) translate(20.833333333333336 39.65277777777778)"/><path d="M300 560c0 22.1-17.9 40-40 40s-40-17.9-40-40 17.9-40 40-40 40 17.9 40 40z" stroke="#5e5e5e" stroke-width="3" fill="#f5b5c8"/><use xlink:href="#b" transform="matrix(1,0,0,1,225,525) translate(27.592592592592595 39.65277777777778)"/><path d="M500 560c0 22.1-17.9 40-40 40s-40-17.9-40-40 17.9-40 40-40 40 17.9 40 40z" stroke="#5e5e5e" stroke-width="3" fill="#b391b5"/><use xlink:href="#b" transform="matrix(1,0,0,1,425,525) translate(27.592592592592595 39.65277777777778)"/><path d="M250 400c0 22.1-17.9 40-40 40s-40-17.9-40-40 17.9-40 40-40 40 17.9 40 40z" stroke="#5e5e5e" stroke-width="3" fill="#f9d2de"/><use xlink:href="#c" transform="matrix(1,0,0,1,175,365) translate(27.592592592592595 39.65277777777778)"/><path d="M160 400c0 22.1-17.9 40-40 40s-40-17.9-40-40 17.9-40 40-40 40 17.9 40 40z" stroke="#5e5e5e" stroke-width="3" fill="#f9d2de"/><use xlink:href="#c" transform="matrix(1,0,0,1,85,365) translate(27.592592592592595 39.65277777777778)"/><path d="M340 400c0 22.1-17.9 40-40 40s-40-17.9-40-40 17.9-40 40-40 40 17.9 40 40z" stroke="#5e5e5e" stroke-width="3" fill="#f9d2de"/><use xlink:href="#c" transform="matrix(1,0,0,1,265,365) translate(27.592592592592595 39.65277777777778)"/><path d="M459.25 400c0 22.1-17.9 40-40 40s-40-17.9-40-40 17.9-40 40-40 40 17.9 40 40z" stroke="#5e5e5e" stroke-width="3" fill="#d1bcd2"/><use xlink:href="#c" transform="matrix(1,0,0,1,384.25,365) translate(27.592592592592595 39.65277777777778)"/><path d="M640.75 400c0 22.1-17.9 40-40 40s-40-17.9-40-40 17.9-40 40-40 40 17.9 40 40z" stroke="#5e5e5e" stroke-width="3" fill="#d1bcd2"/><use xlink:href="#c" transform="matrix(1,0,0,1,565.75,365) translate(27.592592592592595 39.65277777777778)"/><path d="M359.96 577.5l-.05-1.08-.2-1.76-.34-1.53-.42-1.35-.5-1.22-.55-1.1-.66-1.04-.72-.98-.83-.92-.95-.9-1.1-.87-1.27-.85-1.53-.84-1.9-.83-2.37-.8-3.15-.8-4.46-.7-7.22-.52-11.75.24" stroke="#5e5e5e" stroke-width="2" fill="none"/><path d="M361 578.56l-.98-.06-1.02.03-.04-1 2-.1" fill="#5e5e5e"/><path d="M304.74 559.94l14.17-4.92.2 9.27z" stroke="#5e5e5e" stroke-width="2" fill="#5e5e5e"/><path d="M459.97 517.5l-.08-2.35-.3-3-.45-2.77-.6-2.58-.73-2.45-.88-2.36-1.05-2.33-1.24-2.33-1.48-2.4-1.84-2.58-2.4-2.96-3.7-3.97-14.93-14.83-2.4-2.96-1.83-2.58-1.48-2.4-1.24-2.33-.4-.86" stroke="#5e5e5e" stroke-width="2" fill="none"/><path d="M461 518.56l-.98-.06-1.02.03-.03-1.03 2-.06" fill="#5e5e5e"/><path d="M419.9 444.67l7.44 13.03-9.08 1.88z" stroke="#5e5e5e" stroke-width="2" fill="#5e5e5e"/><path d="M460.04 517.5v-.3l.08-.63.1-.63.1-.62.16-.6.17-.63.2-.63.23-.63.27-.63.3-.63.34-.65.37-.66.44-.7.5-.7.56-.73.63-.76.7-.8.82-.83.95-.9 1.1-.93 1.27-1 1.5-1.1 1.8-1.18 2.17-1.3 2.68-1.48 3.38-1.67 4.4-1.95 6-2.38 9.1-3.14 19.43-5.78 40.6-11.62 9.08-3.14 6.02-2.38 4.4-1.95 3.37-1.67 2.67-1.47 2.17-1.32 1.8-1.2 1.5-1.08.3-.23" stroke="#5e5e5e" stroke-width="2" fill="none"/><path d="M461.02 517.5l-.02 1.06-.98-.06-1.02.03.02-1.08" fill="#5e5e5e"/><path d="M599.1 444.3l-3.23 14.64-8-4.7z" stroke="#5e5e5e" stroke-width="2" fill="#5e5e5e"/><path d="M360.04 577.5l.05-1.08.2-1.76.34-1.53.42-1.35.5-1.22.55-1.1.66-1.04.72-.98.83-.92.95-.9 1.1-.87 1.27-.85 1.53-.84 1.9-.83 2.37-.8 3.15-.8 4.46-.7 7.22-.52 11.75.24" stroke="#5e5e5e" stroke-width="2" fill="none"/><path d="M361.04 577.52l-.04 1.04-.98-.06-1.02.03.04-1.1" fill="#5e5e5e"/><path d="M415.26 559.94l-14.35 4.35.2-9.28z" stroke="#5e5e5e" stroke-width="2" fill="#5e5e5e"/><path d="M259.97 517.5l-.06-1.76-.23-2.53-.4-2.35-.5-2.22-.65-2.14-.77-2.08-.92-2.05-1.08-2.04-1.3-2.08-1.53-2.17-1.9-2.33-2.42-2.62-3.4-3.22-6.98-5.72-12.62-10.1-3.4-3.2-2.43-2.63-1.9-2.33-1.53-2.17-1.3-2.08-.2-.42" stroke="#5e5e5e" stroke-width="2" fill="none"/><path d="M261 518.56l-.98-.06-1.02.03-.03-1.03 2-.06" fill="#5e5e5e"/><path d="M210.78 444.64l7.96 12.72-9 2.24z" stroke="#5e5e5e" stroke-width="2" fill="#5e5e5e"/><path d="M259.96 517.5v-.3l-.08-.64-.1-.63-.1-.62-.16-.6-.17-.63-.2-.63-.24-.62-.25-.64-.3-.64-.35-.65-.4-.68-.42-.7-.5-.7-.55-.73-.63-.78-.72-.8-.83-.84-.94-.88-1.1-.95-1.27-1-1.5-1.1-1.8-1.2-2.2-1.32-2.68-1.47-3.38-1.68-4.42-1.96-6.05-2.4-9.17-3.17-20.38-6.05-38.48-11.05-9.17-3.18-6.05-2.4-4.42-1.95-3.38-1.68-2.7-1.47-2.17-1.32-1.8-1.2-1.5-1.1-.36-.27" stroke="#5e5e5e" stroke-width="2" fill="none"/><path d="M261 518.56l-.98-.06-1.02.03-.02-1.04 2-.05" fill="#5e5e5e"/><path d="M121.64 444.3l11.2 9.95-8 4.7z" stroke="#5e5e5e" stroke-width="2" fill="#5e5e5e"/><path d="M260.03 517.5l.08-2.4.3-3.07.46-2.8.6-2.6.75-2.5.9-2.37 1.06-2.35 1.25-2.35 1.5-2.44 1.88-2.62 2.48-3.05 4-4.3 13.48-13.56 2.48-3.05 1.87-2.63 1.5-2.45 1.24-2.36.5-1.1" stroke="#5e5e5e" stroke-width="2" fill="none"/><path d="M261.03 517.5l-.03 1.06-.98-.06-1.02.03.03-1.1" fill="#5e5e5e"/><path d="M299.35 444.67l1.7 14.9-9.08-1.84z" stroke="#5e5e5e" stroke-width="2" fill="#5e5e5e"/><path d="M550 400c0 22.1-17.9 40-40 40s-40-17.9-40-40 17.9-40 40-40 40 17.9 40 40z" stroke="#5e5e5e" stroke-width="3" fill="#d1bcd2"/><use xlink:href="#c" transform="matrix(1,0,0,1,475,365) translate(27.592592592592595 39.65277777777778)"/><path d="M460.03 517.5l.06-1.76.23-2.53.4-2.35.5-2.22.65-2.14.77-2.08.92-2.05 1.08-2.04 1.3-2.08 1.53-2.17 1.9-2.33 2.42-2.62 3.4-3.22 6.98-5.72 12.62-10.1 3.4-3.2 2.43-2.63 1.9-2.33 1.53-2.17 1.3-2.08.2-.42" stroke="#5e5e5e" stroke-width="2" fill="none"/><path d="M461.03 517.5l-.03 1.06-.98-.06-1.02.03.03-1.1" fill="#5e5e5e"/><path d="M509.22 444.64l1.04 14.96-9-2.24z" stroke="#5e5e5e" stroke-width="2" fill="#5e5e5e"/><path d="M660 240.75c.4 0 .75.34.75.75v417c0 .4-.34.75-.75.75-.4 0-.75-.34-.75-.75v-417c0-.4.34-.75.75-.75z" stroke="#5e5e5e" stroke-width="1.5" fill="none"/><path d="M80 246c0-3.3 2.7-6 6-6h68c3.3 0 6 2.7 6 6v88c0 3.3-2.7 6-6 6H86c-3.3 0-6-2.7-6-6z" stroke="#5e5e5e" stroke-width="3" fill="#fff"/><use xlink:href="#d" transform="matrix(1,0,0,1,85,245) translate(5.401234567901234 48.71527777777778)"/><use xlink:href="#e" transform="matrix(1,0,0,1,85,245) translate(52.25308641975309 48.71527777777778)"/><path d="M170 246c0-3.3 2.7-6 6-6h68c3.3 0 6 2.7 6 6v88c0 3.3-2.7 6-6 6h-68c-3.3 0-6-2.7-6-6z" stroke="#5e5e5e" stroke-width="3" fill="#fff"/><use xlink:href="#d" transform="matrix(1,0,0,1,175,245) translate(5.401234567901234 48.71527777777778)"/><use xlink:href="#f" transform="matrix(1,0,0,1,175,245) translate(52.25308641975309 48.71527777777778)"/><path d="M260 246c0-3.3 2.7-6 6-6h68c3.3 0 6 2.7 6 6v88c0 3.3-2.7 6-6 6h-68c-3.3 0-6-2.7-6-6z" stroke="#5e5e5e" stroke-width="3" fill="#fff"/><use xlink:href="#d" transform="matrix(1,0,0,1,265,245) translate(5.401234567901234 48.71527777777778)"/><use xlink:href="#g" transform="matrix(1,0,0,1,265,245) translate(52.25308641975309 48.71527777777778)"/><path d="M380 246c0-3.3 2.7-6 6-6h68c3.3 0 6 2.7 6 6v88c0 3.3-2.7 6-6 6h-68c-3.3 0-6-2.7-6-6z" stroke="#5e5e5e" stroke-width="3" fill="#fff"/><use xlink:href="#d" transform="matrix(1,0,0,1,385,245) translate(5.401234567901234 48.71527777777778)"/><use xlink:href="#h" transform="matrix(1,0,0,1,385,245) translate(52.25308641975309 48.71527777777778)"/><path d="M470 246c0-3.3 2.7-6 6-6h68c3.3 0 6 2.7 6 6v88c0 3.3-2.7 6-6 6h-68c-3.3 0-6-2.7-6-6z" stroke="#5e5e5e" stroke-width="3" fill="#fff"/><use xlink:href="#d" transform="matrix(1,0,0,1,475,245) translate(5.401234567901234 48.71527777777778)"/><use xlink:href="#i" transform="matrix(1,0,0,1,475,245) translate(52.25308641975309 48.71527777777778)"/><path d="M560 246c0-3.3 2.7-6 6-6h68c3.3 0 6 2.7 6 6v88c0 3.3-2.7 6-6 6h-68c-3.3 0-6-2.7-6-6z" stroke="#5e5e5e" stroke-width="3" fill="#fff"/><use xlink:href="#d" transform="matrix(1,0,0,1,565,245) translate(5.401234567901234 48.71527777777778)"/><use xlink:href="#j" transform="matrix(1,0,0,1,565,245) translate(52.25308641975309 48.71527777777778)"/><path d="M999.25 620c0 22.1-17.9 40-40 40s-40-17.9-40-40 17.9-40 40-40 40 17.9 40 40z" stroke="#5e5e5e" stroke-width="3" fill="#333"/><use xlink:href="#a" transform="matrix(1,0,0,1,924.25,585) translate(20.833333333333336 39.65277777777778)"/><path d="M899.25 560c0 22.1-17.9 40-40 40s-40-17.9-40-40 17.9-40 40-40 40 17.9 40 40z" stroke="#5e5e5e" stroke-width="3" fill="#f5b5c8"/><use xlink:href="#b" transform="matrix(1,0,0,1,824.25,525) translate(27.592592592592595 39.65277777777778)"/><path d="M1099.25 560c0 22.1-17.9 40-40 40s-40-17.9-40-40 17.9-40 40-40 40 17.9 40 40z" stroke="#5e5e5e" stroke-width="3" fill="#b391b5"/><use xlink:href="#b" transform="matrix(1,0,0,1,1024.25,525) translate(27.592592592592595 39.65277777777778)"/><path d="M849.25 400c0 22.1-17.9 40-40 40s-40-17.9-40-40 17.9-40 40-40 40 17.9 40 40z" stroke="#5e5e5e" stroke-width="3" fill="#f9d2de"/><use xlink:href="#c" transform="matrix(1,0,0,1,774.2499999999999,365) translate(27.592592592592595 39.65277777777778)"/><path d="M759.25 400c0 22.1-17.9 40-40 40s-40-17.9-40-40 17.9-40 40-40 40 17.9 40 40z" stroke="#5e5e5e" stroke-width="3" fill="#f9d2de"/><use xlink:href="#c" transform="matrix(1,0,0,1,684.25,365) translate(27.592592592592595 39.65277777777778)"/><path d="M939.25 400c0 22.1-17.9 40-40 40s-40-17.9-40-40 17.9-40 40-40 40 17.9 40 40z" stroke="#5e5e5e" stroke-width="3" fill="#f9d2de"/><use xlink:href="#c" transform="matrix(1,0,0,1,864.25,365) translate(27.592592592592595 39.65277777777778)"/><path d="M1058.5 400c0 22.1-17.9 40-40 40s-40-17.9-40-40 17.9-40 40-40 40 17.9 40 40z" stroke="#5e5e5e" stroke-width="3" fill="#d1bcd2"/><use xlink:href="#c" transform="matrix(1,0,0,1,983.5,365) translate(27.592592592592595 39.65277777777778)"/><path d="M1240 400c0 22.1-17.9 40-40 40s-40-17.9-40-40 17.9-40 40-40 40 17.9 40 40z" stroke="#5e5e5e" stroke-width="3" fill="#d1bcd2"/><use xlink:href="#c" transform="matrix(1,0,0,1,1165,365) translate(27.592592592592595 39.65277777777778)"/><path d="M959.2 577.5l-.04-1.08-.22-1.76-.33-1.53-.4-1.35-.5-1.22-.56-1.1-.65-1.04-.73-.98-.83-.92-.94-.9-1.1-.87-1.27-.85-1.53-.84-1.9-.83-2.37-.8-3.15-.8-4.46-.7-7.22-.52-11.75.24" stroke="#5e5e5e" stroke-width="2" fill="none"/><path d="M960.25 578.56l-.98-.06-1.02.03-.04-1 2-.1" fill="#5e5e5e"/><path d="M904 559.94l14.16-4.92.18 9.27z" stroke="#5e5e5e" stroke-width="2" fill="#5e5e5e"/><path d="M1059.22 517.5l-.08-2.35-.3-3-.44-2.77-.6-2.58-.73-2.45-.88-2.36-1.06-2.33-1.23-2.33-1.47-2.4-1.84-2.58-2.4-2.96-3.7-3.97-14.94-14.83-2.4-2.96-1.84-2.58-1.48-2.4-1.23-2.33-.38-.86" stroke="#5e5e5e" stroke-width="2" fill="none"/><path d="M1060.25 518.56l-.98-.06-1.02.03-.03-1.03 2-.06" fill="#5e5e5e"/><path d="M1019.16 444.67l7.43 13.03-9.1 1.88z" stroke="#5e5e5e" stroke-width="2" fill="#5e5e5e"/><path d="M1059.3 517.5v-.3l.07-.63.1-.63.1-.62.16-.6.17-.63.2-.63.23-.63.27-.63.3-.63.34-.65.38-.66.44-.7.5-.7.55-.73.64-.76.7-.8.83-.83.95-.9 1.1-.93 1.27-1 1.5-1.1 1.8-1.18 2.16-1.3 2.67-1.48 3.38-1.67 4.4-1.95 6.02-2.38 9.08-3.14 19.44-5.78 40.6-11.62 9.1-3.14 6-2.38 4.4-1.95 3.38-1.67 2.67-1.47 2.16-1.32 1.8-1.2 1.5-1.08.3-.23" stroke="#5e5e5e" stroke-width="2" fill="none"/><path d="M1060.27 517.5l-.02 1.06-.98-.06-1.02.03.02-1.08" fill="#5e5e5e"/><path d="M1198.36 444.3l-3.24 14.64-8-4.7z" stroke="#5e5e5e" stroke-width="2" fill="#5e5e5e"/><path d="M959.3 577.5l.04-1.08.22-1.76.33-1.53.4-1.35.5-1.22.56-1.1.65-1.04.73-.98.83-.92.94-.9 1.1-.87 1.27-.85 1.53-.84 1.9-.83 2.37-.8 3.15-.8 4.46-.7 7.22-.52 11.75.24" stroke="#5e5e5e" stroke-width="2" fill="none"/><path d="M960.3 577.52l-.05 1.04-.98-.06-1.02.03.04-1.1" fill="#5e5e5e"/><path d="M1014.5 559.94l-14.34 4.35.18-9.28z" stroke="#5e5e5e" stroke-width="2" fill="#5e5e5e"/><path d="M859.22 517.5l-.06-1.76-.24-2.53-.4-2.35-.5-2.22-.65-2.14-.77-2.08-.92-2.05-1.08-2.04-1.3-2.08-1.53-2.17-1.9-2.33-2.42-2.62-3.4-3.22-6.98-5.72-12.62-10.1-3.4-3.2-2.43-2.63-1.9-2.33-1.53-2.17-1.3-2.08-.22-.42" stroke="#5e5e5e" stroke-width="2" fill="none"/><path d="M860.25 518.56l-.98-.06-1.02.03-.03-1.03 2-.06" fill="#5e5e5e"/><path d="M810.03 444.64l7.96 12.72-9 2.24z" stroke="#5e5e5e" stroke-width="2" fill="#5e5e5e"/><path d="M859.2 517.5v-.3l-.07-.64-.1-.63-.1-.62-.16-.6-.17-.63-.2-.63-.24-.62-.26-.64-.3-.64-.35-.65-.4-.68-.42-.7-.5-.7-.55-.73-.63-.78-.72-.8-.83-.84-.94-.88-1.1-.95-1.28-1-1.5-1.1-1.8-1.2-2.2-1.32-2.68-1.47-3.38-1.68-4.42-1.96-6.05-2.4-9.17-3.17-20.38-6.05-38.48-11.05-9.17-3.18-6.05-2.4-4.42-1.95-3.38-1.68-2.7-1.47-2.17-1.32-1.8-1.2-1.5-1.1-.36-.27" stroke="#5e5e5e" stroke-width="2" fill="none"/><path d="M860.25 518.56l-.98-.06-1.02.03-.02-1.04 2-.05" fill="#5e5e5e"/><path d="M720.9 444.3l11.2 9.95-8 4.7z" stroke="#5e5e5e" stroke-width="2" fill="#5e5e5e"/><path d="M859.28 517.5l.08-2.4.3-3.07.45-2.8.62-2.6.74-2.5.9-2.37 1.05-2.35 1.26-2.35 1.5-2.44 1.87-2.62 2.48-3.05 4.02-4.3L888 471.07l2.47-3.05 1.87-2.63 1.5-2.45 1.25-2.36.5-1.1" stroke="#5e5e5e" stroke-width="2" fill="none"/><path d="M860.28 517.5l-.03 1.06-.98-.06-1.02.03.03-1.1" fill="#5e5e5e"/><path d="M898.6 444.67l1.7 14.9-9.08-1.84z" stroke="#5e5e5e" stroke-width="2" fill="#5e5e5e"/><path d="M1149.25 400c0 22.1-17.9 40-40 40s-40-17.9-40-40 17.9-40 40-40 40 17.9 40 40z" stroke="#5e5e5e" stroke-width="3" fill="#d1bcd2"/><use xlink:href="#c" transform="matrix(1,0,0,1,1074.25,365) translate(27.592592592592595 39.65277777777778)"/><path d="M1059.28 517.5l.06-1.76.24-2.53.4-2.35.5-2.22.65-2.14.77-2.08.92-2.05 1.08-2.04 1.3-2.08 1.53-2.17 1.9-2.33 2.42-2.62 3.4-3.22 6.98-5.72 12.62-10.1 3.4-3.2 2.43-2.63 1.9-2.33 1.53-2.17 1.3-2.08.22-.42" stroke="#5e5e5e" stroke-width="2" fill="none"/><path d="M1060.28 517.5l-.03 1.06-.98-.06-1.02.03.03-1.1" fill="#5e5e5e"/><path d="M1108.47 444.64l1.04 14.96-9-2.24z" stroke="#5e5e5e" stroke-width="2" fill="#5e5e5e"/><path d="M679.25 246c0-3.3 2.7-6 6-6h68c3.3 0 6 2.7 6 6v88c0 3.3-2.7 6-6 6h-68c-3.3 0-6-2.7-6-6z" stroke="#5e5e5e" stroke-width="3" fill="#fff"/><use xlink:href="#d" transform="matrix(1,0,0,1,684.25,245) translate(5.401234567901234 48.71527777777778)"/><use xlink:href="#e" transform="matrix(1,0,0,1,684.25,245) translate(52.25308641975309 48.71527777777778)"/><path d="M769.25 246c0-3.3 2.7-6 6-6h68c3.3 0 6 2.7 6 6v88c0 3.3-2.7 6-6 6h-68c-3.3 0-6-2.7-6-6z" stroke="#5e5e5e" stroke-width="3" fill="#fff"/><use xlink:href="#d" transform="matrix(1,0,0,1,774.2499999999999,245) translate(5.401234567901234 48.71527777777778)"/><use xlink:href="#f" transform="matrix(1,0,0,1,774.2499999999999,245) translate(52.25308641975309 48.71527777777778)"/><path d="M859.25 246c0-3.3 2.7-6 6-6h68c3.3 0 6 2.7 6 6v88c0 3.3-2.7 6-6 6h-68c-3.3 0-6-2.7-6-6z" stroke="#5e5e5e" stroke-width="3" fill="#fff"/><use xlink:href="#d" transform="matrix(1,0,0,1,864.25,245) translate(5.401234567901234 48.71527777777778)"/><use xlink:href="#g" transform="matrix(1,0,0,1,864.25,245) translate(52.25308641975309 48.71527777777778)"/><path d="M979.25 246c0-3.3 2.7-6 6-6h68c3.3 0 6 2.7 6 6v88c0 3.3-2.7 6-6 6h-68c-3.3 0-6-2.7-6-6z" stroke="#5e5e5e" stroke-width="3" fill="#fff"/><use xlink:href="#d" transform="matrix(1,0,0,1,984.25,245) translate(5.401234567901234 48.71527777777778)"/><use xlink:href="#h" transform="matrix(1,0,0,1,984.25,245) translate(52.25308641975309 48.71527777777778)"/><path d="M1069.25 246c0-3.3 2.7-6 6-6h68c3.3 0 6 2.7 6 6v88c0 3.3-2.7 6-6 6h-68c-3.3 0-6-2.7-6-6z" stroke="#5e5e5e" stroke-width="3" fill="#fff"/><use xlink:href="#d" transform="matrix(1,0,0,1,1074.25,245) translate(5.401234567901234 48.71527777777778)"/><use xlink:href="#i" transform="matrix(1,0,0,1,1074.25,245) translate(52.25308641975309 48.71527777777778)"/><path d="M1159.25 246c0-3.3 2.7-6 6-6h68c3.3 0 6 2.7 6 6v88c0 3.3-2.7 6-6 6h-68c-3.3 0-6-2.7-6-6z" stroke="#5e5e5e" stroke-width="3" fill="#fff"/><use xlink:href="#d" transform="matrix(1,0,0,1,1164.25,245) translate(5.401234567901234 48.71527777777778)"/><use xlink:href="#j" transform="matrix(1,0,0,1,1164.25,245) translate(52.25308641975309 48.71527777777778)"/><path d="M120.03 237.5v-.18l.1-1.12.16-1.1.2-1.05.27-1.04.33-1 .4-1 .44-1 .5-1 .6-.97.68-1 .76-1 .87-1 .98-1 1.1-1.04 1.28-1.06 1.46-1.06 1.65-1.07 1.9-1.08 2.18-1.08 2.48-1.07 2.84-1.03 3.23-.97 3.62-.86 4-.72 4.35-.53 4.58-.3 4.68-.03 4.63.22 4.4.47 4.12.68 3.74.83 3.34.95 2.95 1.02 2.6 1.06 2.24 1.08 1.96 1.1 1.73 1.07 1.5 1.06 1.1.9" stroke="#3aa6dd" stroke-width="2" fill="none"/><path d="M121.03 237.5l-.03 1h-2l.03-1.05" fill="#3aa6dd"/><path d="M206.55 235.6l-10.53-10.67 8.3-4.15z" stroke="#3aa6dd" stroke-width="2" fill="#3aa6dd"/><path d="M420.03 237.5v-.18l.1-1.12.16-1.1.2-1.05.27-1.04.33-1 .4-1 .44-1 .5-1 .6-.97.68-1 .76-1 .87-1 .98-1 1.1-1.04 1.28-1.06 1.46-1.06 1.65-1.07 1.9-1.08 2.18-1.08 2.48-1.07 2.84-1.03 3.23-.97 3.62-.86 4-.72 4.35-.53 4.58-.3 4.68-.03 4.63.22 4.4.47 4.12.68 3.74.83 3.34.95 2.95 1.02 2.6 1.06 2.24 1.08 1.96 1.1 1.73 1.07 1.5 1.06 1.1.9" stroke="#3aa6dd" stroke-width="2" fill="none"/><path d="M421.03 237.5l-.03 1h-2l.03-1.05" fill="#3aa6dd"/><path d="M506.55 235.6l-10.53-10.67 8.3-4.15z" stroke="#3aa6dd" stroke-width="2" fill="#3aa6dd"/><path d="M420.02 237.5l.02-.78.1-1.73.18-1.7.24-1.63.3-1.6.38-1.58.43-1.56.5-1.54.56-1.5.64-1.5.7-1.5.78-1.5.86-1.48.95-1.5 1.04-1.5 1.13-1.5 1.25-1.5 1.37-1.52 1.5-1.54 1.66-1.55 1.83-1.56 2-1.58 2.2-1.6 2.44-1.62 2.7-1.63 2.97-1.62 3.3-1.63 3.62-1.62 4.02-1.6 4.42-1.53 4.85-1.46 5.3-1.36 5.74-1.22 6.14-1.04 6.52-.82 6.82-.57 7-.3h7.06l7 .3 6.8.57 6.53.83 6.16 1.04 5.74 1.2 5.3 1.37 4.84 1.47 4.43 1.54 4.02 1.6 3.63 1.6 3.3 1.64 2.96 1.63 2.7 1.64 2.43 1.62 2.2 1.6 2 1.6 1.82 1.56 1.65 1.55 1.5 1.53 1.37 1.53 1.25 1.5 1.14 1.5 1.05 1.5.94 1.5.85 1.48.66 1.26" stroke="#3aa6dd" stroke-width="2" fill="none"/><path d="M421.02 237.5l-.02 1h-2l.02-1.05" fill="#3aa6dd"/><path d="M599.26 235.35l-7.78-12.83 9.03-2.12z" stroke="#3aa6dd" stroke-width="2" fill="#3aa6dd"/><path d="M599.98 237.5l-.02-.78-.1-1.73-.18-1.7-.24-1.63-.3-1.6-.38-1.58-.43-1.56-.5-1.54-.56-1.5-.64-1.5-.7-1.5-.78-1.5-.86-1.48-.95-1.5-1.04-1.5-1.13-1.5-1.25-1.5-1.37-1.52-1.5-1.54-1.66-1.55-1.83-1.56-2-1.58-2.2-1.6-2.44-1.62-2.7-1.63-2.97-1.62-3.3-1.63-3.62-1.62-4.02-1.6-4.42-1.53-4.85-1.46-5.3-1.36-5.74-1.22-6.14-1.04-6.52-.82-6.82-.57-7-.3h-7.06l-7 .3-6.8.57-6.53.83-6.16 1.04-5.74 1.2-5.3 1.37-4.84 1.47-4.43 1.54-4.02 1.6-3.63 1.6-3.3 1.64-2.96 1.63-2.7 1.64-2.43 1.62-2.2 1.6-2 1.6-1.82 1.56-1.65 1.55-1.5 1.53-1.37 1.53-1.25 1.5-1.14 1.5-1.05 1.5-.94 1.5-.85 1.48-.66 1.26" stroke="#3aa6dd" stroke-width="2" fill="none"/><path d="M601 238.5h-2l-.02-1 2-.05" fill="#3aa6dd"/><path d="M420.74 235.35l-1.25-14.95 9.02 2.12z" stroke="#3aa6dd" stroke-width="2" fill="#3aa6dd"/><path d="M599.97 237.5v-.18l-.1-1.13-.15-1.1-.2-1.06-.27-1.04-.32-1.02-.38-1-.44-1-.5-.98-.57-1-.66-.98-.73-1-.84-1-.94-1-1.07-1.03-1.23-1.05-1.38-1.06-1.58-1.08-1.8-1.08-2.03-1.08-2.35-1.08-2.67-1.05-3.03-1-3.4-.93-3.8-.8-4.18-.65-4.45-.44-4.64-.2-4.68.07-4.57.3-4.33.55-4 .72-3.64.87-3.23.97-2.86 1.03-2.52 1.07-2.2 1.08-1.92 1.08-1.7 1.08-1.47 1.07-1.3 1.05" stroke="#3aa6dd" stroke-width="2" fill="none"/><path d="M601 238.5h-2l-.03-1 2-.05" fill="#3aa6dd"/><path d="M511.42 235.6l2.1-14.86 8.33 4.07z" stroke="#3aa6dd" stroke-width="2" fill="#3aa6dd"/><path d="M299.97 237.5v-.18l-.1-1.12-.16-1.1-.2-1.05-.27-1.04-.33-1-.4-1-.44-1-.5-1-.6-.97-.68-1-.76-1-.87-1-.98-1-1.1-1.04-1.28-1.06-1.46-1.06-1.65-1.07-1.9-1.08-2.18-1.08-2.48-1.07-2.84-1.03-3.23-.97-3.62-.86-4-.72-4.35-.53-4.58-.3-4.68-.03-4.63.22-4.4.47-4.12.68-3.74.83-3.34.95-2.95 1.02-2.6 1.06-2.24 1.08-1.96 1.1-1.73 1.07-1.5 1.06-1.1.9" stroke="#3aa6dd" stroke-width="2" fill="none"/><path d="M301 238.5h-2l-.03-1 2-.05" fill="#3aa6dd"/><path d="M213.45 235.6l2.24-14.82 8.28 4.15z" stroke="#3aa6dd" stroke-width="2" fill="#3aa6dd"/><path d="M120.02 237.5l.02-.78.1-1.73.18-1.7.24-1.63.3-1.6.38-1.58.43-1.56.5-1.54.56-1.5.64-1.5.7-1.5.78-1.5.86-1.48.95-1.5 1.04-1.5 1.13-1.5 1.25-1.5 1.37-1.52 1.5-1.54 1.66-1.55 1.83-1.56 2-1.58 2.2-1.6 2.44-1.62 2.7-1.63 2.97-1.62 3.3-1.63 3.62-1.62 4.02-1.6 4.42-1.53 4.85-1.46 5.3-1.36 5.74-1.22 6.14-1.04 6.52-.82 6.82-.57 7-.3h7.06l7 .3 6.8.57 6.53.83 6.16 1.04 5.74 1.2 5.3 1.37 4.84 1.47 4.43 1.54 4.02 1.6 3.63 1.6 3.3 1.64 2.96 1.63 2.7 1.64 2.43 1.62 2.2 1.6 2 1.6 1.82 1.56 1.65 1.55 1.5 1.53 1.37 1.53 1.25 1.5 1.14 1.5 1.05 1.5.94 1.5.85 1.48.66 1.26" stroke="#3aa6dd" stroke-width="2" fill="none"/><path d="M121.02 237.5l-.02 1h-2l.02-1.05" fill="#3aa6dd"/><path d="M299.26 235.35l-7.78-12.83 9.03-2.12z" stroke="#3aa6dd" stroke-width="2" fill="#3aa6dd"/><path d="M299.98 237.5l-.02-.78-.1-1.73-.18-1.7-.24-1.63-.3-1.6-.38-1.58-.43-1.56-.5-1.54-.56-1.5-.64-1.5-.7-1.5-.78-1.5-.86-1.48-.95-1.5-1.04-1.5-1.13-1.5-1.25-1.5-1.37-1.52-1.5-1.54-1.66-1.55-1.83-1.56-2-1.58-2.2-1.6-2.44-1.62-2.7-1.63-2.97-1.62-3.3-1.63-3.62-1.62-4.02-1.6-4.42-1.53-4.85-1.46-5.3-1.36-5.74-1.22-6.14-1.04-6.52-.82-6.82-.57-7-.3h-7.06l-7 .3-6.8.57-6.53.83-6.16 1.04-5.74 1.2-5.3 1.37-4.84 1.47-4.43 1.54-4.02 1.6-3.63 1.6-3.3 1.64-2.96 1.63-2.7 1.64-2.43 1.62-2.2 1.6-2 1.6-1.82 1.56-1.65 1.55-1.5 1.53-1.37 1.53-1.25 1.5-1.14 1.5-1.05 1.5-.94 1.5-.85 1.48-.66 1.26" stroke="#3aa6dd" stroke-width="2" fill="none"/><path d="M301 238.5h-2l-.02-1 2-.05" fill="#3aa6dd"/><path d="M120.74 235.35l-1.25-14.95 9.02 2.12z" stroke="#3aa6dd" stroke-width="2" fill="#3aa6dd"/><path d="M719.27 237.5l.04-2 .2-2.9.3-2.8.4-2.76.5-2.7.63-2.64.73-2.6.83-2.58.94-2.54 1.06-2.52 1.18-2.5 1.3-2.5 1.45-2.5 1.6-2.5 1.73-2.5 1.9-2.53 2.1-2.53 2.3-2.56 2.54-2.58 2.77-2.6 3.05-2.63 3.36-2.66 3.7-2.7 4.1-2.7 4.5-2.74 5-2.74 5.52-2.75 6.1-2.7 6.73-2.68 7.43-2.58 8.14-2.46 8.9-2.28 9.62-2.05 10.33-1.73 10.95-1.38 11.43-.97 11.75-.5h11.85l11.75.5 11.43.96 10.96 1.37 10.33 1.75 9.62 2.04 8.88 2.28 8.15 2.46 7.42 2.58 6.73 2.66 6.1 2.72 5.52 2.73 5 2.74 4.5 2.73 4.1 2.7 3.7 2.7 3.35 2.66 3.05 2.64 2.77 2.6 2.52 2.58 2.3 2.55 2.1 2.54 1.9 2.52 1.75 2.5 1.6 2.5 1.43 2.5 1.3 2.5 1.2 2.5 1.05 2.53.94 2.53.83 2.57.3 1.13" stroke="#7ab648" stroke-width="2" fill="none"/><path d="M720.27 237.5l-.02 1h-2l.02-1.05" fill="#7ab648"/><path d="M1020.9 235.3l-6.52-13.5 9.18-1.27z" stroke="#7ab648" stroke-width="2" fill="#7ab648"/><path d="M809.27 237.5l.02-1.1.12-2.04.2-1.98.3-1.93.36-1.9.43-1.85.52-1.83.6-1.8.65-1.78.75-1.78.83-1.77.9-1.75 1.03-1.75 1.1-1.76 1.23-1.77 1.35-1.76 1.48-1.78 1.6-1.8 1.8-1.82 1.94-1.83 2.14-1.84 2.37-1.86 2.6-1.9 2.87-1.9 3.17-1.92 3.5-1.92 3.88-1.92 4.3-1.9 4.72-1.88 5.2-1.8 5.72-1.73 6.25-1.6 6.76-1.44 7.25-1.22 7.7-.96 8-.68 8.26-.34h8.32l8.25.34 8.04.68 7.68.97 7.25 1.23 6.76 1.44 6.24 1.6 5.72 1.72 5.2 1.8 4.73 1.88 4.28 1.9 3.88 1.92 3.5 1.93 3.17 1.92 2.87 1.9 2.6 1.9 2.36 1.86 2.14 1.86 1.95 1.83 1.77 1.8 1.62 1.8 1.47 1.77 1.34 1.77 1.23 1.76 1.1 1.75 1.02 1.75.92 1.76.83 1.76.4.95" stroke="#7ab648" stroke-width="2" fill="none"/><path d="M810.27 237.5l-.02 1h-2l.02-1.05" fill="#7ab648"/><path d="M1020.7 235.33l-7.3-13.1 9.1-1.8z" stroke="#7ab648" stroke-width="2" fill="#7ab648"/><path d="M899.27 237.5v-.2l.08-1.15.12-1.13.16-1.1.2-1.08.25-1.06.3-1.04.33-1.02.38-1.02.43-1 .48-1 .52-1 .58-1 .63-1 .7-1 .77-1.02.84-1 .93-1.03 1-1.03 1.12-1.04 1.22-1.05 1.34-1.07 1.5-1.07 1.63-1.1 1.8-1.1 2-1.1 2.2-1.08 2.44-1.08 2.7-1.07 2.96-1.03 3.26-.98 3.54-.9 3.85-.83 4.12-.7 4.38-.55 4.57-.38 4.7-.2H962l4.7.2 4.56.38 4.38.55 4.13.7 3.85.82 3.55.9 3.26 1 2.96 1.02 2.68 1.07 2.44 1.08 2.2 1.1 2 1.1 1.8 1.08 1.64 1.1 1.48 1.06 1.34 1.07 1.22 1.05 1.1 1.04 1.02 1.03.92 1.02.63.77" stroke="#7ab648" stroke-width="2" fill="none"/><path d="M900.27 237.5l-.02 1h-2l.02-1.05" fill="#7ab648"/><path d="M1018.9 235.45l-9.18-11.85 8.73-3.14z" stroke="#7ab648" stroke-width="2" fill="#7ab648"/><path d="M719.27 237.5l.06-2.86.24-3.75.38-3.65.52-3.55.67-3.48.8-3.42.94-3.36 1.08-3.32 1.22-3.28 1.37-3.26 1.52-3.24 1.7-3.22 1.85-3.23 2.05-3.23 2.25-3.24 2.47-3.25 2.7-3.27 2.97-3.3 3.26-3.32 3.58-3.37 3.95-3.4 4.34-3.42 4.78-3.48 5.27-3.5 5.83-3.53 6.45-3.54 7.13-3.53 7.87-3.5 8.7-3.45 9.58-3.33 10.53-3.17 11.48-2.95 12.45-2.64 13.34-2.25 14.12-1.77 14.77-1.24 15.16-.65h15.3l15.17.64 14.76 1.23 14.13 1.78 13.34 2.27 12.43 2.64 11.48 2.95 10.5 3.17 9.6 3.34 8.7 3.44 7.87 3.5 7.12 3.54 6.44 3.54 5.84 3.53 5.28 3.5 4.78 3.48 4.34 3.44 3.94 3.4 3.58 3.36 3.26 3.33 2.97 3.3 2.7 3.3 2.47 3.24 2.25 3.23 2.05 3.23 1.86 3.22 1.7 3.23 1.5 3.24 1.38 3.25 1.23 3.28 1.08 3.32.95 3.36.78 3.33" stroke="#7ab648" stroke-width="2" fill="none"/><path d="M720.27 237.5l-.02 1h-2l.02-1.05" fill="#7ab648"/><path d="M1109 235.28l-6.1-13.7 9.24-.97z" stroke="#7ab648" stroke-width="2" fill="#7ab648"/><path d="M809.27 237.5l.04-1.97.2-2.88.3-2.8.4-2.74.5-2.67.62-2.62.72-2.58.83-2.55.94-2.53 1.06-2.5 1.18-2.5 1.3-2.48 1.43-2.48 1.57-2.48 1.73-2.5 1.9-2.5 2.1-2.5 2.27-2.54 2.5-2.57 2.77-2.6 3.04-2.6 3.34-2.65 3.68-2.67 4.06-2.7 4.48-2.7 4.96-2.74 5.48-2.72 6.06-2.7 6.7-2.64 7.37-2.56 8.1-2.44 8.82-2.27 9.55-2.02 10.27-1.73 10.87-1.37 11.35-.96 11.67-.48h11.77l11.66.5 11.36.94 10.87 1.37 10.25 1.74 9.57 2.02 8.83 2.26 8.1 2.44 7.36 2.57 6.7 2.63 6.05 2.7 5.5 2.72 4.94 2.72 4.48 2.72 4.06 2.68 3.67 2.67 3.35 2.65 3.03 2.6 2.76 2.6 2.5 2.56 2.3 2.54 2.08 2.52 1.9 2.5 1.73 2.5 1.57 2.47 1.43 2.47 1.3 2.48 1.17 2.5 1.06 2.5.94 2.52.82 2.56.28 1" stroke="#7ab648" stroke-width="2" fill="none"/><path d="M810.27 237.5l-.02 1h-2l.02-1.05" fill="#7ab648"/><path d="M1108.9 235.3l-6.54-13.5 9.18-1.27z" stroke="#7ab648" stroke-width="2" fill="#7ab648"/><path d="M809.27 237.5l.06-2.87.24-3.75.38-3.65.53-3.56.66-3.48.8-3.44.94-3.36 1.08-3.33 1.23-3.3 1.36-3.25 1.53-3.24 1.68-3.23 1.86-3.23 2.05-3.24 2.25-3.24 2.47-3.25 2.7-3.3 3-3.3 3.26-3.33 3.6-3.37 3.94-3.4 4.34-3.45 4.8-3.48 5.28-3.5 5.84-3.54 6.46-3.55 7.13-3.54 7.9-3.5 8.7-3.46 9.6-3.34 10.54-3.17 11.5-2.95 12.47-2.65 13.36-2.25 14.16-1.8 14.78-1.23 15.2-.65h15.33l15.2.64 14.8 1.23 14.15 1.8 13.36 2.25 12.47 2.64 11.5 2.95 10.53 3.18 9.6 3.34 8.7 3.44 7.9 3.5 7.13 3.55 6.46 3.53 5.82 3.54 5.3 3.5 4.78 3.5 4.34 3.43 3.95 3.4 3.58 3.37 3.27 3.34 2.97 3.32 2.72 3.27 2.47 3.25 2.26 3.24 2.05 3.22 1.88 3.23 1.7 3.24 1.5 3.23 1.4 3.26 1.2 3.28 1.1 3.32.93 3.37.8 3.36" stroke="#7ab648" stroke-width="2" fill="none"/><path d="M810.27 237.5l-.02 1h-2l.02-1.05" fill="#7ab648"/><path d="M1199.67 235.28l-6.08-13.7 9.2-.97z" stroke="#7ab648" stroke-width="2" fill="#7ab648"/><path d="M1199.23 237.5l-.08-3.75-.3-4.6-.46-4.5-.66-4.37-.8-4.28-1-4.2-1.15-4.14-1.34-4.08-1.5-4.04-1.7-4-1.86-4-2.08-3.96-2.3-3.97-2.5-3.96-2.78-3.98-3.04-4-3.33-4.03-3.66-4.06-4-4.1-4.4-4.14-4.86-4.18-5.34-4.23-5.9-4.27-6.48-4.32-7.17-4.34-7.93-4.36-8.77-4.35-9.7-4.32-10.7-4.24-11.8-4.1-12.93-3.9-14.13-3.62-15.3-3.25-16.43-2.78-17.4-2.2-18.16-1.52-18.65-.78H949.8l-18.65.78-18.17 1.53-17.4 2.2-16.4 2.77-15.3 3.25-14.13 3.63-12.94 3.9-11.78 4.1-10.7 4.24-9.7 4.3-8.76 4.35-7.92 4.35-7.18 4.35-6.5 4.3-5.87 4.28-5.35 4.23-4.85 4.18-4.4 4.14-4.02 4.1-3.66 4.06-3.33 4.03-3.05 4-2.77 3.98-2.52 3.97-2.3 3.97-2.06 3.96-1.88 3.98-1.68 4-1.5 4.05-1.33 4.07-1.14 4.14-1 4.2-.77 4.08" stroke="#7ab648" stroke-width="2" fill="none"/><path d="M1200.25 238.5h-2l-.02-1 2-.05" fill="#7ab648"/><path d="M719.52 235.28l-3.43-14.6 9.23.77z" stroke="#7ab648" stroke-width="2" fill="#7ab648"/><path d="M1199.23 237.5l-.06-2.86-.24-3.74-.38-3.65-.52-3.55-.67-3.48-.8-3.4-.94-3.38-1.07-3.3-1.23-3.3-1.36-3.25-1.53-3.25-1.7-3.22-1.85-3.23-2.04-3.22-2.25-3.24-2.48-3.25-2.7-3.28-2.98-3.3-3.26-3.33-3.6-3.37-3.93-3.4-4.34-3.44-4.77-3.48-5.27-3.5-5.83-3.53-6.45-3.55-7.12-3.54-7.88-3.5-8.7-3.43-9.57-3.33-10.5-3.17-11.48-2.94-12.44-2.64-13.34-2.27-14.13-1.78-14.75-1.24-15.17-.62h-15.3l-15.16.64-14.76 1.23-14.14 1.8-13.33 2.24-12.44 2.63-11.48 2.95-10.5 3.17-9.6 3.33-8.68 3.44-7.88 3.5-7.12 3.54-6.44 3.54-5.83 3.52-5.28 3.5-4.78 3.48-4.33 3.44-3.94 3.4-3.58 3.36-3.27 3.33-2.97 3.3-2.7 3.27-2.47 3.25-2.24 3.23-2.05 3.23-1.85 3.23-1.7 3.23-1.5 3.24-1.38 3.25-1.22 3.28-1.08 3.32-.93 3.36-.78 3.33" stroke="#7ab648" stroke-width="2" fill="none"/><path d="M1200.25 238.5h-2l-.02-1 2-.05" fill="#7ab648"/><path d="M809.58 235.28l-3.13-14.67 9.22.97z" stroke="#7ab648" stroke-width="2" fill="#7ab648"/><path d="M1019.23 237.5v-.2l-.08-1.14-.1-1.12-.18-1.1-.2-1.06-.25-1.06-.3-1.03-.32-1.03-.37-1-.42-1-.46-1-.52-1-.58-1-.63-.98-.68-1-.76-1-.83-1.02-.9-1-1.02-1.04-1.1-1.03-1.2-1.04-1.34-1.05-1.47-1.06-1.63-1.08-1.8-1.1-1.98-1.08-2.2-1.08-2.42-1.08-2.68-1.06-2.95-1.03-3.23-.97-3.53-.9-3.84-.82-4.1-.7-4.35-.54-4.54-.38-4.66-.2h-4.7l-4.68.2-4.54.38-4.35.55-4.1.7-3.82.8-3.52.9-3.24 1-2.95 1-2.68 1.07-2.42 1.08-2.2 1.1-1.98 1.08-1.8 1.08-1.6 1.08-1.5 1.07-1.32 1.06-1.2 1.05-1.1 1.05-1.02 1.02-.9 1-.56.68" stroke="#7ab648" stroke-width="2" fill="none"/><path d="M1020.25 238.5h-2l-.02-1 2-.05" fill="#7ab648"/><path d="M900.35 235.46l.5-15 8.7 3.16z" stroke="#7ab648" stroke-width="2" fill="#7ab648"/><path d="M1109.23 237.5l-.02-1.06-.12-2-.2-1.94-.28-1.9-.36-1.85-.42-1.82-.5-1.8-.58-1.76-.65-1.75-.74-1.73-.8-1.74-.9-1.72-1-1.72-1.1-1.72-1.2-1.72-1.3-1.73-1.45-1.75-1.58-1.76-1.74-1.77-1.9-1.8-2.1-1.8-2.32-1.84-2.55-1.85-2.8-1.87-3.1-1.87-3.45-1.9-3.8-1.87-4.2-1.87-4.63-1.84-5.1-1.78-5.6-1.7-6.13-1.56-6.64-1.4-7.1-1.2-7.54-.95-7.87-.66-8.1-.33h-8.15l-8.08.34-7.87.67-7.54.95-7.1 1.2-6.62 1.4-6.12 1.58-5.6 1.7-5.1 1.76-4.64 1.84-4.2 1.87-3.8 1.88-3.43 1.9-3.12 1.87-2.8 1.86-2.56 1.86-2.3 1.83-2.1 1.8-1.92 1.8-1.74 1.78-1.6 1.76-1.43 1.75-1.32 1.73-1.18 1.73-1.1 1.73-1 1.72-.9 1.72-.8 1.72-.25.6" stroke="#7ab648" stroke-width="2" fill="none"/><path d="M1110.25 238.5h-2l-.02-1 2-.05" fill="#7ab648"/><path d="M901.97 235.33l-1.72-14.9 9.1 1.83z" stroke="#7ab648" stroke-width="2" fill="#7ab648"/><path d="M1199.23 237.5l-.04-1.97-.2-2.88-.3-2.8-.4-2.74-.5-2.66-.62-2.63-.72-2.57-.83-2.56-.94-2.52-1.06-2.5-1.17-2.5-1.3-2.48-1.43-2.48-1.58-2.5-1.73-2.48-1.9-2.5-2.08-2.5-2.3-2.55-2.5-2.56-2.75-2.58-3.03-2.6-3.34-2.66-3.68-2.67-4.06-2.7-4.5-2.72-4.95-2.72-5.48-2.72-6.06-2.7-6.68-2.64-7.37-2.56-8.08-2.44-8.83-2.27-9.57-2.03-10.26-1.73-10.86-1.37-11.35-.95-11.68-.5h-11.77l-11.66.5-11.37.95-10.87 1.38-10.26 1.73-9.56 2.04-8.83 2.26-8.07 2.44-7.37 2.57-6.7 2.65-6.05 2.7-5.47 2.72-4.95 2.72-4.48 2.7-4.06 2.7-3.68 2.67-3.34 2.64-3.03 2.63-2.76 2.58-2.5 2.57-2.3 2.54-2.08 2.53-1.9 2.5-1.73 2.5-1.57 2.47-1.43 2.48-1.3 2.48-1.17 2.5-1.05 2.5-.93 2.52-.83 2.55-.28 1" stroke="#7ab648" stroke-width="2" fill="none"/><path d="M1200.25 238.5h-2l-.02-1 2-.05" fill="#7ab648"/><path d="M899.7 235.3l-2.66-14.77 9.18 1.26z" stroke="#7ab648" stroke-width="2" fill="#7ab648"/><path d="M90 146c0-3.3 2.7-6 6-6h228c3.3 0 6 2.7 6 6v48c0 3.3-2.7 6-6 6H96c-3.3 0-6-2.7-6-6z" stroke="#000" stroke-opacity="0" stroke-width="3" fill="#fff" fill-opacity="0"/><use xlink:href="#k" transform="matrix(1,0,0,1,95,145) translate(34.38271604938272 30.27777777777778)"/><use xlink:href="#l" transform="matrix(1,0,0,1,95,145) translate(109.5679012345679 30.27777777777778)"/><path d="M379.25 146c0-3.3 2.7-6 6-6h228c3.3 0 6 2.7 6 6v48c0 3.3-2.7 6-6 6h-228c-3.3 0-6-2.7-6-6z" stroke="#000" stroke-opacity="0" stroke-width="3" fill="#fff" fill-opacity="0"/><use xlink:href="#k" transform="matrix(1,0,0,1,384.25,145) translate(34.38271604938272 30.27777777777778)"/><use xlink:href="#l" transform="matrix(1,0,0,1,384.25,145) translate(109.5679012345679 30.27777777777778)"/><path d="M839.25 46c0-3.3 2.7-6 6-6h228c3.3 0 6 2.7 6 6v48c0 3.3-2.7 6-6 6h-228c-3.3 0-6-2.7-6-6z" stroke="#000" stroke-opacity="0" stroke-width="3" fill="#fff" fill-opacity="0"/><use xlink:href="#m" transform="matrix(1,0,0,1,844.25,45) translate(34.38271604938272 30.27777777777778)"/><use xlink:href="#n" transform="matrix(1,0,0,1,844.25,45) translate(109.5679012345679 30.27777777777778)"/><path d="M121.5 340.75c.4 0 .75.34.75.75v17c0 .4-.34.75-.75.75-.4 0-.75-.34-.75-.75v-17c0-.4.34-.75.75-.75zM210 340.75c.4 0 .75.34.75.75v17c0 .4-.34.75-.75.75-.4 0-.75-.34-.75-.75v-17c0-.4.34-.75.75-.75z" stroke="#5e5e5e" stroke-width="1.5" fill="none"/><g><path d="M301.5 340.75c.4 0 .75.34.75.75v17c0 .4-.34.75-.75.75-.4 0-.75-.34-.75-.75v-17c0-.4.34-.75.75-.75z" stroke="#5e5e5e" stroke-width="1.5" fill="none"/></g><g><path d="M421.5 340.75c.4 0 .75.34.75.75v17c0 .4-.34.75-.75.75-.4 0-.75-.34-.75-.75v-17c0-.4.34-.75.75-.75z" stroke="#5e5e5e" stroke-width="1.5" fill="none"/></g><g><path d="M510 340.75c.4 0 .75.34.75.75v17c0 .4-.34.75-.75.75-.4 0-.75-.34-.75-.75v-17c0-.4.34-.75.75-.75z" stroke="#5e5e5e" stroke-width="1.5" fill="none"/></g><g><path d="M604.25 340.75c.4 0 .75.34.75.75v17c0 .4-.34.75-.75.75-.4 0-.75-.34-.75-.75v-17c0-.4.34-.75.75-.75z" stroke="#5e5e5e" stroke-width="1.5" fill="none"/></g><g><path d="M721.5 340.75c.4 0 .75.34.75.75v17c0 .4-.34.75-.75.75-.4 0-.75-.34-.75-.75v-17c0-.4.34-.75.75-.75z" stroke="#5e5e5e" stroke-width="1.5" fill="none"/></g><g><path d="M809.25 340.75c.4 0 .75.34.75.75v17c0 .4-.34.75-.75.75-.4 0-.75-.34-.75-.75v-17c0-.4.34-.75.75-.75z" stroke="#5e5e5e" stroke-width="1.5" fill="none"/></g><g><path d="M899.25 340.75c.4 0 .75.34.75.75v17c0 .4-.34.75-.75.75-.4 0-.75-.34-.75-.75v-17c0-.4.34-.75.75-.75z" stroke="#5e5e5e" stroke-width="1.5" fill="none"/></g><g><path d="M1020.75 340.75c.4 0 .75.34.75.75v17c0 .4-.34.75-.75.75-.4 0-.75-.34-.75-.75v-17c0-.4.34-.75.75-.75z" stroke="#5e5e5e" stroke-width="1.5" fill="none"/></g><g><path d="M1109.25 340.75c.4 0 .75.34.75.75v17c0 .4-.34.75-.75.75-.4 0-.75-.34-.75-.75v-17c0-.4.34-.75.75-.75z" stroke="#5e5e5e" stroke-width="1.5" fill="none"/></g><g><path d="M1201.5 340.75c.4 0 .75.34.75.75v17c0 .4-.34.75-.75.75-.4 0-.75-.34-.75-.75v-17c0-.4.34-.75.75-.75z" stroke="#5e5e5e" stroke-width="1.5" fill="none"/></g><path d="M240 666c0-3.3 2.7-6 6-6h228c3.3 0 6 2.7 6 6v48c0 3.3-2.7 6-6 6H246c-3.3 0-6-2.7-6-6z" stroke="#000" stroke-opacity="0" stroke-width="3" fill="#fff" fill-opacity="0"/><g><use xlink:href="#o" transform="matrix(1,0,0,1,245,665) translate(8.302469135802482 30.27777777777778)"/><use xlink:href="#p" transform="matrix(1,0,0,1,245,665) translate(58.85802469135804 30.27777777777778)"/><use xlink:href="#q" transform="matrix(1,0,0,1,245,665) translate(127.9320987654321 30.27777777777778)"/></g><path d="M849.25 666c0-3.3 2.7-6 6-6h228c3.3 0 6 2.7 6 6v48c0 3.3-2.7 6-6 6h-228c-3.3 0-6-2.7-6-6z" stroke="#000" stroke-opacity="0" stroke-width="3" fill="#fff" fill-opacity="0"/><g><use xlink:href="#r" transform="matrix(1,0,0,1,854.2499999999999,665) translate(2.746913580246911 30.27777777777778)"/><use xlink:href="#s" transform="matrix(1,0,0,1,854.2499999999999,665) translate(53.30246913580247 30.27777777777778)"/><use xlink:href="#q" transform="matrix(1,0,0,1,854.2499999999999,665) translate(133.48765432098764 30.27777777777778)"/></g><defs><path fill="#fff" d="M63-220v92h138v28H63V0H30v-248h175v28H63" id="t"/><path fill="#fff" d="M30-248c87 1 191-15 191 75 0 78-77 80-158 76V0H30v-248zm33 125c57 0 124 11 124-50 0-59-68-47-124-48v98" id="u"/><g id="a"><use transform="matrix(0.06172839506172839,0,0,0.06172839506172839,0,0)" xlink:href="#t"/><use transform="matrix(0.06172839506172839,0,0,0.06172839506172839,13.518518518518517,0)" xlink:href="#u"/></g><path fill="#333" d="M205 0l-28-72H64L36 0H1l101-248h38L239 0h-34zm-38-99l-47-123c-12 45-31 82-46 123h93" id="v"/><use transform="matrix(0.06172839506172839,0,0,0.06172839506172839,0,0)" xlink:href="#v" id="b"/><path fill="#333" d="M30-248c87 1 191-15 191 75 0 78-77 80-158 76V0H30v-248zm33 125c57 0 124 11 124-50 0-59-68-47-124-48v98" id="w"/><use transform="matrix(0.06172839506172839,0,0,0.06172839506172839,0,0)" xlink:href="#w" id="c"/><path fill="#333" d="M127-220V0H93v-220H8v-28h204v28h-85" id="x"/><path fill="#333" d="M100-194c63 0 86 42 84 106H49c0 40 14 67 53 68 26 1 43-12 49-29l28 8c-11 28-37 45-77 45C44 4 14-33 15-96c1-61 26-98 85-98zm52 81c6-60-76-77-97-28-3 7-6 17-6 28h103" id="y"/><path fill="#333" d="M141 0L90-78 38 0H4l68-98-65-92h35l48 74 47-74h35l-64 92 68 98h-35" id="z"/><path fill="#333" d="M59-47c-2 24 18 29 38 22v24C64 9 27 4 27-40v-127H5v-23h24l9-43h21v43h35v23H59v120" id="A"/><g id="d"><use transform="matrix(0.06172839506172839,0,0,0.06172839506172839,0,0)" xlink:href="#x"/><use transform="matrix(0.06172839506172839,0,0,0.06172839506172839,11.049382716049381,0)" xlink:href="#y"/><use transform="matrix(0.06172839506172839,0,0,0.06172839506172839,23.39506172839506,0)" xlink:href="#z"/><use transform="matrix(0.06172839506172839,0,0,0.06172839506172839,34.50617283950617,0)" xlink:href="#A"/></g><path fill="#333" d="M27 0v-27h64v-190l-56 39v-29l58-41h29v221h61V0H27" id="B"/><use transform="matrix(0.06172839506172839,0,0,0.06172839506172839,0,0)" xlink:href="#B" id="e"/><path fill="#333" d="M101-251c82-7 93 87 43 132L82-64C71-53 59-42 53-27h129V0H18c2-99 128-94 128-182 0-28-16-43-45-43s-46 15-49 41l-32-3c6-41 34-60 81-64" id="C"/><use transform="matrix(0.06172839506172839,0,0,0.06172839506172839,0,0)" xlink:href="#C" id="f"/><path fill="#333" d="M126-127c33 6 58 20 58 59 0 88-139 92-164 29-3-8-5-16-6-25l32-3c6 27 21 44 54 44 32 0 52-15 52-46 0-38-36-46-79-43v-28c39 1 72-4 72-42 0-27-17-43-46-43-28 0-47 15-49 41l-32-3c6-42 35-63 81-64 48-1 79 21 79 65 0 36-21 52-52 59" id="D"/><use transform="matrix(0.06172839506172839,0,0,0.06172839506172839,0,0)" xlink:href="#D" id="g"/><path fill="#333" d="M155-56V0h-30v-56H8v-25l114-167h33v167h35v25h-35zm-30-156c-27 46-58 90-88 131h88v-131" id="E"/><use transform="matrix(0.06172839506172839,0,0,0.06172839506172839,0,0)" xlink:href="#E" id="h"/><path fill="#333" d="M54-142c48-35 137-8 131 61C196 18 31 33 14-55l32-4c7 23 22 37 52 37 35-1 51-22 54-58 4-55-73-65-99-34H22l8-134h141v27H59" id="F"/><use transform="matrix(0.06172839506172839,0,0,0.06172839506172839,0,0)" xlink:href="#F" id="i"/><path fill="#333" d="M110-160c48 1 74 30 74 79 0 53-28 85-80 85-65 0-83-55-86-122-5-90 50-162 133-122 14 7 22 21 27 39l-31 6c-5-40-67-38-82-6-9 19-15 44-15 74 11-20 30-34 60-33zm-7 138c34 0 49-23 49-58s-16-56-50-56c-29 0-50 16-49 49 1 36 15 65 50 65" id="G"/><use transform="matrix(0.06172839506172839,0,0,0.06172839506172839,0,0)" xlink:href="#G" id="j"/><path fill="#3aa6dd" d="M212-179c-10-28-35-45-73-45-59 0-87 40-87 99 0 60 29 101 89 101 43 0 62-24 78-52l27 14C228-24 195 4 139 4 59 4 22-46 18-125c-6-104 99-153 187-111 19 9 31 26 39 46" id="H"/><path fill="#3aa6dd" d="M100-194c62-1 85 37 85 99 1 63-27 99-86 99S16-35 15-95c0-66 28-99 85-99zM99-20c44 1 53-31 53-75 0-43-8-75-51-75s-53 32-53 75 10 74 51 75" id="I"/><path fill="#3aa6dd" d="M135-143c-3-34-86-38-87 0 15 53 115 12 119 90S17 21 10-45l28-5c4 36 97 45 98 0-10-56-113-15-118-90-4-57 82-63 122-42 12 7 21 19 24 35" id="J"/><path fill="#3aa6dd" d="M24-231v-30h32v30H24zM24 0v-190h32V0H24" id="K"/><path fill="#3aa6dd" d="M117-194c89-4 53 116 60 194h-32v-121c0-31-8-49-39-48C34-167 62-67 57 0H25l-1-190h30c1 10-1 24 2 32 11-22 29-35 61-36" id="L"/><path fill="#3aa6dd" d="M100-194c63 0 86 42 84 106H49c0 40 14 67 53 68 26 1 43-12 49-29l28 8c-11 28-37 45-77 45C44 4 14-33 15-96c1-61 26-98 85-98zm52 81c6-60-76-77-97-28-3 7-6 17-6 28h103" id="M"/><g id="k"><use transform="matrix(0.06172839506172839,0,0,0.06172839506172839,0,0)" xlink:href="#H"/><use transform="matrix(0.06172839506172839,0,0,0.06172839506172839,15.987654320987653,0)" xlink:href="#I"/><use transform="matrix(0.06172839506172839,0,0,0.06172839506172839,28.333333333333332,0)" xlink:href="#J"/><use transform="matrix(0.06172839506172839,0,0,0.06172839506172839,39.44444444444444,0)" xlink:href="#K"/><use transform="matrix(0.06172839506172839,0,0,0.06172839506172839,44.32098765432099,0)" xlink:href="#L"/><use transform="matrix(0.06172839506172839,0,0,0.06172839506172839,56.666666666666664,0)" xlink:href="#M"/></g><path fill="#3aa6dd" d="M210-169c-67 3-38 105-44 169h-31v-121c0-29-5-50-35-48C34-165 62-65 56 0H25l-1-190h30c1 10-1 24 2 32 10-44 99-50 107 0 11-21 27-35 58-36 85-2 47 119 55 194h-31v-121c0-29-5-49-35-48" id="N"/><path fill="#3aa6dd" d="M24 0v-261h32V0H24" id="O"/><path fill="#3aa6dd" d="M141-36C126-15 110 5 73 4 37 3 15-17 15-53c-1-64 63-63 125-63 3-35-9-54-41-54-24 1-41 7-42 31l-33-3c5-37 33-52 76-52 45 0 72 20 72 64v82c-1 20 7 32 28 27v20c-31 9-61-2-59-35zM48-53c0 20 12 33 32 33 41-3 63-29 60-74-43 2-92-5-92 41" id="P"/><path fill="#3aa6dd" d="M114-163C36-179 61-72 57 0H25l-1-190h30c1 12-1 29 2 39 6-27 23-49 58-41v29" id="Q"/><path fill="#3aa6dd" d="M59-47c-2 24 18 29 38 22v24C64 9 27 4 27-40v-127H5v-23h24l9-43h21v43h35v23H59v120" id="R"/><path fill="#3aa6dd" d="M179-190L93 31C79 59 56 82 12 73V49c39 6 53-20 64-50L1-190h34L92-34l54-156h33" id="S"/><g id="l"><use transform="matrix(0.06172839506172839,0,0,0.06172839506172839,0,0)" xlink:href="#J"/><use transform="matrix(0.06172839506172839,0,0,0.06172839506172839,11.11111111111111,0)" xlink:href="#K"/><use transform="matrix(0.06172839506172839,0,0,0.06172839506172839,15.987654320987653,0)" xlink:href="#N"/><use transform="matrix(0.06172839506172839,0,0,0.06172839506172839,34.44444444444444,0)" xlink:href="#K"/><use transform="matrix(0.06172839506172839,0,0,0.06172839506172839,39.32098765432099,0)" xlink:href="#O"/><use transform="matrix(0.06172839506172839,0,0,0.06172839506172839,44.19753086419753,0)" xlink:href="#P"/><use transform="matrix(0.06172839506172839,0,0,0.06172839506172839,56.54320987654321,0)" xlink:href="#Q"/><use transform="matrix(0.06172839506172839,0,0,0.06172839506172839,63.888888888888886,0)" xlink:href="#K"/><use transform="matrix(0.06172839506172839,0,0,0.06172839506172839,68.76543209876543,0)" xlink:href="#R"/><use transform="matrix(0.06172839506172839,0,0,0.06172839506172839,74.93827160493827,0)" xlink:href="#S"/></g><path fill="#7ab648" d="M212-179c-10-28-35-45-73-45-59 0-87 40-87 99 0 60 29 101 89 101 43 0 62-24 78-52l27 14C228-24 195 4 139 4 59 4 22-46 18-125c-6-104 99-153 187-111 19 9 31 26 39 46" id="T"/><path fill="#7ab648" d="M100-194c62-1 85 37 85 99 1 63-27 99-86 99S16-35 15-95c0-66 28-99 85-99zM99-20c44 1 53-31 53-75 0-43-8-75-51-75s-53 32-53 75 10 74 51 75" id="U"/><path fill="#7ab648" d="M135-143c-3-34-86-38-87 0 15 53 115 12 119 90S17 21 10-45l28-5c4 36 97 45 98 0-10-56-113-15-118-90-4-57 82-63 122-42 12 7 21 19 24 35" id="V"/><path fill="#7ab648" d="M24-231v-30h32v30H24zM24 0v-190h32V0H24" id="W"/><path fill="#7ab648" d="M117-194c89-4 53 116 60 194h-32v-121c0-31-8-49-39-48C34-167 62-67 57 0H25l-1-190h30c1 10-1 24 2 32 11-22 29-35 61-36" id="X"/><path fill="#7ab648" d="M100-194c63 0 86 42 84 106H49c0 40 14 67 53 68 26 1 43-12 49-29l28 8c-11 28-37 45-77 45C44 4 14-33 15-96c1-61 26-98 85-98zm52 81c6-60-76-77-97-28-3 7-6 17-6 28h103" id="Y"/><g id="m"><use transform="matrix(0.06172839506172839,0,0,0.06172839506172839,0,0)" xlink:href="#T"/><use transform="matrix(0.06172839506172839,0,0,0.06172839506172839,15.987654320987653,0)" xlink:href="#U"/><use transform="matrix(0.06172839506172839,0,0,0.06172839506172839,28.333333333333332,0)" xlink:href="#V"/><use transform="matrix(0.06172839506172839,0,0,0.06172839506172839,39.44444444444444,0)" xlink:href="#W"/><use transform="matrix(0.06172839506172839,0,0,0.06172839506172839,44.32098765432099,0)" xlink:href="#X"/><use transform="matrix(0.06172839506172839,0,0,0.06172839506172839,56.666666666666664,0)" xlink:href="#Y"/></g><path fill="#7ab648" d="M210-169c-67 3-38 105-44 169h-31v-121c0-29-5-50-35-48C34-165 62-65 56 0H25l-1-190h30c1 10-1 24 2 32 10-44 99-50 107 0 11-21 27-35 58-36 85-2 47 119 55 194h-31v-121c0-29-5-49-35-48" id="Z"/><path fill="#7ab648" d="M24 0v-261h32V0H24" id="aa"/><path fill="#7ab648" d="M141-36C126-15 110 5 73 4 37 3 15-17 15-53c-1-64 63-63 125-63 3-35-9-54-41-54-24 1-41 7-42 31l-33-3c5-37 33-52 76-52 45 0 72 20 72 64v82c-1 20 7 32 28 27v20c-31 9-61-2-59-35zM48-53c0 20 12 33 32 33 41-3 63-29 60-74-43 2-92-5-92 41" id="ab"/><path fill="#7ab648" d="M114-163C36-179 61-72 57 0H25l-1-190h30c1 12-1 29 2 39 6-27 23-49 58-41v29" id="ac"/><path fill="#7ab648" d="M59-47c-2 24 18 29 38 22v24C64 9 27 4 27-40v-127H5v-23h24l9-43h21v43h35v23H59v120" id="ad"/><path fill="#7ab648" d="M179-190L93 31C79 59 56 82 12 73V49c39 6 53-20 64-50L1-190h34L92-34l54-156h33" id="ae"/><g id="n"><use transform="matrix(0.06172839506172839,0,0,0.06172839506172839,0,0)" xlink:href="#V"/><use transform="matrix(0.06172839506172839,0,0,0.06172839506172839,11.11111111111111,0)" xlink:href="#W"/><use transform="matrix(0.06172839506172839,0,0,0.06172839506172839,15.987654320987653,0)" xlink:href="#Z"/><use transform="matrix(0.06172839506172839,0,0,0.06172839506172839,34.44444444444444,0)" xlink:href="#W"/><use transform="matrix(0.06172839506172839,0,0,0.06172839506172839,39.32098765432099,0)" xlink:href="#aa"/><use transform="matrix(0.06172839506172839,0,0,0.06172839506172839,44.19753086419753,0)" xlink:href="#ab"/><use transform="matrix(0.06172839506172839,0,0,0.06172839506172839,56.54320987654321,0)" xlink:href="#ac"/><use transform="matrix(0.06172839506172839,0,0,0.06172839506172839,63.888888888888886,0)" xlink:href="#W"/><use transform="matrix(0.06172839506172839,0,0,0.06172839506172839,68.76543209876543,0)" xlink:href="#ad"/><use transform="matrix(0.06172839506172839,0,0,0.06172839506172839,74.93827160493827,0)" xlink:href="#ae"/></g><path fill="#333" d="M33 0v-248h34V0H33" id="af"/><path fill="#333" d="M117-194c89-4 53 116 60 194h-32v-121c0-31-8-49-39-48C34-167 62-67 57 0H25l-1-190h30c1 10-1 24 2 32 11-22 29-35 61-36" id="ag"/><path fill="#333" d="M114-163C36-179 61-72 57 0H25l-1-190h30c1 12-1 29 2 39 6-27 23-49 58-41v29" id="ah"/><path fill="#333" d="M141-36C126-15 110 5 73 4 37 3 15-17 15-53c-1-64 63-63 125-63 3-35-9-54-41-54-24 1-41 7-42 31l-33-3c5-37 33-52 76-52 45 0 72 20 72 64v82c-1 20 7 32 28 27v20c-31 9-61-2-59-35zM48-53c0 20 12 33 32 33 41-3 63-29 60-74-43 2-92-5-92 41" id="ai"/><g id="o"><use transform="matrix(0.06172839506172839,0,0,0.06172839506172839,0,0)" xlink:href="#af"/><use transform="matrix(0.06172839506172839,0,0,0.06172839506172839,6.172839506172839,0)" xlink:href="#ag"/><use transform="matrix(0.06172839506172839,0,0,0.06172839506172839,18.51851851851852,0)" xlink:href="#A"/><use transform="matrix(0.06172839506172839,0,0,0.06172839506172839,24.691358024691358,0)" xlink:href="#ah"/><use transform="matrix(0.06172839506172839,0,0,0.06172839506172839,32.03703703703704,0)" xlink:href="#ai"/></g><path fill="#333" d="M84 4C-5 8 30-112 23-190h32v120c0 31 7 50 39 49 72-2 45-101 50-169h31l1 190h-30c-1-10 1-25-2-33-11 22-28 36-60 37" id="aj"/><path fill="#333" d="M106-169C34-169 62-67 57 0H25v-261h32l-1 103c12-21 28-36 61-36 89 0 53 116 60 194h-32v-121c2-32-8-49-39-48" id="ak"/><path fill="#333" d="M100-194c62-1 85 37 85 99 1 63-27 99-86 99S16-35 15-95c0-66 28-99 85-99zM99-20c44 1 53-31 53-75 0-43-8-75-51-75s-53 32-53 75 10 74 51 75" id="al"/><g id="p"><use transform="matrix(0.06172839506172839,0,0,0.06172839506172839,0,0)" xlink:href="#ai"/><use transform="matrix(0.06172839506172839,0,0,0.06172839506172839,12.345679012345679,0)" xlink:href="#aj"/><use transform="matrix(0.06172839506172839,0,0,0.06172839506172839,24.691358024691358,0)" xlink:href="#A"/><use transform="matrix(0.06172839506172839,0,0,0.06172839506172839,30.864197530864196,0)" xlink:href="#ak"/><use transform="matrix(0.06172839506172839,0,0,0.06172839506172839,43.20987654320987,0)" xlink:href="#al"/><use transform="matrix(0.06172839506172839,0,0,0.06172839506172839,55.55555555555555,0)" xlink:href="#ah"/></g><path fill="#333" d="M85-194c31 0 48 13 60 33l-1-100h32l1 261h-30c-2-10 0-23-3-31C134-8 116 4 85 4 32 4 16-35 15-94c0-66 23-100 70-100zm9 24c-40 0-46 34-46 75 0 40 6 74 45 74 42 0 51-32 51-76 0-42-9-74-50-73" id="am"/><path fill="#333" d="M24-231v-30h32v30H24zM24 0v-190h32V0H24" id="an"/><path fill="#333" d="M135-143c-3-34-86-38-87 0 15 53 115 12 119 90S17 21 10-45l28-5c4 36 97 45 98 0-10-56-113-15-118-90-4-57 82-63 122-42 12 7 21 19 24 35" id="ao"/><path fill="#333" d="M96-169c-40 0-48 33-48 73s9 75 48 75c24 0 41-14 43-38l32 2c-6 37-31 61-74 61-59 0-76-41-82-99-10-93 101-131 147-64 4 7 5 14 7 22l-32 3c-4-21-16-35-41-35" id="ap"/><g id="q"><use transform="matrix(0.06172839506172839,0,0,0.06172839506172839,0,0)" xlink:href="#am"/><use transform="matrix(0.06172839506172839,0,0,0.06172839506172839,12.345679012345679,0)" xlink:href="#an"/><use transform="matrix(0.06172839506172839,0,0,0.06172839506172839,17.22222222222222,0)" xlink:href="#ao"/><use transform="matrix(0.06172839506172839,0,0,0.06172839506172839,28.333333333333332,0)" xlink:href="#A"/><use transform="matrix(0.06172839506172839,0,0,0.06172839506172839,34.50617283950617,0)" xlink:href="#ai"/><use transform="matrix(0.06172839506172839,0,0,0.06172839506172839,46.85185185185185,0)" xlink:href="#ag"/><use transform="matrix(0.06172839506172839,0,0,0.06172839506172839,59.197530864197525,0)" xlink:href="#ap"/><use transform="matrix(0.06172839506172839,0,0,0.06172839506172839,70.30864197530863,0)" xlink:href="#y"/><use transform="matrix(0.06172839506172839,0,0,0.06172839506172839,82.65432098765432,0)" xlink:href="#ao"/></g><g id="r"><use transform="matrix(0.06172839506172839,0,0,0.06172839506172839,0,0)" xlink:href="#af"/><use transform="matrix(0.06172839506172839,0,0,0.06172839506172839,6.172839506172839,0)" xlink:href="#ag"/><use transform="matrix(0.06172839506172839,0,0,0.06172839506172839,18.51851851851852,0)" xlink:href="#A"/><use transform="matrix(0.06172839506172839,0,0,0.06172839506172839,24.691358024691358,0)" xlink:href="#y"/><use transform="matrix(0.06172839506172839,0,0,0.06172839506172839,37.03703703703704,0)" xlink:href="#ah"/></g><g id="s"><use transform="matrix(0.06172839506172839,0,0,0.06172839506172839,0,0)" xlink:href="#ai"/><use transform="matrix(0.06172839506172839,0,0,0.06172839506172839,12.345679012345679,0)" xlink:href="#aj"/><use transform="matrix(0.06172839506172839,0,0,0.06172839506172839,24.691358024691358,0)" xlink:href="#A"/><use transform="matrix(0.06172839506172839,0,0,0.06172839506172839,30.864197530864196,0)" xlink:href="#ak"/><use transform="matrix(0.06172839506172839,0,0,0.06172839506172839,43.20987654320987,0)" xlink:href="#al"/><use transform="matrix(0.06172839506172839,0,0,0.06172839506172839,55.55555555555555,0)" xlink:href="#ah"/><use transform="matrix(0.06172839506172839,0,0,0.06172839506172839,62.90123456790123,0)" xlink:href="#ao"/></g></defs></g></svg>