<svg xmlns="http://www.w3.org/2000/svg" xmlns:xlink="http://www.w3.org/1999/xlink" xmlns:lucid="lucid" width="380" height="520"><g transform="translate(-480 -40)" lucid:page-tab-id="0_0"><path d="M662.9 500c0 22.1-17.9 40-40 40s-40-17.9-40-40 17.9-40 40-40 40 17.9 40 40z" stroke="#5e5e5e" stroke-width="3" fill="#333"/><use xlink:href="#a" transform="matrix(1,0,0,1,587.8994492321258,465) translate(20.833333333333336 39.65277777777778)"/><path d="M760 100c0 22.1-17.9 40-40 40s-40-17.9-40-40 17.9-40 40-40 40 17.9 40 40z" stroke="#5e5e5e" stroke-width="3" fill="#ff8f80"/><use xlink:href="#b" transform="matrix(1,0,0,1,685,65) translate(27.592592592592595 39.65277777777778)"/><path d="M680 220c0 22.1-17.9 40-40 40s-40-17.9-40-40 17.9-40 40-40 40 17.9 40 40z" stroke="#5e5e5e" stroke-width="3" fill="#ff8f80"/><use xlink:href="#b" transform="matrix(1,0,0,1,605,185) translate(27.592592592592595 39.65277777777778)"/><path d="M760 360c0 22.1-17.9 40-40 40s-40-17.9-40-40 17.9-40 40-40 40 17.9 40 40z" stroke="#5e5e5e" stroke-width="3" fill="#ffdba9"/><use xlink:href="#c" transform="matrix(1,0,0,1,685,325) translate(27.592592592592595 39.65277777777778)"/><path d="M840 280c0 22.1-17.9 40-40 40s-40-17.9-40-40 17.9-40 40-40 40 17.9 40 40z" stroke="#5e5e5e" stroke-width="3" fill="#ffdba9"/><use xlink:href="#c" transform="matrix(1,0,0,1,765,245) translate(27.592592592592595 39.65277777777778)"/><path d="M622.93 457.5v-.6l.13-1.47.18-1.34.23-1.24.28-1.16.32-1.08.37-1.03.4-.98.46-.94.5-.9.55-.87.6-.85.64-.83.7-.83.8-.82.88-.82.97-.8 1.1-.83 1.25-.83 1.42-.85 1.66-.87 1.97-.9 2.38-.94 2.98-1 3.94-1.1 5.76-1.26 37.68-6.3 4.07-1.14 3.1-1.04 2.5-.98 2.05-.95 1.75-.9 1.5-.9 1.33-.9 1.17-.87.96-.8" stroke="#5e5e5e" stroke-width="2" fill="none"/><path d="M623.93 457.5l-.03 1.06-.98-.06-1.02.03.03-1.08" fill="#5e5e5e"/><path d="M715.8 404.25l-1.9 14.9-8.38-3.96z" stroke="#5e5e5e" stroke-width="2" fill="#5e5e5e"/><path d="M622.92 457.5l.32-15.6 1.03-16.3 1.83-17.36 3.44-22.96 10.72-63.5 1.7-16.1.93-14.8.22-10.98" stroke="#5e5e5e" stroke-width="2" fill="none"/><path d="M623.92 457.5l-.02 1.06-.98-.06-1.02.03.02-1.08" fill="#5e5e5e"/><path d="M642.94 264.63l4.8 14.2-9.27.12z" stroke="#5e5e5e" stroke-width="2" fill="#5e5e5e"/><path d="M622.92 457.5l.13-6.02.43-6.9.72-6.86 1-6.85 1.32-6.87 1.64-6.95 1.98-7.1 2.37-7.28 2.83-7.58 3.36-8 4-8.54 4.92-9.38 6.16-10.66 8.27-13 13.65-19.54 40.06-55.08 7.18-11.3 5.17-8.93 4-7.64 3.2-6.8 2.63-6.2 2.15-5.8 1.77-5.44 1.46-5.22 1.2-5.03.92-4.9.7-4.78.5-4.72.3-4.7.1-4.7-.1-4.7-.3-4.77-.5-4.84-.74-4.96-.97-5.1-1.2-5.16" stroke="#5e5e5e" stroke-width="2" fill="none"/><path d="M623.92 457.5l-.02 1.06-.98-.06-1.02.03.02-1.08" fill="#5e5e5e"/><path d="M738.44 140.72l8.85 12.1-8.82 2.9z" stroke="#5e5e5e" stroke-width="2" fill="#5e5e5e"/><path d="M580 160c0 22.1-17.9 40-40 40s-40-17.9-40-40 17.9-40 40-40 40 17.9 40 40z" stroke="#5e5e5e" stroke-width="3" fill="#ff8f80"/><use xlink:href="#b" transform="matrix(1,0,0,1,505,125) translate(27.592592592592595 39.65277777777778)"/><path d="M622.88 457.5l-.18-8.4-.56-9.02-.92-8.75-1.27-8.58-1.63-8.53-2-8.6-2.5-8.85-3.02-9.3-3.8-10.2-5-11.92-7.87-16.62-29.63-59.1-5.16-12.24-3.93-10.55-3.14-9.7-2.58-9.23-2.12-9.04-1.72-9-1.34-9.1-.1-.94" stroke="#5e5e5e" stroke-width="2" fill="none"/><path d="M623.9 458.56l-.98-.06-1.02.03-.02-1.04 2-.05" fill="#5e5e5e"/><path d="M543.16 204.62l5.78 13.85-9.24.75z" stroke="#5e5e5e" stroke-width="2" fill="#5e5e5e"/><path d="M720 317.5l-.33-39.17-.78-10.38-.93-7.3-1-5.6-1.04-4.5-1.06-3.7-1.06-3.1-1.06-2.7-1.07-2.3-1.06-2.04-1.06-1.8-1.06-1.6-1.07-1.47-1.07-1.3-1.08-1.2-1.1-1.1-1.1-1-1.15-.93-1.17-.85-1.2-.8-.3-.18" stroke="#5e5e5e" stroke-width="2" fill="none"/><path d="M721 318.56l-.98-.06-1.02.03v-1.05l2-.02" fill="#5e5e5e"/><path d="M684.64 220.8l14.97-1-2.26 8.98z" stroke="#5e5e5e" stroke-width="2" fill="#5e5e5e"/><path d="M799.98 237.5l-.07-3.14-.22-3.8-.37-3.54-.48-3.3-.6-3.07-.67-2.9-.76-2.75-.86-2.6-.92-2.48-1-2.38-1.07-2.28-1.15-2.2-1.23-2.12-1.3-2.07-1.4-2-1.5-1.96-1.58-1.9-1.7-1.9-1.83-1.85-1.95-1.83-2.1-1.8-2.26-1.8-2.46-1.8-2.67-1.77-2.92-1.77-3.2-1.76-3.55-1.76-3.96-1.76-4.45-1.76-5.02-1.74-5.75-1.74-6.67-1.7-7.85-1.67L717 163l-11.74-1.48-15.3-1.27-22.1-.9-67.86.5" stroke="#5e5e5e" stroke-width="2" fill="none"/><path d="M801 238.56l-.98-.06-1.02.03-.02-1.04 2-.05" fill="#5e5e5e"/><path d="M584.74 159.98l14.23-4.74.07 9.27z" stroke="#5e5e5e" stroke-width="2" fill="#5e5e5e"/><path d="M622.93 457.5l.04-.7.08-.8.1-.73.15-.7.15-.68.18-.66.2-.63.23-.6.25-.58.28-.57.3-.56.3-.56.36-.55.37-.54.4-.54.45-.53.48-.53.52-.53.56-.54.64-.53.68-.55.76-.55.85-.56.94-.56 1.07-.6 1.2-.6 1.4-.6 1.63-.65 1.9-.68 2.3-.7 2.83-.7 3.58-.77 4.78-.8 6.98-.87 13.6-1.1 40.88-2.7 9.27-1.16 6.78-1.14 5.36-1.13 4.42-1.13 3.72-1.13 3.2-1.12.92-.35 3.2-1.33 3.06-1.44 2.92-1.55 2.8-1.66 2.7-1.8 2.6-1.9 2.53-2.06 2.47-2.2 2.38-2.35 2.34-2.54 2.26-2.73 2.23-2.95 2.17-3.2 2.14-3.46 2.1-3.78 2.02-4.15 1.96-4.56 1.9-5.04 1.8-5.6 1.66-6.22 1.5-6.95 1.32-7.8 1.03-8.72.1-1.35" stroke="#5e5e5e" stroke-width="2" fill="none"/><path d="M623.92 457.5l-.02 1.06-.98-.06-1.02.03.02-1.08" fill="#5e5e5e"/><path d="M799.86 324.73l4 14.46-9.26-.42z" stroke="#5e5e5e" stroke-width="2" fill="#5e5e5e"/><defs><path fill="#fff" d="M63-220v92h138v28H63V0H30v-248h175v28H63" id="d"/><path fill="#fff" d="M30-248c87 1 191-15 191 75 0 78-77 80-158 76V0H30v-248zm33 125c57 0 124 11 124-50 0-59-68-47-124-48v98" id="e"/><g id="a"><use transform="matrix(0.06172839506172839,0,0,0.06172839506172839,0,0)" xlink:href="#d"/><use transform="matrix(0.06172839506172839,0,0,0.06172839506172839,13.518518518518517,0)" xlink:href="#e"/></g><path fill="#333" d="M205 0l-28-72H64L36 0H1l101-248h38L239 0h-34zm-38-99l-47-123c-12 45-31 82-46 123h93" id="f"/><use transform="matrix(0.06172839506172839,0,0,0.06172839506172839,0,0)" xlink:href="#f" id="b"/><path fill="#333" d="M160-131c35 5 61 23 61 61C221 17 115-2 30 0v-248c76 3 177-17 177 60 0 33-19 50-47 57zm-97-11c50-1 110 9 110-42 0-47-63-36-110-37v79zm0 115c55-2 124 14 124-45 0-56-70-42-124-44v89" id="g"/><use transform="matrix(0.06172839506172839,0,0,0.06172839506172839,0,0)" xlink:href="#g" id="c"/></defs></g></svg>