<svg xmlns="http://www.w3.org/2000/svg" xmlns:xlink="http://www.w3.org/1999/xlink" xmlns:lucid="lucid" width="600" height="400"><g transform="translate(-380 -300)" lucid:page-tab-id="0_0"><path d="M640 500c0 22.1-17.9 40-40 40s-40-17.9-40-40 17.9-40 40-40 40 17.9 40 40z" stroke="#5e5e5e" stroke-width="3" fill="#333"/><use xlink:href="#a" transform="matrix(1,0,0,1,565,465) translate(20.833333333333336 39.65277777777778)"/><path d="M700 360c0 22.1-17.9 40-40 40s-40-17.9-40-40 17.9-40 40-40 40 17.9 40 40z" stroke="#5e5e5e" stroke-width="3" fill="#ff8f80"/><use xlink:href="#b" transform="matrix(1,0,0,1,625,325) translate(31.91358024691358 39.65277777777778)"/><path d="M580 360c0 22.1-17.9 40-40 40s-40-17.9-40-40 17.9-40 40-40 40 17.9 40 40z" stroke="#5e5e5e" stroke-width="3" fill="#ffdba9"/><use xlink:href="#c" transform="matrix(1,0,0,1,505,325) translate(29.444444444444443 39.65277777777778)"/><path d="M960 500c0 22.1-17.9 40-40 40s-40-17.9-40-40 17.9-40 40-40 40 17.9 40 40z" stroke="#5e5e5e" stroke-width="3" fill="#c7e8ac"/><use xlink:href="#d" transform="matrix(1,0,0,1,885,465) translate(27.592592592592595 39.65277777777778)"/><path d="M900 420c0 22.1-17.9 40-40 40s-40-17.9-40-40 17.9-40 40-40 40 17.9 40 40z" stroke="#5e5e5e" stroke-width="3" fill="#c7e8ac"/><use xlink:href="#d" transform="matrix(1,0,0,1,825,385) translate(27.592592592592595 39.65277777777778)"/><path d="M480 360c0 22.1-17.9 40-40 40s-40-17.9-40-40 17.9-40 40-40 40 17.9 40 40z" stroke="#5e5e5e" stroke-width="3" fill="#ffdba9"/><use xlink:href="#c" transform="matrix(1,0,0,1,405,325) translate(29.444444444444443 39.65277777777778)"/><path d="M800 360c0 22.1-17.9 40-40 40s-40-17.9-40-40 17.9-40 40-40 40 17.9 40 40z" stroke="#5e5e5e" stroke-width="3" fill="#ff8f80"/><use xlink:href="#b" transform="matrix(1,0,0,1,725,325) translate(31.91358024691358 39.65277777777778)"/><path d="M600.04 457.5l.06-1.33.27-2.08.42-1.9.55-1.76.7-1.68.84-1.62 1-1.6 1.26-1.6 1.54-1.68 1.95-1.78 2.6-1.98 3.8-2.4 7.4-3.75 18.98-8.98 3.9-2.46 2.72-2.06 1.37-1.24" stroke="#5e5e5e" stroke-width="2" fill="none"/><path d="M601.04 457.52l-.04 1.04-.98-.06-1.02.03.04-1.1" fill="#5e5e5e"/><path d="M655.78 404.25l-1.95 14.87-8.37-4z" stroke="#5e5e5e" stroke-width="2" fill="#5e5e5e"/><path d="M600.07 457.5l.03-.25.06-.3.08-.32.08-.3.1-.33.13-.32.13-.33.16-.33.18-.34.2-.35.23-.37.26-.37.3-.4.36-.42.4-.43.44-.46.52-.5.6-.53.73-.57.84-.6 1-.68 1.24-.75 1.5-.83 1.9-.93 2.42-1.07 3.2-1.26 4.33-1.5 6.26-1.9 9.92-2.5 20.46-4.3 64.18-12.23 9.92-2.52 6.27-1.9 4.35-1.5 3.2-1.25 1.5-.68" stroke="#5e5e5e" stroke-width="2" fill="none"/><path d="M601.02 457.5l-.02 1.06-.98-.06-1.02.03.02-1.08" fill="#5e5e5e"/><path d="M757.7 403.8l-6.83 13.34-6.54-6.57z" stroke="#5e5e5e" stroke-width="2" fill="#5e5e5e"/><path d="M599.96 457.5l-.06-1.3-.27-2.06-.42-1.88-.54-1.75-.7-1.66-.84-1.6-1.02-1.6-1.24-1.62-1.54-1.66-1.96-1.78-2.6-1.98-3.8-2.38-7.38-3.75-19.17-9-3.87-2.45-2.67-2.03-1.4-1.27" stroke="#5e5e5e" stroke-width="2" fill="none"/><path d="M601 458.56l-.98-.06-1.02.03-.04-1 2-.1" fill="#5e5e5e"/><path d="M544.26 404.33l10.2 11-8.4 3.9z" stroke="#5e5e5e" stroke-width="2" fill="#5e5e5e"/><path d="M599.93 457.5l-.03-.25-.06-.3-.08-.32-.08-.3-.1-.33-.13-.32-.13-.33-.16-.33-.18-.34-.2-.35-.23-.37-.26-.37-.3-.4-.36-.42-.4-.43-.44-.46-.52-.5-.6-.53-.73-.57-.84-.6-1-.68-1.24-.75-1.5-.83-1.9-.93-2.42-1.07-3.2-1.26-4.33-1.5-6.26-1.9-9.92-2.5-20.46-4.3-64.18-12.23-9.92-2.52-6.27-1.9-4.35-1.5-3.2-1.25-1.5-.68" stroke="#5e5e5e" stroke-width="2" fill="none"/><path d="M601 458.56l-.98-.06-1.02.03-.02-1.04 2-.05" fill="#5e5e5e"/><path d="M442.3 403.8l13.37 6.77-6.54 6.57z" stroke="#5e5e5e" stroke-width="2" fill="#5e5e5e"/><path d="M480 640c0 22.1-17.9 40-40 40s-40-17.9-40-40 17.9-40 40-40 40 17.9 40 40z" stroke="#5e5e5e" stroke-width="3" fill="#fff"/><use xlink:href="#e" transform="matrix(1,0,0,1,405,605) translate(27.006172839506174 39.65277777777778)"/><path d="M780 640c0 22.1-17.9 40-40 40s-40-17.9-40-40 17.9-40 40-40 40 17.9 40 40z" stroke="#5e5e5e" stroke-width="3" fill="#fff"/><use xlink:href="#e" transform="matrix(1,0,0,1,705,605) translate(27.006172839506174 39.65277777777778)"/><path d="M880 640c0 22.1-17.9 40-40 40s-40-17.9-40-40 17.9-40 40-40 40 17.9 40 40z" stroke="#5e5e5e" stroke-width="3" fill="#fff"/><use xlink:href="#e" transform="matrix(1,0,0,1,805,605) translate(27.006172839506174 39.65277777777778)"/><path d="M680 640c0 22.1-17.9 40-40 40s-40-17.9-40-40 17.9-40 40-40 40 17.9 40 40z" stroke="#5e5e5e" stroke-width="3" fill="#fff"/><use xlink:href="#e" transform="matrix(1,0,0,1,605,605) translate(27.006172839506174 39.65277777777778)"/><path d="M580 640c0 22.1-17.9 40-40 40s-40-17.9-40-40 17.9-40 40-40 40 17.9 40 40z" stroke="#5e5e5e" stroke-width="3" fill="#fff"/><use xlink:href="#e" transform="matrix(1,0,0,1,505,605) translate(27.006172839506174 39.65277777777778)"/><path d="M440.07 597.5l.03-.25.06-.3.08-.32.08-.3.1-.33.13-.32.13-.33.16-.33.18-.34.2-.35.23-.37.26-.37.3-.4.36-.42.4-.43.44-.46.52-.5.6-.53.73-.57.84-.6 1-.68 1.24-.75 1.5-.83 1.9-.93 2.42-1.07 3.2-1.26 4.33-1.5 6.26-1.9 9.92-2.5 20.46-4.3 64.18-12.23 9.92-2.52 6.27-1.9 4.35-1.5 3.2-1.25 1.5-.68" stroke="#5e5e5e" stroke-width="2" fill="none"/><path d="M441.02 597.5l-.02 1.06-.98-.06-1.02.03.02-1.08" fill="#5e5e5e"/><path d="M597.7 543.8l-6.83 13.34-6.54-6.57z" stroke="#5e5e5e" stroke-width="2" fill="#5e5e5e"/><path d="M540.04 597.5l.06-1.33.27-2.08.42-1.9.55-1.76.7-1.68.84-1.62 1-1.6 1.26-1.6 1.54-1.68 1.95-1.78 2.6-1.98 3.8-2.4 7.4-3.75 18.98-8.98 3.9-2.46 2.72-2.06 1.37-1.24" stroke="#5e5e5e" stroke-width="2" fill="none"/><path d="M541.04 597.52l-.04 1.04-.98-.06-1.02.03.04-1.1" fill="#5e5e5e"/><path d="M595.78 544.25l-1.95 14.87-8.37-4z" stroke="#5e5e5e" stroke-width="2" fill="#5e5e5e"/><path d="M639.96 597.5l-.07-1.52-.3-2.3-.48-2.1-.64-2.02-.8-1.95-1.03-1.94-1.3-2-1.64-2.13-2.22-2.4-3.37-3.05-19.58-15.2-2.23-2.4" stroke="#5e5e5e" stroke-width="2" fill="none"/><path d="M641 598.56l-.98-.06-1.02.03-.04-1 2-.1" fill="#5e5e5e"/><path d="M601.13 544.54l9.3 11.76-8.7 3.22z" stroke="#5e5e5e" stroke-width="2" fill="#5e5e5e"/><path d="M739.94 597.5v-.07l-.06-.35-.07-.36-.07-.35-.1-.35-.1-.35-.15-.36-.15-.36-.18-.37-.2-.38-.22-.4-.26-.4-.3-.43-.32-.44-.38-.45-.43-.48-.5-.5-.57-.55-.67-.57-.78-.62-.93-.67-1.1-.75-1.35-.8-1.64-.9-2.05-1.02-2.63-1.17-3.48-1.38-4.8-1.66-7.07-2.12-12.15-3.1-66.6-14.7-7.07-2.12-4.8-1.66-3.47-1.38-2.63-1.17-.73-.36" stroke="#5e5e5e" stroke-width="2" fill="none"/><path d="M741 598.56l-.98-.06-1.02.03-.02-1.04 2-.05" fill="#5e5e5e"/><path d="M602.2 543.88l13.08 7.34-6.8 6.3z" stroke="#5e5e5e" stroke-width="2" fill="#5e5e5e"/><path d="M839.9 597.5v-.05l-.06-.22-.06-.2-.07-.23-.07-.22-.1-.23-.1-.23-.14-.24-.15-.25-.16-.26-.2-.27-.22-.28-.24-.3-.3-.32-.32-.34-.38-.36-.46-.4-.53-.4-.63-.47-.77-.5-.94-.57-1.15-.64-1.45-.72-1.88-.83-2.47-.98-3.37-1.18-4.77-1.43-7.14-1.83-11.73-2.47-23-3.82-137.06-18.38-11.73-2.47-7.15-1.82-4.78-1.42-2.5-.86" stroke="#5e5e5e" stroke-width="2" fill="none"/><path d="M841 598.56l-.98-.06-1.02.03-.02-1.04 2-.05" fill="#5e5e5e"/><path d="M602.55 543.5l14.1 5.13-5.72 7.3z" stroke="#5e5e5e" stroke-width="2" fill="#5e5e5e"/><path d="M740.02 597.5l.03-1.4.14-2.3.23-2.22.3-2.14.4-2.1.5-2.02.55-2 .63-1.96.74-1.95.8-1.93.93-1.94 1-1.94 1.15-1.97 1.26-2 1.42-2.03 1.6-2.1 1.78-2.16 2.04-2.26 2.34-2.4 2.73-2.55 3.2-2.78 3.94-3.1 5-3.64 6.93-4.58 13.58-8.15 27.08-15.9 6.93-4.58 5-3.64 3.93-3.1 3.2-2.8 2.74-2.55 2.34-2.38 2.04-2.26 1.8-2.17 1.58-2.1 1.42-2.03 1.26-2 1.14-1.96 1-1.93.93-1.94.8-1.94.37-.97" stroke="#5e5e5e" stroke-width="2" fill="none"/><path d="M741.02 597.5l-.02 1.06-.98-.06-1.02.03.02-1.08" fill="#5e5e5e"/><path d="M859.44 464.7l2.1 14.84-9.13-1.6z" stroke="#5e5e5e" stroke-width="2" fill="#5e5e5e"/><path d="M840.04 597.5l.07-.83.15-.88.2-.87.24-.85.3-.86.36-.85.45-.88.53-.9.63-.93.75-.97.9-1.03 1.1-1.1 1.36-1.2 1.7-1.33 2.2-1.5 2.97-1.78 4.28-2.2 7.2-3.14 36.4-13.98 4.27-2.2 2.97-1.77 1.45-1" stroke="#5e5e5e" stroke-width="2" fill="none"/><path d="M841.03 597.5l-.03 1.06-.98-.06-1.02.03.03-1.1" fill="#5e5e5e"/><path d="M918.27 544.23l-3.74 14.53-7.83-4.97z" stroke="#5e5e5e" stroke-width="2" fill="#5e5e5e"/><path d="M540 597.5V420" stroke="#5e5e5e" stroke-width="2" fill="none"/><path d="M541 598.56l-.98-.06-1.02.03v-1.06h2" fill="#5e5e5e"/><path d="M540 404.74l4.64 14.26h-9.28z" stroke="#5e5e5e" stroke-width="2" fill="#5e5e5e"/><path d="M440 597.5V420" stroke="#5e5e5e" stroke-width="2" fill="none"/><path d="M441 598.56l-.98-.06-1.02.03v-1.06h2" fill="#5e5e5e"/><path d="M440 404.74l4.64 14.26h-9.28z" stroke="#5e5e5e" stroke-width="2" fill="#5e5e5e"/><defs><path fill="#fff" d="M63-220v92h138v28H63V0H30v-248h175v28H63" id="f"/><path fill="#fff" d="M30-248c87 1 191-15 191 75 0 78-77 80-158 76V0H30v-248zm33 125c57 0 124 11 124-50 0-59-68-47-124-48v98" id="g"/><g id="a"><use transform="matrix(0.06172839506172839,0,0,0.06172839506172839,0,0)" xlink:href="#f"/><use transform="matrix(0.06172839506172839,0,0,0.06172839506172839,13.518518518518517,0)" xlink:href="#g"/></g><path fill="#333" d="M33 0v-248h34V0H33" id="h"/><use transform="matrix(0.06172839506172839,0,0,0.06172839506172839,0,0)" xlink:href="#h" id="b"/><path fill="#333" d="M153-248C145-148 188 4 80 4 36 3 13-21 6-62l32-5c4 25 16 42 43 43 27 0 39-20 39-49v-147H72v-28h81" id="i"/><use transform="matrix(0.06172839506172839,0,0,0.06172839506172839,0,0)" xlink:href="#i" id="c"/><path fill="#333" d="M194 0L95-120 63-95V0H30v-248h33v124l119-124h40L117-140 236 0h-42" id="j"/><use transform="matrix(0.06172839506172839,0,0,0.06172839506172839,0,0)" xlink:href="#j" id="d"/><path fill="#333" d="M233-177c-1 41-23 64-60 70L243 0h-38l-65-103H63V0H30v-248c88 3 205-21 203 71zM63-129c60-2 137 13 137-47 0-61-80-42-137-45v92" id="k"/><use transform="matrix(0.06172839506172839,0,0,0.06172839506172839,0,0)" xlink:href="#k" id="e"/></defs></g></svg>