<svg xmlns="http://www.w3.org/2000/svg" xmlns:xlink="http://www.w3.org/1999/xlink" xmlns:lucid="lucid" width="540" height="420"><g transform="translate(-60 -100)" lucid:page-tab-id="0_0"><path d="M360 160c0 22.1-17.9 40-40 40s-40-17.9-40-40 17.9-40 40-40 40 17.9 40 40z" stroke="#5e5e5e" stroke-width="3" fill="#333"/><use xlink:href="#a" transform="matrix(1,0,0,1,285,125) translate(20.833333333333336 39.65277777777778)"/><path d="M580 390c0 60.75-53.73 110-120 110-66.27 0-120-49.25-120-110s53.73-110 120-110c66.27 0 120 49.25 120 110z" stroke="#5e5e5e" stroke-width="3" fill="#c7e8ac"/><path d="M440 360c0 22.1-17.9 40-40 40s-40-17.9-40-40 17.9-40 40-40 40 17.9 40 40z" stroke="#5e5e5e" stroke-width="3" fill="#fff"/><use xlink:href="#b" transform="matrix(1,0,0,1,365,325) translate(27.006172839506174 39.65277777777778)"/><path d="M540 340c0 22.1-17.9 40-40 40s-40-17.9-40-40 17.9-40 40-40 40 17.9 40 40z" stroke="#5e5e5e" stroke-width="3" fill="#fff"/><use xlink:href="#c" transform="matrix(1,0,0,1,465,305) translate(27.592592592592595 39.65277777777778)"/><path d="M520 440c0 22.1-17.9 40-40 40s-40-17.9-40-40 17.9-40 40-40 40 17.9 40 40z" stroke="#5e5e5e" stroke-width="3" fill="#fff"/><use xlink:href="#d" transform="matrix(1,0,0,1,445,405) translate(28.24074074074074 39.65277777777778)"/><path d="M320 340c0 60.75-53.73 110-120 110-66.27 0-120-49.25-120-110s53.73-110 120-110c66.27 0 120 49.25 120 110z" stroke="#5e5e5e" stroke-width="3" fill="#ffbbb1"/><path d="M180 310c0 22.1-17.9 40-40 40s-40-17.9-40-40 17.9-40 40-40 40 17.9 40 40z" stroke="#5e5e5e" stroke-width="3" fill="#fff"/><use xlink:href="#e" transform="matrix(1,0,0,1,105,275) translate(27.592592592592595 39.65277777777778)"/><path d="M280 290c0 22.1-17.9 40-40 40s-40-17.9-40-40 17.9-40 40-40 40 17.9 40 40z" stroke="#5e5e5e" stroke-width="3" fill="#fff"/><use xlink:href="#f" transform="matrix(1,0,0,1,205,255) translate(27.592592592592595 39.65277777777778)"/><path d="M260 390c0 22.1-17.9 40-40 40s-40-17.9-40-40 17.9-40 40-40 40 17.9 40 40z" stroke="#5e5e5e" stroke-width="3" fill="#fff"/><use xlink:href="#g" transform="matrix(1,0,0,1,185,355) translate(27.006172839506174 39.65277777777778)"/><path d="M499.97 297.5l-.04-.6-.08-.8-.1-.77-.16-.78-.2-.76-.2-.78-.26-.77-.3-.78-.32-.78-.37-.8-.43-.82-.47-.83-.55-.85-.6-.88-.7-.9-.8-.96-.88-1-1.02-1.04-1.18-1.1-1.37-1.18-1.6-1.26-1.87-1.37-2.24-1.47-2.7-1.64-3.34-1.84-4.2-2.08-5.47-2.43-7.46-2.94-11.13-3.85-22.1-6.6-57.78-16.3-11.13-3.86-7.46-2.95-5.47-2.43-4.2-2.08-3.33-1.83-2.7-1.63-2.25-1.48-1.88-1.38-1.6-1.26-1.36-1.17-.85-.82" stroke="#5e5e5e" stroke-width="2" fill="none"/><path d="M501 298.56l-.98-.06-1.02.03-.02-1.04 2-.05" fill="#5e5e5e"/><path d="M321.4 204.4l10.4 10.84-8.35 4.04z" stroke="#5e5e5e" stroke-width="2" fill="#5e5e5e"/><path d="M399.98 317.5l-.04-1.66-.16-2.52-.25-2.4-.35-2.28-.43-2.2-.5-2.14-.6-2.08-.68-2.03-.76-2-.84-2-.95-1.97-1.05-1.98-1.18-2-1.33-2.04-1.5-2.08-1.7-2.18-1.95-2.3-2.3-2.47-2.76-2.72-3.48-3.16-4.83-4.02-29.5-22.57-3.47-3.15-2.75-2.72-2.3-2.47-1.94-2.3-1.7-2.18-1.5-2.1-1.33-2.03-1.18-2-1.06-1.98-.96-1.98-.85-2-.77-2-.05-.13" stroke="#5e5e5e" stroke-width="2" fill="none"/><path d="M401 318.56l-.98-.06-1.02.03-.02-1.04 2-.05" fill="#5e5e5e"/><path d="M320.52 204.7l6.9 13.32-9.16 1.5z" stroke="#5e5e5e" stroke-width="2" fill="#5e5e5e"/><path d="M240.05 247.5l.03-.26.1-.6.13-.6.18-.6.22-.6.26-.6.3-.64.4-.64.44-.67.55-.7.65-.76.8-.8 1-.88 1.24-.98 1.6-1.1 2.12-1.26 2.96-1.53 4.45-1.95 7.96-2.9 37.1-11.8 4.45-1.94 1.62-.83" stroke="#5e5e5e" stroke-width="2" fill="none"/><path d="M241.03 247.5l-.03 1.06-.98-.06-1.02.03.03-1.1" fill="#5e5e5e"/><path d="M317.9 203.96l-5.73 13.87-7.05-6.02z" stroke="#5e5e5e" stroke-width="2" fill="#5e5e5e"/><defs><path fill="#fff" d="M63-220v92h138v28H63V0H30v-248h175v28H63" id="h"/><path fill="#fff" d="M30-248c87 1 191-15 191 75 0 78-77 80-158 76V0H30v-248zm33 125c57 0 124 11 124-50 0-59-68-47-124-48v98" id="i"/><g id="a"><use transform="matrix(0.06172839506172839,0,0,0.06172839506172839,0,0)" xlink:href="#h"/><use transform="matrix(0.06172839506172839,0,0,0.06172839506172839,13.518518518518517,0)" xlink:href="#i"/></g><path fill="#333" d="M212-179c-10-28-35-45-73-45-59 0-87 40-87 99 0 60 29 101 89 101 43 0 62-24 78-52l27 14C228-24 195 4 139 4 59 4 22-46 18-125c-6-104 99-153 187-111 19 9 31 26 39 46" id="j"/><use transform="matrix(0.06172839506172839,0,0,0.06172839506172839,0,0)" xlink:href="#j" id="b"/><path fill="#333" d="M30 0v-248h187v28H63v79h144v27H63v87h162V0H30" id="k"/><use transform="matrix(0.06172839506172839,0,0,0.06172839506172839,0,0)" xlink:href="#k" id="c"/><path fill="#333" d="M63-220v92h138v28H63V0H30v-248h175v28H63" id="l"/><use transform="matrix(0.06172839506172839,0,0,0.06172839506172839,0,0)" xlink:href="#l" id="d"/><path fill="#333" d="M160-131c35 5 61 23 61 61C221 17 115-2 30 0v-248c76 3 177-17 177 60 0 33-19 50-47 57zm-97-11c50-1 110 9 110-42 0-47-63-36-110-37v79zm0 115c55-2 124 14 124-45 0-56-70-42-124-44v89" id="m"/><use transform="matrix(0.06172839506172839,0,0,0.06172839506172839,0,0)" xlink:href="#m" id="e"/><path fill="#333" d="M205 0l-28-72H64L36 0H1l101-248h38L239 0h-34zm-38-99l-47-123c-12 45-31 82-46 123h93" id="n"/><use transform="matrix(0.06172839506172839,0,0,0.06172839506172839,0,0)" xlink:href="#n" id="f"/><path fill="#333" d="M30-248c118-7 216 8 213 122C240-48 200 0 122 0H30v-248zM63-27c89 8 146-16 146-99s-60-101-146-95v194" id="o"/><use transform="matrix(0.06172839506172839,0,0,0.06172839506172839,0,0)" xlink:href="#o" id="g"/></defs></g></svg>