<svg xmlns="http://www.w3.org/2000/svg" xmlns:xlink="http://www.w3.org/1999/xlink" xmlns:lucid="lucid" width="1600" height="637.4"><g transform="translate(0 -120)" lucid:page-tab-id="0_0"><path d="M0 0h1870.87v1322.84H0z" fill="#fff"/><path d="M540 286a6 6 0 0 1 6-6h148a6 6 0 0 1 6 6v108a6 6 0 0 1-6 6H546a6 6 0 0 1-6-6z" stroke="#3a414a" fill="#fbf0ff"/><use xlink:href="#a" transform="matrix(1,0,0,1,552,292) translate(27.969135802469133 38.77777777777778)"/><use xlink:href="#b" transform="matrix(1,0,0,1,552,292) translate(15.037037037037031 65.44444444444446)"/><path d="M1030 286a6 6 0 0 1 6-6h168a6 6 0 0 1 6 6v108a6 6 0 0 1-6 6h-168a6 6 0 0 1-6-6z" stroke="#3a414a" fill="#fbf0ff"/><use xlink:href="#c" transform="matrix(1,0,0,1,1042,292) translate(-1.4753086419753032 39.111111111111114)"/><use xlink:href="#b" transform="matrix(1,0,0,1,1042,292) translate(25.03703703703703 65.77777777777777)"/><path d="M930.67 140c17.67 0 32 17.9 32 40s-14.33 40-32 40h-96c-17.68 0-32-17.9-32-40s14.32-40 32-40z" stroke="#3a414a" fill="#cfe4ff"/><use xlink:href="#d" transform="matrix(1,0,0,1,807.6666666666665,145) translate(14.635802469135811 40.201388888888886)"/><path d="M882.64 221v.12l-.04.2-.04.2-.05.22-.05.2-.07.23-.08.22-.1.2-.1.24-.13.24-.14.24-.16.26-.2.26-.2.28-.24.3-.3.3-.3.34-.4.36-.44.4-.54.4-.63.46-.76.5-.93.57-1.16.63-1.45.72-1.87.84-2.47.97-3.38 1.18-4.77 1.43-7.14 1.83-11.65 2.45-22.3 3.7-160.73 20.74-11.66 2.45-7.15 1.82-4.76 1.42-3.36 1.17-.98.38" stroke="#3a414a" stroke-linejoin="round" fill="none"/><path d="M883.16 221.02l-1-.02v-.5h1z" stroke="#3a414a" stroke-width=".05" fill="#3a414a"/><path d="M621.24 278.46l7.92-12.74 5.97 7.1z" stroke="#3a414a" fill="#3a414a"/><path d="M300 446a6 6 0 0 1 6-6h148a6 6 0 0 1 6 6v68a6 6 0 0 1-6 6H306a6 6 0 0 1-6-6z" stroke="#3a414a" fill="#e3fae3"/><use xlink:href="#e" transform="matrix(1,0,0,1,312,452.00000000000006) translate(-1.04320987654323 19.111111111111114)"/><use xlink:href="#f" transform="matrix(1,0,0,1,312,452.00000000000006) translate(37.84567901234568 45.777777777777786)"/><path d="M800 446a6 6 0 0 1 6-6h148a6 6 0 0 1 6 6v68a6 6 0 0 1-6 6H806a6 6 0 0 1-6-6z" stroke="#3a414a" fill="#e3fae3"/><use xlink:href="#g" transform="matrix(1,0,0,1,812,452.00000000000006) translate(47.660493827160494 21.27777777777778)"/><use xlink:href="#h" transform="matrix(1,0,0,1,812,452.00000000000006) translate(11.888888888888886 47.94444444444444)"/><path d="M701 340l21.97.46 19.05 1.2 16.18 1.68 13.8 2.03 11.84 2.25 10.23 2.4 8.9 2.48 7.8 2.53 6.9 2.56 6.1 2.55 5.46 2.57 4.9 2.55 4.4 2.55 4 2.53 3.62 2.52 3.3 2.5 3.05 2.52 2.78 2.5 2.57 2.5 2.36 2.53 2.2 2.53 2.03 2.56 1.87 2.58 1.74 2.6 1.6 2.67 1.5 2.7 1.36 2.76 1.26 2.83 1.15 2.9 1.06 3 .93 3.1.82 3.22.7 3.35.17.97" stroke="#3a414a" stroke-linejoin="round" fill="none"/><path d="M701.02 339.5v1h-.52v-1z" stroke="#3a414a" stroke-width=".05" fill="#3a414a"/><path d="M879.86 437.9L874 424.06l9.25-.8z" stroke="#3a414a" fill="#3a414a"/><path d="M539 340l-13.87.3-13.63.85-12.65 1.33-11.56 1.7-10.5 2-9.43 2.2-8.48 2.37-7.63 2.48-6.84 2.54-6.17 2.6-5.57 2.6-5.05 2.64-4.57 2.65-4.16 2.64-3.8 2.63-3.47 2.63-3.18 2.63-2.93 2.63-2.7 2.63-2.47 2.64-2.3 2.66-2.1 2.67-1.97 2.7-1.8 2.7-1.67 2.76L389 401l-1.42 2.84-1.3 2.9-1.17 2.97-1.05 3.06-.95 3.14-.83 3.24-.7 3.36-.13.7" stroke="#3a414a" stroke-linejoin="round" fill="none"/><path d="M539.5 340.5h-.5l-.02-1h.52z" stroke="#3a414a" stroke-width=".05" fill="#3a414a"/><path d="M380.14 437.9l-3.36-14.63 9.23.8z" stroke="#3a414a" fill="#3a414a"/><path d="M380 521l-.07 3-.2 3.28-.33 3.1-.44 2.93-.53 2.82-.63 2.7-.73 2.6-.83 2.55-.93 2.5-1.03 2.46-1.15 2.45-1.28 2.46-1.44 2.48-1.6 2.54-1.83 2.62-2.1 2.76-2.46 2.98-2.98 3.3-3.85 3.94-5.9 5.52-22.6 20.12-3.84 3.93-3 3.32-2.45 2.97-2.1 2.76-1.82 2.63-1.62 2.54-1.43 2.5-1.27 2.44-1.15 2.45-1.04 2.46-.93 2.5-.82 2.53-.72 2.62-.5 2.05" stroke="#3a414a" stroke-linejoin="round" fill="none"/><path d="M380.5 521.02l-1-.02v-.5h1z" stroke="#3a414a" stroke-width=".05" fill="#3a414a"/><path d="M302.82 652.45l-3.1-14.67 9.2.98z" stroke="#3a414a" fill="#3a414a"/><path d="M20 661.98a6 6 0 0 1 6-6h168a6 6 0 0 1 6 6v65.16a6 6 0 0 1-6 6H26a6 6 0 0 1-6-6z" stroke="#3a414a" fill="#fff0f0"/><use xlink:href="#i" transform="matrix(1,0,0,1,32,667.9795677272008) translate(28.092592592592595 21.15277777777778)"/><use xlink:href="#j" transform="matrix(1,0,0,1,32,667.9795677272008) translate(21.98148148148148 47.81944444444444)"/><use xlink:href="#k" transform="matrix(1,0,0,1,32,667.9795677272008) translate(78.58641975308643 47.81944444444444)"/><use xlink:href="#l" transform="matrix(1,0,0,1,32,667.9795677272008) translate(103.27777777777779 47.81944444444444)"/><path d="M220 660.56a6 6 0 0 1 6-6h168a6 6 0 0 1 6 6v65.17a6 6 0 0 1-6 6H226a6 6 0 0 1-6-6z" stroke="#3a414a" fill="#fff0f0"/><use xlink:href="#m" transform="matrix(1,0,0,1,232,666.5622448925552) translate(9.574074074074062 21.15277777777778)"/><use xlink:href="#n" transform="matrix(1,0,0,1,232,666.5622448925552) translate(25.006172839506178 47.81944444444444)"/><use xlink:href="#k" transform="matrix(1,0,0,1,232,666.5622448925552) translate(75.56172839506173 47.81944444444444)"/><use xlink:href="#l" transform="matrix(1,0,0,1,232,666.5622448925552) translate(100.25308641975309 47.81944444444444)"/><path d="M420 660.56a6 6 0 0 1 6-6h148a6 6 0 0 1 6 6v68a6 6 0 0 1-6 6H426a6 6 0 0 1-6-6z" stroke="#3a414a" fill="#fff0f0"/><use xlink:href="#o" transform="matrix(1,0,0,1,432,666.5622448925552) translate(27.351851851851848 21.27777777777778)"/><use xlink:href="#p" transform="matrix(1,0,0,1,432,666.5622448925552) translate(2.1049382716049365 47.94444444444444)"/><use xlink:href="#k" transform="matrix(1,0,0,1,432,666.5622448925552) translate(78.46296296296296 47.94444444444444)"/><use xlink:href="#l" transform="matrix(1,0,0,1,432,666.5622448925552) translate(103.15432098765432 47.94444444444444)"/><path d="M600 661.98a6 6 0 0 1 6-6h148a6 6 0 0 1 6 6v68a6 6 0 0 1-6 6H606a6 6 0 0 1-6-6z" stroke="#3a414a" fill="#fff0f0"/><use xlink:href="#q" transform="matrix(1,0,0,1,612,667.9795677272008) translate(31.02469135802469 21.27777777777778)"/><use xlink:href="#r" transform="matrix(1,0,0,1,612,667.9795677272008) translate(4.944444444444457 47.94444444444444)"/><use xlink:href="#k" transform="matrix(1,0,0,1,612,667.9795677272008) translate(75.62345679012346 47.94444444444444)"/><use xlink:href="#l" transform="matrix(1,0,0,1,612,667.9795677272008) translate(100.31481481481481 47.94444444444444)"/><path d="M380 521l-.02.55-.07 1.03-.1 1.02-.14 1-.2 1-.23 1-.28 1-.32 1.02-.38 1-.44 1.04-.48 1.04-.55 1.07-.63 1.1-.72 1.1-.8 1.17-.92 1.2-1.03 1.26-1.2 1.3-1.34 1.4-1.56 1.46-1.8 1.56-2.13 1.67-2.5 1.8-2.97 1.98-3.6 2.17-4.42 2.43-5.55 2.75-7.17 3.18-9.64 3.82-13.9 4.8-23.24 6.97-116.57 31.15-13.9 4.8-9.63 3.82-7.17 3.18-5.55 2.75-4.42 2.43-3.6 2.17-2.98 1.98-2.5 1.8-2.1 1.68-1.82 1.56-1.56 1.47-1.35 1.37-1.2 1.3-1.02 1.27-.92 1.2-.25.36" stroke="#3a414a" stroke-linejoin="round" fill="none"/><path d="M380.5 521.02l-1-.02v-.5h1z" stroke="#3a414a" stroke-width=".05" fill="#3a414a"/><path d="M110.52 653.95l.14-15 8.8 2.95z" stroke="#3a414a" fill="#3a414a"/><path d="M380 521l.05 1.78.13 2.2.23 2.1.3 2.05.4 2 .44 1.94.54 1.9.6 1.9.7 1.85.78 1.86.88 1.86.97 1.86 1.1 1.88 1.2 1.92 1.37 1.95 1.53 2 1.72 2.1 1.95 2.16 2.25 2.3 2.6 2.43 3.07 2.65 3.7 2.94 4.67 3.4 6.3 4.16 10.42 6.28 34.64 19.92 6.3 4.17 4.66 3.4 3.7 2.93 3.08 2.65 2.6 2.44 2.25 2.3 1.95 2.16 1.72 2.07 1.53 2 1.36 1.97 1.2 1.9 1.1 1.9.96 1.86.88 1.85.78 1.86.7 1.87.07.26" stroke="#3a414a" stroke-linejoin="round" fill="none"/><path d="M380.5 521l-1 .02v-.52h1z" stroke="#3a414a" stroke-width=".05" fill="#3a414a"/><path d="M499.74 652.47l-6.85-13.35 9.14-1.48z" stroke="#3a414a" fill="#3a414a"/><path d="M380 521l.02.45.06.93.1.92.13.9.18.92.22.9.25.93.3.9.35.94.4.93.44.96.52.97.58 1 .65 1.04.74 1.08.85 1.12.95 1.16 1.1 1.22 1.26 1.3 1.46 1.35 1.7 1.46 1.97 1.56 2.34 1.7 2.78 1.84 3.38 2.04 4.13 2.27 5.2 2.58 6.64 2.95 8.85 3.5 12.37 4.28 18.98 5.7 39 9.87 103.2 24.5 18.98 5.7 12.37 4.3 8.85 3.48 6.65 2.95 5.2 2.57 4.13 2.27 3.37 2.04 2.78 1.85 2.34 1.7 1.98 1.56 1.68 1.45 1.46 1.36 1.25 1.3 1.1 1.22.97 1.16.23.3" stroke="#3a414a" stroke-linejoin="round" fill="none"/><path d="M380.5 521l-1 .02v-.52h1z" stroke="#3a414a" stroke-width=".05" fill="#3a414a"/><path d="M679.44 653.96l-9.27-11.8 8.7-3.2z" stroke="#3a414a" fill="#3a414a"/><path d="M780 663.4a6 6 0 0 1 6-6h193.33a6 6 0 0 1 6 6v68a6 6 0 0 1-6 6H786a6 6 0 0 1-6-6z" stroke="#3a414a" fill="#fff0f0"/><use xlink:href="#q" transform="matrix(1,0,0,1,791.9999999999999,669.3968905618465) translate(54.02469135802469 21.27777777777778)"/><use xlink:href="#s" transform="matrix(1,0,0,1,791.9999999999999,669.3968905618465) translate(1.0308641975308603 47.94444444444444)"/><use xlink:href="#k" transform="matrix(1,0,0,1,791.9999999999999,669.3968905618465) translate(125.53703703703704 47.94444444444444)"/><use xlink:href="#l" transform="matrix(1,0,0,1,791.9999999999999,669.3968905618465) translate(150.2283950617284 47.94444444444444)"/><path d="M880 521l2.35 119.52" stroke="#3a414a" stroke-linejoin="round" fill="none"/><path d="M880.5 521l-1 .02v-.52h1z" stroke="#3a414a" stroke-width=".05" fill="#3a414a"/><path d="M882.63 655.28l-4.9-14.17 9.26-.18z" stroke="#3a414a" fill="#3a414a"/><path d="M1420 660.56a6 6 0 0 1 6-6h148a6 6 0 0 1 6 6v66.6a6 6 0 0 1-6 6h-148a6 6 0 0 1-6-6z" stroke="#3a414a" fill="#fff0f0"/><g><use xlink:href="#t" transform="matrix(1,0,0,1,1432,666.5622448925552) translate(-3.543209876543216 18.611111111111114)"/><use xlink:href="#u" transform="matrix(1,0,0,1,1432,666.5622448925552) translate(19.944444444444443 45.277777777777786)"/><use xlink:href="#k" transform="matrix(1,0,0,1,1432,666.5622448925552) translate(60.623456790123456 45.277777777777786)"/><use xlink:href="#l" transform="matrix(1,0,0,1,1432,666.5622448925552) translate(85.31481481481481 45.277777777777786)"/></g><path d="M1200 660.56a6 6 0 0 1 6-6h188a6 6 0 0 1 6 6v68a6 6 0 0 1-6 6h-188a6 6 0 0 1-6-6z" stroke="#3a414a" fill="#fff0f0"/><g><use xlink:href="#v" transform="matrix(1,0,0,1,1212,666.5622448925552) translate(15.28395061728395 21.27777777777778)"/><use xlink:href="#w" transform="matrix(1,0,0,1,1212,666.5622448925552) translate(2.3518518518518476 47.94444444444444)"/><use xlink:href="#k" transform="matrix(1,0,0,1,1212,666.5622448925552) translate(118.21604938271605 47.94444444444444)"/><use xlink:href="#l" transform="matrix(1,0,0,1,1212,666.5622448925552) translate(142.90740740740742 47.94444444444444)"/></g><path d="M1020 660.56a6 6 0 0 1 6-6h148a6 6 0 0 1 6 6v68a6 6 0 0 1-6 6h-148a6 6 0 0 1-6-6z" stroke="#3a414a" fill="#fff0f0"/><g><use xlink:href="#v" transform="matrix(1,0,0,1,1032,666.5622448925552) translate(-4.716049382716051 19.111111111111114)"/><use xlink:href="#x" transform="matrix(1,0,0,1,1032,666.5622448925552) translate(17.104938271604937 45.777777777777786)"/><use xlink:href="#k" transform="matrix(1,0,0,1,1032,666.5622448925552) translate(63.46296296296296 45.777777777777786)"/><use xlink:href="#l" transform="matrix(1,0,0,1,1032,666.5622448925552) translate(88.15432098765432 45.777777777777786)"/></g><path d="M1120 401l.06 2.13.16 2.56.26 2.5.37 2.47.46 2.44.58 2.43.67 2.4.78 2.4.9 2.42 1.02 2.43 1.16 2.46 1.3 2.5 1.48 2.53 1.65 2.6 1.86 2.67 2.08 2.76 2.37 2.86 2.7 3 3.06 3.12 3.53 3.3 4.07 3.5 4.76 3.78 5.6 4.07 6.72 4.45 8.17 4.94 10.2 5.6 13.14 6.5 17.98 8 27.8 10.94 158.04 56 17.98 7.97 13.16 6.52 10.2 5.6 8.16 4.93 6.7 4.45 5.62 4.07 4.76 3.77 4.07 3.5 3.52 3.32 3.06 3.12 2.7 2.98 2.36 2.86 2.1 2.76 1.85 2.67 1.65 2.6 1.47 2.53 1.3 2.5 1.15 2.45 1.02 2.43.9 2.42.78 2.4.35 1.26" stroke="#3a414a" stroke-linejoin="round" fill="none"/><path d="M1120.5 401l-1 .03v-.53h1z" stroke="#3a414a" stroke-width=".05" fill="#3a414a"/><path d="M1499.78 652.46l-6.5-13.5 9.17-1.26z" stroke="#3a414a" fill="#3a414a"/><path d="M1120 401l.1 4.96.34 5.17.52 4.93.7 4.73.86 4.55 1.04 4.42 1.2 4.3 1.38 4.24 1.54 4.16 1.73 4.12 1.94 4.1 2.15 4.1 2.38 4.14 2.67 4.2 3 4.3 3.37 4.45 3.84 4.65 4.44 4.92 5.22 5.33 6.32 5.93 8.04 6.93 11.45 9.05 63 46.25 8.03 6.94 6.32 5.92 5.22 5.32 4.44 4.92 3.84 4.65 3.38 4.43 3 4.3 2.66 4.2 2.4 4.15 2.14 4.1 1.93 4.1 1.72 4.12 1.55 4.16 1.37 4.22 1.2 4.3 1.04 4.43.87 4.57.58 3.96" stroke="#3a414a" stroke-linejoin="round" fill="none"/><path d="M1120.5 401l-1 .03v-.53h1z" stroke="#3a414a" stroke-width=".05" fill="#3a414a"/><path d="M1299.9 652.45l-5.56-13.94 9.25-.6z" stroke="#3a414a" fill="#3a414a"/><path d="M1120 401l-.78 39.85-1.78 28.56-2.63 25.1-12.24 90.66-1.78 28.55-.46 23.98" stroke="#3a414a" stroke-linejoin="round" fill="none"/><path d="M1120.5 401.03l-1-.02v-.5h1z" stroke="#3a414a" stroke-width=".05" fill="#3a414a"/><path d="M1100.03 652.45l-4.36-14.36 9.27.17z" stroke="#3a414a" fill="#3a414a"/><path d="M882.7 221v.2l.04.2.05.24.04.23.07.23.08.24.1.24.1.24.1.25.15.26.15.27.18.28.2.3.24.3.26.32.3.34.36.36.4.38.5.42.57.45.67.5.82.54 1 .6 1.23.68 1.55.77 2 .9 2.64 1.03 3.58 1.24 5.08 1.52 7.63 1.95 12.6 2.64 25.4 4.2 126.48 17.52 12.58 2.65 7.63 1.96 5.06 1.52 3.6 1.24 2.25.9" stroke="#3a414a" stroke-linejoin="round" fill="none"/><path d="M883.18 221l-1 .02v-.52h1z" stroke="#3a414a" stroke-width=".05" fill="#3a414a"/><path d="M1118.8 278.42l-13.72-6.07 6.18-6.9z" stroke="#3a414a" fill="#3a414a"/><defs><path fill="#3a414a" d="M175 0L67-191c6 58 2 128 3 191H24v-248h59L193-55c-6-58-2-129-3-193h46V0h-61" id="y"/><path fill="#3a414a" d="M110-194c64 0 96 36 96 99 0 64-35 99-97 99-61 0-95-36-95-99 0-62 34-99 96-99zm-1 164c35 0 45-28 45-65 0-40-10-65-43-65-34 0-45 26-45 65 0 36 10 65 43 65" id="z"/><path fill="#3a414a" d="M128 0H69L1-190h53L99-40l48-150h52" id="A"/><path fill="#3a414a" d="M185-48c-13 30-37 53-82 52C43 2 14-33 14-96s30-98 90-98c62 0 83 45 84 108H66c0 31 8 55 39 56 18 0 30-7 34-22zm-45-69c5-46-57-63-70-21-2 6-4 13-4 21h74" id="B"/><path fill="#3a414a" d="M25 0v-261h50V0H25" id="C"/><path fill="#3a414a" d="M115-3C79 11 28 4 28-45v-112H4v-33h27l15-45h31v45h36v33H77v99c-1 23 16 31 38 25v30" id="D"/><path fill="#3a414a" d="M123 10C108 53 80 86 19 72V37c35 8 53-11 59-39L3-190h52l48 148c12-52 28-100 44-148h51" id="E"/><g id="a"><use transform="matrix(0.06172839506172839,0,0,0.06172839506172839,0,0)" xlink:href="#y"/><use transform="matrix(0.06172839506172839,0,0,0.06172839506172839,15.987654320987653,0)" xlink:href="#z"/><use transform="matrix(0.06172839506172839,0,0,0.06172839506172839,29.50617283950617,0)" xlink:href="#A"/><use transform="matrix(0.06172839506172839,0,0,0.06172839506172839,41.85185185185185,0)" xlink:href="#B"/><use transform="matrix(0.06172839506172839,0,0,0.06172839506172839,54.197530864197525,0)" xlink:href="#C"/><use transform="matrix(0.06172839506172839,0,0,0.06172839506172839,60.37037037037037,0)" xlink:href="#D"/><use transform="matrix(0.06172839506172839,0,0,0.06172839506172839,67.71604938271605,0)" xlink:href="#E"/></g><path fill="#3a414a" d="M24 0v-248h52V0H24" id="F"/><path fill="#3a414a" d="M135-194c87-1 58 113 63 194h-50c-7-57 23-157-34-157-59 0-34 97-39 157H25l-1-190h47c2 12-1 28 3 38 12-26 28-41 61-42" id="G"/><path fill="#3a414a" d="M88-194c31-1 46 15 58 34l-1-101h50l1 261h-48c-2-10 0-23-3-31C134-8 116 4 84 4 32 4 16-41 15-95c0-56 19-97 73-99zm17 164c33 0 40-30 41-66 1-37-9-64-41-64s-38 30-39 65c0 43 13 65 39 65" id="H"/><path fill="#3a414a" d="M25-224v-37h50v37H25zM25 0v-190h50V0H25" id="I"/><path fill="#3a414a" d="M190-63c-7 42-38 67-86 67-59 0-84-38-90-98-12-110 154-137 174-36l-49 2c-2-19-15-32-35-32-30 0-35 28-38 64-6 74 65 87 74 30" id="J"/><path fill="#3a414a" d="M133-34C117-15 103 5 69 4 32 3 11-16 11-54c-1-60 55-63 116-61 1-26-3-47-28-47-18 1-26 9-28 27l-52-2c7-38 36-58 82-57s74 22 75 68l1 82c-1 14 12 18 25 15v27c-30 8-71 5-69-32zm-48 3c29 0 43-24 42-57-32 0-66-3-65 30 0 17 8 27 23 27" id="K"/><path fill="#3a414a" d="M135-150c-39-12-60 13-60 57V0H25l-1-190h47c2 13-1 29 3 40 6-28 27-53 61-41v41" id="L"/><path fill="#3a414a" d="M137-138c1-29-70-34-71-4 15 46 118 7 119 86 1 83-164 76-172 9l43-7c4 19 20 25 44 25 33 8 57-30 24-41C81-84 22-81 20-136c-2-80 154-74 161-7" id="M"/><g id="b"><use transform="matrix(0.06172839506172839,0,0,0.06172839506172839,0,0)" xlink:href="#F"/><use transform="matrix(0.06172839506172839,0,0,0.06172839506172839,6.172839506172839,0)" xlink:href="#G"/><use transform="matrix(0.06172839506172839,0,0,0.06172839506172839,19.691358024691358,0)" xlink:href="#H"/><use transform="matrix(0.06172839506172839,0,0,0.06172839506172839,33.20987654320987,0)" xlink:href="#I"/><use transform="matrix(0.06172839506172839,0,0,0.06172839506172839,39.382716049382715,0)" xlink:href="#J"/><use transform="matrix(0.06172839506172839,0,0,0.06172839506172839,51.72839506172839,0)" xlink:href="#K"/><use transform="matrix(0.06172839506172839,0,0,0.06172839506172839,64.07407407407408,0)" xlink:href="#D"/><use transform="matrix(0.06172839506172839,0,0,0.06172839506172839,71.41975308641976,0)" xlink:href="#z"/><use transform="matrix(0.06172839506172839,0,0,0.06172839506172839,84.93827160493828,0)" xlink:href="#L"/><use transform="matrix(0.06172839506172839,0,0,0.06172839506172839,93.58024691358025,0)" xlink:href="#M"/></g><path fill="#3a414a" d="M24-248c120-7 223 5 221 122C244-46 201 0 124 0H24v-248zM76-40c74 7 117-18 117-86 0-67-45-88-117-82v168" id="N"/><path fill="#3a414a" d="M85 4C-2 5 27-109 22-190h50c7 57-23 150 33 157 60-5 35-97 40-157h50l1 190h-47c-2-12 1-28-3-38-12 25-28 42-61 42" id="O"/><path fill="#3a414a" d="M135-194c53 0 70 44 70 98 0 56-19 98-73 100-31 1-45-17-59-34 3 33 2 69 2 105H25l-1-265h48c2 10 0 23 3 31 11-24 29-35 60-35zM114-30c33 0 39-31 40-66 0-38-9-64-40-64-56 0-55 130 0 130" id="P"/><g id="c"><use transform="matrix(0.06172839506172839,0,0,0.06172839506172839,0,0)" xlink:href="#N"/><use transform="matrix(0.06172839506172839,0,0,0.06172839506172839,15.987654320987653,0)" xlink:href="#I"/><use transform="matrix(0.06172839506172839,0,0,0.06172839506172839,22.160493827160494,0)" xlink:href="#M"/><use transform="matrix(0.06172839506172839,0,0,0.06172839506172839,34.50617283950617,0)" xlink:href="#L"/><use transform="matrix(0.06172839506172839,0,0,0.06172839506172839,43.148148148148145,0)" xlink:href="#O"/><use transform="matrix(0.06172839506172839,0,0,0.06172839506172839,56.666666666666664,0)" xlink:href="#P"/><use transform="matrix(0.06172839506172839,0,0,0.06172839506172839,70.18518518518518,0)" xlink:href="#D"/><use transform="matrix(0.06172839506172839,0,0,0.06172839506172839,77.53086419753086,0)" xlink:href="#I"/><use transform="matrix(0.06172839506172839,0,0,0.06172839506172839,83.7037037037037,0)" xlink:href="#A"/><use transform="matrix(0.06172839506172839,0,0,0.06172839506172839,96.04938271604938,0)" xlink:href="#B"/><use transform="matrix(0.06172839506172839,0,0,0.06172839506172839,108.39506172839506,0)" xlink:href="#G"/><use transform="matrix(0.06172839506172839,0,0,0.06172839506172839,121.91358024691358,0)" xlink:href="#B"/><use transform="matrix(0.06172839506172839,0,0,0.06172839506172839,134.25925925925927,0)" xlink:href="#M"/><use transform="matrix(0.06172839506172839,0,0,0.06172839506172839,146.60493827160494,0)" xlink:href="#M"/></g><g id="d"><use transform="matrix(0.08641975308641973,0,0,0.08641975308641973,0,0)" xlink:href="#y"/><use transform="matrix(0.08641975308641973,0,0,0.08641975308641973,22.38271604938271,0)" xlink:href="#z"/><use transform="matrix(0.08641975308641973,0,0,0.08641975308641973,41.30864197530863,0)" xlink:href="#A"/><use transform="matrix(0.08641975308641973,0,0,0.08641975308641973,58.59259259259258,0)" xlink:href="#B"/><use transform="matrix(0.08641975308641973,0,0,0.08641975308641973,75.87654320987653,0)" xlink:href="#C"/><use transform="matrix(0.08641975308641973,0,0,0.08641975308641973,84.5185185185185,0)" xlink:href="#P"/><use transform="matrix(0.08641975308641973,0,0,0.08641975308641973,103.44444444444443,0)" xlink:href="#E"/></g><path fill="#3a414a" d="M212-179c-10-28-35-45-73-45-59 0-87 40-87 99 0 60 29 101 89 101 43 0 62-24 78-52l27 14C228-24 195 4 139 4 59 4 22-46 18-125c-6-104 99-153 187-111 19 9 31 26 39 46" id="Q"/><path fill="#3a414a" d="M100-194c62-1 85 37 85 99 1 63-27 99-86 99S16-35 15-95c0-66 28-99 85-99zM99-20c44 1 53-31 53-75 0-43-8-75-51-75s-53 32-53 75 10 74 51 75" id="R"/><path fill="#3a414a" d="M96-169c-40 0-48 33-48 73s9 75 48 75c24 0 41-14 43-38l32 2c-6 37-31 61-74 61-59 0-76-41-82-99-10-93 101-131 147-64 4 7 5 14 7 22l-32 3c-4-21-16-35-41-35" id="S"/><path fill="#3a414a" d="M84 4C-5 8 30-112 23-190h32v120c0 31 7 50 39 49 72-2 45-101 50-169h31l1 190h-30c-1-10 1-25-2-33-11 22-28 36-60 37" id="T"/><path fill="#3a414a" d="M114-163C36-179 61-72 57 0H25l-1-190h30c1 12-1 29 2 39 6-27 23-49 58-41v29" id="U"/><path fill="#3a414a" d="M100-194c63 0 86 42 84 106H49c0 40 14 67 53 68 26 1 43-12 49-29l28 8c-11 28-37 45-77 45C44 4 14-33 15-96c1-61 26-98 85-98zm52 81c6-60-76-77-97-28-3 7-6 17-6 28h103" id="V"/><path fill="#3a414a" d="M117-194c89-4 53 116 60 194h-32v-121c0-31-8-49-39-48C34-167 62-67 57 0H25l-1-190h30c1 10-1 24 2 32 11-22 29-35 61-36" id="W"/><g id="e"><use transform="matrix(0.06172839506172839,0,0,0.06172839506172839,0,0)" xlink:href="#Q"/><use transform="matrix(0.06172839506172839,0,0,0.06172839506172839,15.987654320987653,0)" xlink:href="#R"/><use transform="matrix(0.06172839506172839,0,0,0.06172839506172839,28.333333333333332,0)" xlink:href="#R"/><use transform="matrix(0.06172839506172839,0,0,0.06172839506172839,40.67901234567901,0)" xlink:href="#S"/><use transform="matrix(0.06172839506172839,0,0,0.06172839506172839,51.79012345679013,0)" xlink:href="#S"/><use transform="matrix(0.06172839506172839,0,0,0.06172839506172839,62.90123456790124,0)" xlink:href="#T"/><use transform="matrix(0.06172839506172839,0,0,0.06172839506172839,75.24691358024693,0)" xlink:href="#U"/><use transform="matrix(0.06172839506172839,0,0,0.06172839506172839,82.59259259259261,0)" xlink:href="#U"/><use transform="matrix(0.06172839506172839,0,0,0.06172839506172839,89.9382716049383,0)" xlink:href="#V"/><use transform="matrix(0.06172839506172839,0,0,0.06172839506172839,102.28395061728398,0)" xlink:href="#W"/><use transform="matrix(0.06172839506172839,0,0,0.06172839506172839,114.62962962962966,0)" xlink:href="#S"/><use transform="matrix(0.06172839506172839,0,0,0.06172839506172839,125.74074074074078,0)" xlink:href="#V"/></g><path fill="#3a414a" d="M240 0l2-218c-23 76-54 145-80 218h-23L58-218 59 0H30v-248h44l77 211c21-75 51-140 76-211h43V0h-30" id="X"/><path fill="#3a414a" d="M141-36C126-15 110 5 73 4 37 3 15-17 15-53c-1-64 63-63 125-63 3-35-9-54-41-54-24 1-41 7-42 31l-33-3c5-37 33-52 76-52 45 0 72 20 72 64v82c-1 20 7 32 28 27v20c-31 9-61-2-59-35zM48-53c0 20 12 33 32 33 41-3 63-29 60-74-43 2-92-5-92 41" id="Y"/><path fill="#3a414a" d="M59-47c-2 24 18 29 38 22v24C64 9 27 4 27-40v-127H5v-23h24l9-43h21v43h35v23H59v120" id="Z"/><path fill="#3a414a" d="M24-231v-30h32v30H24zM24 0v-190h32V0H24" id="aa"/><path fill="#3a414a" d="M141 0L90-78 38 0H4l68-98-65-92h35l48 74 47-74h35l-64 92 68 98h-35" id="ab"/><g id="f"><use transform="matrix(0.06172839506172839,0,0,0.06172839506172839,0,0)" xlink:href="#X"/><use transform="matrix(0.06172839506172839,0,0,0.06172839506172839,18.456790123456788,0)" xlink:href="#Y"/><use transform="matrix(0.06172839506172839,0,0,0.06172839506172839,30.80246913580247,0)" xlink:href="#Z"/><use transform="matrix(0.06172839506172839,0,0,0.06172839506172839,36.97530864197531,0)" xlink:href="#U"/><use transform="matrix(0.06172839506172839,0,0,0.06172839506172839,44.32098765432099,0)" xlink:href="#aa"/><use transform="matrix(0.06172839506172839,0,0,0.06172839506172839,49.19753086419753,0)" xlink:href="#ab"/></g><path fill="#3a414a" d="M127-220V0H93v-220H8v-28h204v28h-85" id="ac"/><g id="g"><use transform="matrix(0.06172839506172839,0,0,0.06172839506172839,0,0)" xlink:href="#ac"/><use transform="matrix(0.06172839506172839,0,0,0.06172839506172839,11.049382716049381,0)" xlink:href="#V"/><use transform="matrix(0.06172839506172839,0,0,0.06172839506172839,23.39506172839506,0)" xlink:href="#ab"/><use transform="matrix(0.06172839506172839,0,0,0.06172839506172839,34.50617283950617,0)" xlink:href="#Z"/></g><path fill="#3a414a" d="M30 0v-248h187v28H63v79h144v27H63v87h162V0H30" id="ad"/><path fill="#3a414a" d="M210-169c-67 3-38 105-44 169h-31v-121c0-29-5-50-35-48C34-165 62-65 56 0H25l-1-190h30c1 10-1 24 2 32 10-44 99-50 107 0 11-21 27-35 58-36 85-2 47 119 55 194h-31v-121c0-29-5-49-35-48" id="ae"/><path fill="#3a414a" d="M115-194c53 0 69 39 70 98 0 66-23 100-70 100C84 3 66-7 56-30L54 0H23l1-261h32v101c10-23 28-34 59-34zm-8 174c40 0 45-34 45-75 0-40-5-75-45-74-42 0-51 32-51 76 0 43 10 73 51 73" id="af"/><path fill="#3a414a" d="M85-194c31 0 48 13 60 33l-1-100h32l1 261h-30c-2-10 0-23-3-31C134-8 116 4 85 4 32 4 16-35 15-94c0-66 23-100 70-100zm9 24c-40 0-46 34-46 75 0 40 6 74 45 74 42 0 51-32 51-76 0-42-9-74-50-73" id="ag"/><path fill="#3a414a" d="M177-190C167-65 218 103 67 71c-23-6-38-20-44-43l32-5c15 47 100 32 89-28v-30C133-14 115 1 83 1 29 1 15-40 15-95c0-56 16-97 71-98 29-1 48 16 59 35 1-10 0-23 2-32h30zM94-22c36 0 50-32 50-73 0-42-14-75-50-75-39 0-46 34-46 75s6 73 46 73" id="ah"/><g id="h"><use transform="matrix(0.06172839506172839,0,0,0.06172839506172839,0,0)" xlink:href="#ad"/><use transform="matrix(0.06172839506172839,0,0,0.06172839506172839,14.814814814814813,0)" xlink:href="#ae"/><use transform="matrix(0.06172839506172839,0,0,0.06172839506172839,33.2716049382716,0)" xlink:href="#af"/><use transform="matrix(0.06172839506172839,0,0,0.06172839506172839,45.61728395061728,0)" xlink:href="#V"/><use transform="matrix(0.06172839506172839,0,0,0.06172839506172839,57.962962962962955,0)" xlink:href="#ag"/><use transform="matrix(0.06172839506172839,0,0,0.06172839506172839,70.30864197530863,0)" xlink:href="#ag"/><use transform="matrix(0.06172839506172839,0,0,0.06172839506172839,82.65432098765432,0)" xlink:href="#aa"/><use transform="matrix(0.06172839506172839,0,0,0.06172839506172839,87.53086419753086,0)" xlink:href="#W"/><use transform="matrix(0.06172839506172839,0,0,0.06172839506172839,99.87654320987654,0)" xlink:href="#ah"/></g><path fill="#3a414a" d="M205 0l-28-72H64L36 0H1l101-248h38L239 0h-34zm-38-99l-47-123c-12 45-31 82-46 123h93" id="ai"/><path fill="#3a414a" d="M179-190L93 31C79 59 56 82 12 73V49c39 6 53-20 64-50L1-190h34L92-34l54-156h33" id="aj"/><path fill="#3a414a" d="M115-194c55 1 70 41 70 98S169 2 115 4C84 4 66-9 55-30l1 105H24l-1-265h31l2 30c10-21 28-34 59-34zm-8 174c40 0 45-34 45-75s-6-73-45-74c-42 0-51 32-51 76 0 43 10 73 51 73" id="ak"/><path fill="#3a414a" d="M24 0v-261h32V0H24" id="al"/><g id="i"><use transform="matrix(0.06172839506172839,0,0,0.06172839506172839,0,0)" xlink:href="#ai"/><use transform="matrix(0.06172839506172839,0,0,0.06172839506172839,14.814814814814813,0)" xlink:href="#Z"/><use transform="matrix(0.06172839506172839,0,0,0.06172839506172839,20.98765432098765,0)" xlink:href="#aj"/><use transform="matrix(0.06172839506172839,0,0,0.06172839506172839,32.09876543209876,0)" xlink:href="#ak"/><use transform="matrix(0.06172839506172839,0,0,0.06172839506172839,44.444444444444436,0)" xlink:href="#aa"/><use transform="matrix(0.06172839506172839,0,0,0.06172839506172839,49.32098765432098,0)" xlink:href="#S"/><use transform="matrix(0.06172839506172839,0,0,0.06172839506172839,60.43209876543209,0)" xlink:href="#Y"/><use transform="matrix(0.06172839506172839,0,0,0.06172839506172839,72.77777777777777,0)" xlink:href="#al"/><use transform="matrix(0.06172839506172839,0,0,0.06172839506172839,77.65432098765432,0)" xlink:href="#aa"/><use transform="matrix(0.06172839506172839,0,0,0.06172839506172839,82.53086419753086,0)" xlink:href="#Z"/><use transform="matrix(0.06172839506172839,0,0,0.06172839506172839,88.7037037037037,0)" xlink:href="#aj"/></g><path fill="#3a414a" d="M87 75C49 33 22-17 22-94c0-76 28-126 65-167h31c-38 41-64 92-64 168S80 34 118 75H87" id="am"/><path fill="#3a414a" d="M232-93c-1 65-40 97-104 97C67 4 28-28 28-90v-158h33c8 89-33 224 67 224 102 0 64-133 71-224h33v155" id="an"/><path fill="#3a414a" d="M9 0v-24l116-142H16v-24h144v24L44-24h123V0H9" id="ao"/><g id="j"><use transform="matrix(0.06172839506172839,0,0,0.06172839506172839,0,0)" xlink:href="#am"/><use transform="matrix(0.06172839506172839,0,0,0.06172839506172839,7.345679012345679,0)" xlink:href="#an"/><use transform="matrix(0.06172839506172839,0,0,0.06172839506172839,23.333333333333332,0)" xlink:href="#ao"/><use transform="matrix(0.06172839506172839,0,0,0.06172839506172839,34.44444444444444,0)" xlink:href="#ao"/><use transform="matrix(0.06172839506172839,0,0,0.06172839506172839,45.55555555555556,0)" xlink:href="#aa"/></g><g id="k"><use transform="matrix(0.06172839506172839,0,0,0.06172839506172839,0,0)" xlink:href="#V"/><use transform="matrix(0.06172839506172839,0,0,0.06172839506172839,12.345679012345679,0)" xlink:href="#Z"/></g><path fill="#3a414a" d="M33 0v-38h34V0H33" id="ap"/><path fill="#3a414a" d="M33-261c38 41 65 92 65 168S71 34 33 75H2C39 34 66-17 66-93S39-220 2-261h31" id="aq"/><g id="l"><use transform="matrix(0.06172839506172839,0,0,0.06172839506172839,0,0)" xlink:href="#Y"/><use transform="matrix(0.06172839506172839,0,0,0.06172839506172839,12.345679012345679,0)" xlink:href="#al"/><use transform="matrix(0.06172839506172839,0,0,0.06172839506172839,17.22222222222222,0)" xlink:href="#ap"/><use transform="matrix(0.06172839506172839,0,0,0.06172839506172839,23.39506172839506,0)" xlink:href="#aq"/></g><path fill="#3a414a" d="M135-143c-3-34-86-38-87 0 15 53 115 12 119 90S17 21 10-45l28-5c4 36 97 45 98 0-10-56-113-15-118-90-4-57 82-63 122-42 12 7 21 19 24 35" id="ar"/><g id="m"><use transform="matrix(0.06172839506172839,0,0,0.06172839506172839,0,0)" xlink:href="#Q"/><use transform="matrix(0.06172839506172839,0,0,0.06172839506172839,15.987654320987653,0)" xlink:href="#R"/><use transform="matrix(0.06172839506172839,0,0,0.06172839506172839,28.333333333333332,0)" xlink:href="#ae"/><use transform="matrix(0.06172839506172839,0,0,0.06172839506172839,46.79012345679012,0)" xlink:href="#ae"/><use transform="matrix(0.06172839506172839,0,0,0.06172839506172839,65.24691358024691,0)" xlink:href="#R"/><use transform="matrix(0.06172839506172839,0,0,0.06172839506172839,77.5925925925926,0)" xlink:href="#W"/><use transform="matrix(0.06172839506172839,0,0,0.06172839506172839,89.93827160493828,0)" xlink:href="#W"/><use transform="matrix(0.06172839506172839,0,0,0.06172839506172839,102.28395061728396,0)" xlink:href="#V"/><use transform="matrix(0.06172839506172839,0,0,0.06172839506172839,114.62962962962965,0)" xlink:href="#ar"/><use transform="matrix(0.06172839506172839,0,0,0.06172839506172839,125.74074074074076,0)" xlink:href="#ar"/></g><path fill="#3a414a" d="M30 0v-248h33v221h125V0H30" id="as"/><g id="n"><use transform="matrix(0.06172839506172839,0,0,0.06172839506172839,0,0)" xlink:href="#am"/><use transform="matrix(0.06172839506172839,0,0,0.06172839506172839,7.345679012345679,0)" xlink:href="#as"/><use transform="matrix(0.06172839506172839,0,0,0.06172839506172839,19.691358024691358,0)" xlink:href="#V"/><use transform="matrix(0.06172839506172839,0,0,0.06172839506172839,32.03703703703704,0)" xlink:href="#V"/></g><path fill="#3a414a" d="M160-131c35 5 61 23 61 61C221 17 115-2 30 0v-248c76 3 177-17 177 60 0 33-19 50-47 57zm-97-11c50-1 110 9 110-42 0-47-63-36-110-37v79zm0 115c55-2 124 14 124-45 0-56-70-42-124-44v89" id="at"/><g id="o"><use transform="matrix(0.06172839506172839,0,0,0.06172839506172839,0,0)" xlink:href="#at"/><use transform="matrix(0.06172839506172839,0,0,0.06172839506172839,14.814814814814813,0)" xlink:href="#U"/><use transform="matrix(0.06172839506172839,0,0,0.06172839506172839,22.160493827160494,0)" xlink:href="#aa"/><use transform="matrix(0.06172839506172839,0,0,0.06172839506172839,27.037037037037038,0)" xlink:href="#ag"/><use transform="matrix(0.06172839506172839,0,0,0.06172839506172839,39.382716049382715,0)" xlink:href="#ah"/><use transform="matrix(0.06172839506172839,0,0,0.06172839506172839,51.72839506172839,0)" xlink:href="#aa"/><use transform="matrix(0.06172839506172839,0,0,0.06172839506172839,56.60493827160494,0)" xlink:href="#W"/><use transform="matrix(0.06172839506172839,0,0,0.06172839506172839,68.95061728395062,0)" xlink:href="#ah"/></g><path fill="#3a414a" d="M63-220v92h138v28H63V0H30v-248h175v28H63" id="au"/><g id="p"><use transform="matrix(0.06172839506172839,0,0,0.06172839506172839,0,0)" xlink:href="#am"/><use transform="matrix(0.06172839506172839,0,0,0.06172839506172839,7.345679012345679,0)" xlink:href="#au"/><use transform="matrix(0.06172839506172839,0,0,0.06172839506172839,20.864197530864196,0)" xlink:href="#R"/><use transform="matrix(0.06172839506172839,0,0,0.06172839506172839,33.20987654320987,0)" xlink:href="#ar"/><use transform="matrix(0.06172839506172839,0,0,0.06172839506172839,44.32098765432099,0)" xlink:href="#Z"/><use transform="matrix(0.06172839506172839,0,0,0.06172839506172839,50.49382716049383,0)" xlink:href="#V"/><use transform="matrix(0.06172839506172839,0,0,0.06172839506172839,62.839506172839506,0)" xlink:href="#U"/></g><path fill="#3a414a" d="M190 0L58-211 59 0H30v-248h39L202-35l-2-213h31V0h-41" id="av"/><path fill="#3a414a" d="M108 0H70L1-190h34L89-25l56-165h34" id="aw"/><g id="q"><use transform="matrix(0.06172839506172839,0,0,0.06172839506172839,0,0)" xlink:href="#av"/><use transform="matrix(0.06172839506172839,0,0,0.06172839506172839,15.987654320987653,0)" xlink:href="#R"/><use transform="matrix(0.06172839506172839,0,0,0.06172839506172839,28.333333333333332,0)" xlink:href="#aw"/><use transform="matrix(0.06172839506172839,0,0,0.06172839506172839,39.44444444444444,0)" xlink:href="#V"/><use transform="matrix(0.06172839506172839,0,0,0.06172839506172839,51.79012345679012,0)" xlink:href="#al"/><use transform="matrix(0.06172839506172839,0,0,0.06172839506172839,56.666666666666664,0)" xlink:href="#Z"/><use transform="matrix(0.06172839506172839,0,0,0.06172839506172839,62.839506172839506,0)" xlink:href="#aj"/></g><path fill="#3a414a" d="M266 0h-40l-56-210L115 0H75L2-248h35L96-30l15-64 43-154h32l59 218 59-218h35" id="ax"/><g id="r"><use transform="matrix(0.06172839506172839,0,0,0.06172839506172839,0,0)" xlink:href="#am"/><use transform="matrix(0.06172839506172839,0,0,0.06172839506172839,7.345679012345679,0)" xlink:href="#ax"/><use transform="matrix(0.06172839506172839,0,0,0.06172839506172839,27.469135802469133,0)" xlink:href="#Y"/><use transform="matrix(0.06172839506172839,0,0,0.06172839506172839,39.81481481481481,0)" xlink:href="#W"/><use transform="matrix(0.06172839506172839,0,0,0.06172839506172839,52.16049382716049,0)" xlink:href="#ah"/></g><path fill="#3a414a" d="M185-189c-5-48-123-54-124 2 14 75 158 14 163 119 3 78-121 87-175 55-17-10-28-26-33-46l33-7c5 56 141 63 141-1 0-78-155-14-162-118-5-82 145-84 179-34 5 7 8 16 11 25" id="ay"/><path fill="#3a414a" d="M106-169C34-169 62-67 57 0H25v-261h32l-1 103c12-21 28-36 61-36 89 0 53 116 60 194h-32v-121c2-32-8-49-39-48" id="az"/><g id="s"><use transform="matrix(0.06172839506172839,0,0,0.06172839506172839,0,0)" xlink:href="#am"/><use transform="matrix(0.06172839506172839,0,0,0.06172839506172839,7.345679012345679,0)" xlink:href="#ay"/><use transform="matrix(0.06172839506172839,0,0,0.06172839506172839,22.160493827160494,0)" xlink:href="#az"/><use transform="matrix(0.06172839506172839,0,0,0.06172839506172839,34.50617283950617,0)" xlink:href="#aa"/><use transform="matrix(0.06172839506172839,0,0,0.06172839506172839,39.382716049382715,0)" xlink:href="#af"/><use transform="matrix(0.06172839506172839,0,0,0.06172839506172839,51.72839506172839,0)" xlink:href="#Y"/><use transform="matrix(0.06172839506172839,0,0,0.06172839506172839,64.07407407407408,0)" xlink:href="#aj"/><use transform="matrix(0.06172839506172839,0,0,0.06172839506172839,75.18518518518519,0)" xlink:href="#Y"/><use transform="matrix(0.06172839506172839,0,0,0.06172839506172839,87.53086419753087,0)" xlink:href="#ae"/><use transform="matrix(0.06172839506172839,0,0,0.06172839506172839,105.98765432098766,0)" xlink:href="#Y"/></g><path fill="#3a414a" d="M0 4l72-265h28L28 4H0" id="aA"/><path fill="#3a414a" d="M30-248c118-7 216 8 213 122C240-48 200 0 122 0H30v-248zM63-27c89 8 146-16 146-99s-60-101-146-95v194" id="aB"/><g id="t"><use transform="matrix(0.06172839506172839,0,0,0.06172839506172839,0,0)" xlink:href="#at"/><use transform="matrix(0.06172839506172839,0,0,0.06172839506172839,14.814814814814813,0)" xlink:href="#U"/><use transform="matrix(0.06172839506172839,0,0,0.06172839506172839,22.160493827160494,0)" xlink:href="#V"/><use transform="matrix(0.06172839506172839,0,0,0.06172839506172839,34.50617283950617,0)" xlink:href="#Y"/><use transform="matrix(0.06172839506172839,0,0,0.06172839506172839,46.85185185185185,0)" xlink:href="#ag"/><use transform="matrix(0.06172839506172839,0,0,0.06172839506172839,59.197530864197525,0)" xlink:href="#Z"/><use transform="matrix(0.06172839506172839,0,0,0.06172839506172839,65.37037037037037,0)" xlink:href="#az"/><use transform="matrix(0.06172839506172839,0,0,0.06172839506172839,77.71604938271605,0)" xlink:href="#aA"/><use transform="matrix(0.06172839506172839,0,0,0.06172839506172839,83.88888888888889,0)" xlink:href="#aB"/><use transform="matrix(0.06172839506172839,0,0,0.06172839506172839,99.87654320987654,0)" xlink:href="#V"/><use transform="matrix(0.06172839506172839,0,0,0.06172839506172839,112.22222222222223,0)" xlink:href="#ak"/><use transform="matrix(0.06172839506172839,0,0,0.06172839506172839,124.56790123456791,0)" xlink:href="#Z"/><use transform="matrix(0.06172839506172839,0,0,0.06172839506172839,130.74074074074076,0)" xlink:href="#az"/></g><g id="u"><use transform="matrix(0.06172839506172839,0,0,0.06172839506172839,0,0)" xlink:href="#am"/><use transform="matrix(0.06172839506172839,0,0,0.06172839506172839,7.345679012345679,0)" xlink:href="#at"/><use transform="matrix(0.06172839506172839,0,0,0.06172839506172839,22.160493827160494,0)" xlink:href="#T"/></g><g id="v"><use transform="matrix(0.06172839506172839,0,0,0.06172839506172839,0,0)" xlink:href="#aB"/><use transform="matrix(0.06172839506172839,0,0,0.06172839506172839,15.987654320987653,0)" xlink:href="#aa"/><use transform="matrix(0.06172839506172839,0,0,0.06172839506172839,20.864197530864196,0)" xlink:href="#ar"/><use transform="matrix(0.06172839506172839,0,0,0.06172839506172839,31.975308641975307,0)" xlink:href="#U"/><use transform="matrix(0.06172839506172839,0,0,0.06172839506172839,39.32098765432099,0)" xlink:href="#T"/><use transform="matrix(0.06172839506172839,0,0,0.06172839506172839,51.666666666666664,0)" xlink:href="#ak"/><use transform="matrix(0.06172839506172839,0,0,0.06172839506172839,64.01234567901234,0)" xlink:href="#Z"/><use transform="matrix(0.06172839506172839,0,0,0.06172839506172839,70.18518518518518,0)" xlink:href="#aa"/><use transform="matrix(0.06172839506172839,0,0,0.06172839506172839,75.06172839506172,0)" xlink:href="#aw"/><use transform="matrix(0.06172839506172839,0,0,0.06172839506172839,86.17283950617283,0)" xlink:href="#V"/><use transform="matrix(0.06172839506172839,0,0,0.06172839506172839,98.51851851851852,0)" xlink:href="#W"/><use transform="matrix(0.06172839506172839,0,0,0.06172839506172839,110.8641975308642,0)" xlink:href="#V"/><use transform="matrix(0.06172839506172839,0,0,0.06172839506172839,123.20987654320989,0)" xlink:href="#ar"/><use transform="matrix(0.06172839506172839,0,0,0.06172839506172839,134.320987654321,0)" xlink:href="#ar"/></g><g id="w"><use transform="matrix(0.06172839506172839,0,0,0.06172839506172839,0,0)" xlink:href="#am"/><use transform="matrix(0.06172839506172839,0,0,0.06172839506172839,7.345679012345679,0)" xlink:href="#at"/><use transform="matrix(0.06172839506172839,0,0,0.06172839506172839,22.160493827160494,0)" xlink:href="#R"/><use transform="matrix(0.06172839506172839,0,0,0.06172839506172839,34.50617283950617,0)" xlink:href="#U"/><use transform="matrix(0.06172839506172839,0,0,0.06172839506172839,41.85185185185185,0)" xlink:href="#W"/><use transform="matrix(0.06172839506172839,0,0,0.06172839506172839,54.197530864197525,0)" xlink:href="#ae"/><use transform="matrix(0.06172839506172839,0,0,0.06172839506172839,72.65432098765432,0)" xlink:href="#Y"/><use transform="matrix(0.06172839506172839,0,0,0.06172839506172839,85,0)" xlink:href="#W"/><use transform="matrix(0.06172839506172839,0,0,0.06172839506172839,97.34567901234568,0)" xlink:href="#W"/></g><g id="x"><use transform="matrix(0.06172839506172839,0,0,0.06172839506172839,0,0)" xlink:href="#am"/><use transform="matrix(0.06172839506172839,0,0,0.06172839506172839,7.345679012345679,0)" xlink:href="#ax"/><use transform="matrix(0.06172839506172839,0,0,0.06172839506172839,27.839506172839503,0)" xlink:href="#T"/></g></defs></g></svg>