<svg xmlns="http://www.w3.org/2000/svg" xmlns:xlink="http://www.w3.org/1999/xlink" xmlns:lucid="lucid" width="320" height="500"><g transform="translate(-660 -320)" lucid:page-tab-id="0_0"><path d="M860 380c0 22.1-17.9 40-40 40s-40-17.9-40-40 17.9-40 40-40 40 17.9 40 40z" stroke="#5e5e5e" stroke-width="3" fill="#333"/><use xlink:href="#a" transform="matrix(1,0,0,1,785,345) translate(20.833333333333336 39.65277777777778)"/><path d="M760 500c0 22.1-17.9 40-40 40s-40-17.9-40-40 17.9-40 40-40 40 17.9 40 40z" stroke="#5e5e5e" stroke-width="3" fill="#fff"/><use xlink:href="#b" transform="matrix(1,0,0,1,685,465) translate(27.006172839506174 39.65277777777778)"/><path d="M960 500c0 22.1-17.9 40-40 40s-40-17.9-40-40 17.9-40 40-40 40 17.9 40 40z" stroke="#5e5e5e" stroke-width="3" fill="#fff"/><use xlink:href="#b" transform="matrix(1,0,0,1,885,465) translate(27.006172839506174 39.65277777777778)"/><path d="M860 500c0 22.1-17.9 40-40 40s-40-17.9-40-40 17.9-40 40-40 40 17.9 40 40z" stroke="#5e5e5e" stroke-width="3" fill="#fff"/><use xlink:href="#b" transform="matrix(1,0,0,1,785,465) translate(27.006172839506174 39.65277777777778)"/><path d="M720.1 457.5l.06-.25.07-.25.08-.26.12-.26.12-.26.14-.27.16-.28.2-.3.2-.3.27-.33.3-.34.37-.37.43-.4.52-.42.62-.46.78-.53.97-.58 1.23-.67 1.64-.78 2.23-.92 3.2-1.15 4.9-1.48 8.8-2.18 53.8-11.06 4.67-1.4" stroke="#5e5e5e" stroke-width="2" fill="none"/><path d="M721.03 457.5l-.03 1.06-.98-.06-1.02.03.03-1.08" fill="#5e5e5e"/><path d="M817.4 423.44l-8.66 12.24-5.54-7.43z" stroke="#5e5e5e" stroke-width="2" fill="#5e5e5e"/><path d="M820 457.5V440" stroke="#5e5e5e" stroke-width="2" fill="none"/><path d="M821 458.56l-.98-.06-1.02.03v-1.06h2" fill="#5e5e5e"/><path d="M820 424.74l4.64 14.26h-9.28z" stroke="#5e5e5e" stroke-width="2" fill="#5e5e5e"/><path d="M919.9 457.5l-.06-.25-.07-.25-.08-.26-.12-.26-.12-.26-.14-.27-.16-.28-.2-.3-.2-.3-.27-.33-.3-.34-.37-.37-.43-.4-.52-.42-.62-.46-.78-.53-.97-.58-1.23-.67-1.64-.78-2.23-.92-3.2-1.15-4.9-1.48-8.8-2.18-53.8-11.06-4.67-1.4" stroke="#5e5e5e" stroke-width="2" fill="none"/><path d="M921 458.56l-.98-.06-1.02.03-.03-1.03 2-.05" fill="#5e5e5e"/><path d="M822.6 423.44l14.2 4.8-5.54 7.44z" stroke="#5e5e5e" stroke-width="2" fill="#5e5e5e"/><path d="M721.5 540.75c.4 0 .75.34.75.75v17c0 .4-.34.75-.75.75-.4 0-.75-.34-.75-.75v-17c0-.4.34-.75.75-.75zM821.5 540.75c.4 0 .75.34.75.75v17c0 .4-.34.75-.75.75-.4 0-.75-.34-.75-.75v-17c0-.4.34-.75.75-.75zM921.5 540.75c.4 0 .75.34.75.75v17c0 .4-.34.75-.75.75-.4 0-.75-.34-.75-.75v-17c0-.4.34-.75.75-.75z" stroke="#5e5e5e" stroke-width="1.5" fill="none"/><path d="M680 566c0-3.3 2.7-6 6-6h71c3.3 0 6 2.7 6 6v108c0 3.3-2.7 6-6 6h-71c-3.3 0-6-2.7-6-6z" stroke="#5e5e5e" stroke-width="3" fill="#fff"/><use xlink:href="#c" transform="matrix(1,0,0,1,692,572) translate(9.160493827160494 38.77777777777778)"/><use xlink:href="#d" transform="matrix(1,0,0,1,692,572) translate(23.32716049382716 65.44444444444446)"/><path d="M777 566c0-3.3 2.7-6 6-6h71c3.3 0 6 2.7 6 6v108c0 3.3-2.7 6-6 6h-71c-3.3 0-6-2.7-6-6z" stroke="#5e5e5e" stroke-width="3" fill="#fff"/><use xlink:href="#c" transform="matrix(1,0,0,1,789,572) translate(9.160493827160494 38.77777777777778)"/><use xlink:href="#e" transform="matrix(1,0,0,1,789,572) translate(23.32716049382716 65.44444444444446)"/><path d="M877 566c0-3.3 2.7-6 6-6h71c3.3 0 6 2.7 6 6v108c0 3.3-2.7 6-6 6h-71c-3.3 0-6-2.7-6-6z" stroke="#5e5e5e" stroke-width="3" fill="#fff"/><use xlink:href="#c" transform="matrix(1,0,0,1,889,572) translate(9.160493827160494 38.77777777777778)"/><use xlink:href="#f" transform="matrix(1,0,0,1,889,572) translate(23.32716049382716 65.44444444444446)"/><path d="M721.53 682.5v.18l.1 1.13.13 1.1.2 1.08.23 1.05.3 1.03.33 1 .4 1 .46 1 .5 1 .6.97.64 1 .73.98.82 1 .9 1.02 1.03 1.03 1.15 1.03 1.3 1.05 1.45 1.06 1.63 1.07 1.85 1.08 2.1 1.08 2.35 1.07 2.66 1.06 3 1 3.33.95 3.7.86 4.03.7 4.33.55 4.54.34 4.67.1 4.68-.12 4.53-.36 4.3-.56 4-.73 3.67-.86 3.3-.94 2.94-1.02 2.63-1.06 2.32-1.07 2.06-1.08 1.83-1.08 1.62-1.07 1.43-1.06 1.27-1.04 1.14-1.03" stroke="#19967d" stroke-width="2" fill="none"/><path d="M722.53 682.5l-2 .05-.03-1.05h2" fill="#19967d"/><path d="M818.68 684.46l-1.56 14.92-8.47-3.77z" stroke="#19967d" stroke-width="2" fill="#19967d"/><path d="M721.52 682.5l.02.95.12 1.9.2 1.84.26 1.78.33 1.76.4 1.73.48 1.7.55 1.67.62 1.66.7 1.65.76 1.64.85 1.62.95 1.63 1.04 1.63 1.12 1.63 1.25 1.66 1.37 1.65 1.5 1.68 1.65 1.68 1.8 1.7 2 1.72 2.2 1.74 2.4 1.75 2.67 1.77 2.95 1.8 3.26 1.78 3.6 1.78 3.98 1.77 4.4 1.74 4.84 1.7 5.32 1.6 5.8 1.5 6.3 1.32 6.73 1.14 7.14.9 7.46.63 7.66.3h7.74l7.67-.3 7.46-.64 7.13-.9 6.75-1.14 6.28-1.33 5.8-1.5 5.32-1.6 4.84-1.7 4.4-1.73 3.97-1.77 3.6-1.8 3.25-1.78 2.95-1.78 2.67-1.77 2.4-1.76 2.2-1.72 2-1.72 1.8-1.7 1.66-1.7 1.5-1.65 1.37-1.65 1.24-1.64 1.14-1.63 1.04-1.63.94-1.63.85-1.62.63-1.32" stroke="#19967d" stroke-width="2" fill="none"/><path d="M722.52 682.5l-2 .05-.02-1.05h2" fill="#19967d"/><path d="M918 684.66l1.55 14.92-9.07-1.93z" stroke="#19967d" stroke-width="2" fill="#19967d"/><path d="M918.48 682.5v.18l-.1 1.14-.13 1.1-.2 1.07-.22 1.04-.3 1.03-.33 1-.4 1-.43 1-.5 1-.57.98-.63 1-.7.98-.8 1-.87 1-.98 1.02-1.1 1.03-1.2 1.04-1.38 1.06-1.54 1.06-1.73 1.08-1.95 1.1-2.2 1.07-2.46 1.06-2.77 1.04-3.1 1-3.45.9-3.8.82-4.1.67-4.4.5-4.58.28-4.68.06-4.66-.16-4.5-.38-4.3-.58-3.97-.74-3.64-.86-3.3-.96-2.94-1-2.64-1.07-2.35-1.08-2.07-1.1-1.85-1.07-1.64-1.07-1.46-1.07-1.3-1.04-1.17-1.03-.6-.6" stroke="#19967d" stroke-width="2" fill="none"/><path d="M919.47 682.55l-2-.05.03-1h2" fill="#19967d"/><path d="M818.62 684.47l9.92 11.25-8.5 3.68z" stroke="#19967d" stroke-width="2" fill="#19967d"/><path d="M918.48 682.5l-.02.95-.12 1.9-.2 1.84-.26 1.78-.33 1.76-.4 1.73-.48 1.7-.55 1.67-.62 1.66-.7 1.65-.76 1.64-.85 1.62-.95 1.63-1.04 1.63-1.12 1.63-1.25 1.66-1.37 1.65-1.5 1.68-1.65 1.68-1.8 1.7-2 1.72-2.2 1.74-2.4 1.75-2.67 1.77-2.95 1.8-3.26 1.78-3.6 1.78-3.98 1.77-4.4 1.74-4.84 1.7-5.32 1.6-5.8 1.5-6.3 1.32-6.73 1.14-7.14.9-7.46.63-7.66.3h-7.74l-7.67-.3-7.46-.64-7.13-.9-6.75-1.14-6.28-1.33-5.8-1.5-5.32-1.6-4.84-1.7-4.4-1.73-3.97-1.77-3.6-1.8-3.25-1.78-2.95-1.78-2.67-1.77-2.4-1.76-2.2-1.72-2-1.72-1.8-1.7-1.66-1.7-1.5-1.65-1.37-1.65-1.24-1.64-1.14-1.63-1.04-1.63-.94-1.63-.85-1.62-.63-1.32" stroke="#19967d" stroke-width="2" fill="none"/><path d="M919.48 682.55l-2-.04.02-1h2" fill="#19967d"/><path d="M722 684.66l7.52 13-9.07 1.92z" stroke="#19967d" stroke-width="2" fill="#19967d"/><path d="M698.5 746c0-3.3 2.7-6 6-6h228c3.3 0 6 2.7 6 6v48c0 3.3-2.7 6-6 6h-228c-3.3 0-6-2.7-6-6z" stroke="#000" stroke-opacity="0" stroke-width="3" fill="#fff" fill-opacity="0"/><g><use xlink:href="#g" transform="matrix(1,0,0,1,703.5,745) translate(34.38271604938272 30.27777777777778)"/><use xlink:href="#h" transform="matrix(1,0,0,1,703.5,745) translate(109.5679012345679 30.27777777777778)"/></g><defs><path fill="#fff" d="M63-220v92h138v28H63V0H30v-248h175v28H63" id="i"/><path fill="#fff" d="M30-248c87 1 191-15 191 75 0 78-77 80-158 76V0H30v-248zm33 125c57 0 124 11 124-50 0-59-68-47-124-48v98" id="j"/><g id="a"><use transform="matrix(0.06172839506172839,0,0,0.06172839506172839,0,0)" xlink:href="#i"/><use transform="matrix(0.06172839506172839,0,0,0.06172839506172839,13.518518518518517,0)" xlink:href="#j"/></g><path fill="#333" d="M233-177c-1 41-23 64-60 70L243 0h-38l-65-103H63V0H30v-248c88 3 205-21 203 71zM63-129c60-2 137 13 137-47 0-61-80-42-137-45v92" id="k"/><use transform="matrix(0.06172839506172839,0,0,0.06172839506172839,0,0)" xlink:href="#k" id="b"/><path fill="#333" d="M127-220V0H93v-220H8v-28h204v28h-85" id="l"/><path fill="#333" d="M100-194c63 0 86 42 84 106H49c0 40 14 67 53 68 26 1 43-12 49-29l28 8c-11 28-37 45-77 45C44 4 14-33 15-96c1-61 26-98 85-98zm52 81c6-60-76-77-97-28-3 7-6 17-6 28h103" id="m"/><path fill="#333" d="M141 0L90-78 38 0H4l68-98-65-92h35l48 74 47-74h35l-64 92 68 98h-35" id="n"/><path fill="#333" d="M59-47c-2 24 18 29 38 22v24C64 9 27 4 27-40v-127H5v-23h24l9-43h21v43h35v23H59v120" id="o"/><g id="c"><use transform="matrix(0.06172839506172839,0,0,0.06172839506172839,0,0)" xlink:href="#l"/><use transform="matrix(0.06172839506172839,0,0,0.06172839506172839,11.049382716049381,0)" xlink:href="#m"/><use transform="matrix(0.06172839506172839,0,0,0.06172839506172839,23.39506172839506,0)" xlink:href="#n"/><use transform="matrix(0.06172839506172839,0,0,0.06172839506172839,34.50617283950617,0)" xlink:href="#o"/></g><path fill="#333" d="M27 0v-27h64v-190l-56 39v-29l58-41h29v221h61V0H27" id="p"/><use transform="matrix(0.06172839506172839,0,0,0.06172839506172839,0,0)" xlink:href="#p" id="d"/><path fill="#333" d="M101-251c82-7 93 87 43 132L82-64C71-53 59-42 53-27h129V0H18c2-99 128-94 128-182 0-28-16-43-45-43s-46 15-49 41l-32-3c6-41 34-60 81-64" id="q"/><use transform="matrix(0.06172839506172839,0,0,0.06172839506172839,0,0)" xlink:href="#q" id="e"/><path fill="#333" d="M126-127c33 6 58 20 58 59 0 88-139 92-164 29-3-8-5-16-6-25l32-3c6 27 21 44 54 44 32 0 52-15 52-46 0-38-36-46-79-43v-28c39 1 72-4 72-42 0-27-17-43-46-43-28 0-47 15-49 41l-32-3c6-42 35-63 81-64 48-1 79 21 79 65 0 36-21 52-52 59" id="r"/><use transform="matrix(0.06172839506172839,0,0,0.06172839506172839,0,0)" xlink:href="#r" id="f"/><path fill="#19967d" d="M212-179c-10-28-35-45-73-45-59 0-87 40-87 99 0 60 29 101 89 101 43 0 62-24 78-52l27 14C228-24 195 4 139 4 59 4 22-46 18-125c-6-104 99-153 187-111 19 9 31 26 39 46" id="s"/><path fill="#19967d" d="M100-194c62-1 85 37 85 99 1 63-27 99-86 99S16-35 15-95c0-66 28-99 85-99zM99-20c44 1 53-31 53-75 0-43-8-75-51-75s-53 32-53 75 10 74 51 75" id="t"/><path fill="#19967d" d="M135-143c-3-34-86-38-87 0 15 53 115 12 119 90S17 21 10-45l28-5c4 36 97 45 98 0-10-56-113-15-118-90-4-57 82-63 122-42 12 7 21 19 24 35" id="u"/><path fill="#19967d" d="M24-231v-30h32v30H24zM24 0v-190h32V0H24" id="v"/><path fill="#19967d" d="M117-194c89-4 53 116 60 194h-32v-121c0-31-8-49-39-48C34-167 62-67 57 0H25l-1-190h30c1 10-1 24 2 32 11-22 29-35 61-36" id="w"/><path fill="#19967d" d="M100-194c63 0 86 42 84 106H49c0 40 14 67 53 68 26 1 43-12 49-29l28 8c-11 28-37 45-77 45C44 4 14-33 15-96c1-61 26-98 85-98zm52 81c6-60-76-77-97-28-3 7-6 17-6 28h103" id="x"/><g id="g"><use transform="matrix(0.06172839506172839,0,0,0.06172839506172839,0,0)" xlink:href="#s"/><use transform="matrix(0.06172839506172839,0,0,0.06172839506172839,15.987654320987653,0)" xlink:href="#t"/><use transform="matrix(0.06172839506172839,0,0,0.06172839506172839,28.333333333333332,0)" xlink:href="#u"/><use transform="matrix(0.06172839506172839,0,0,0.06172839506172839,39.44444444444444,0)" xlink:href="#v"/><use transform="matrix(0.06172839506172839,0,0,0.06172839506172839,44.32098765432099,0)" xlink:href="#w"/><use transform="matrix(0.06172839506172839,0,0,0.06172839506172839,56.666666666666664,0)" xlink:href="#x"/></g><path fill="#19967d" d="M210-169c-67 3-38 105-44 169h-31v-121c0-29-5-50-35-48C34-165 62-65 56 0H25l-1-190h30c1 10-1 24 2 32 10-44 99-50 107 0 11-21 27-35 58-36 85-2 47 119 55 194h-31v-121c0-29-5-49-35-48" id="y"/><path fill="#19967d" d="M24 0v-261h32V0H24" id="z"/><path fill="#19967d" d="M141-36C126-15 110 5 73 4 37 3 15-17 15-53c-1-64 63-63 125-63 3-35-9-54-41-54-24 1-41 7-42 31l-33-3c5-37 33-52 76-52 45 0 72 20 72 64v82c-1 20 7 32 28 27v20c-31 9-61-2-59-35zM48-53c0 20 12 33 32 33 41-3 63-29 60-74-43 2-92-5-92 41" id="A"/><path fill="#19967d" d="M114-163C36-179 61-72 57 0H25l-1-190h30c1 12-1 29 2 39 6-27 23-49 58-41v29" id="B"/><path fill="#19967d" d="M59-47c-2 24 18 29 38 22v24C64 9 27 4 27-40v-127H5v-23h24l9-43h21v43h35v23H59v120" id="C"/><path fill="#19967d" d="M179-190L93 31C79 59 56 82 12 73V49c39 6 53-20 64-50L1-190h34L92-34l54-156h33" id="D"/><g id="h"><use transform="matrix(0.06172839506172839,0,0,0.06172839506172839,0,0)" xlink:href="#u"/><use transform="matrix(0.06172839506172839,0,0,0.06172839506172839,11.11111111111111,0)" xlink:href="#v"/><use transform="matrix(0.06172839506172839,0,0,0.06172839506172839,15.987654320987653,0)" xlink:href="#y"/><use transform="matrix(0.06172839506172839,0,0,0.06172839506172839,34.44444444444444,0)" xlink:href="#v"/><use transform="matrix(0.06172839506172839,0,0,0.06172839506172839,39.32098765432099,0)" xlink:href="#z"/><use transform="matrix(0.06172839506172839,0,0,0.06172839506172839,44.19753086419753,0)" xlink:href="#A"/><use transform="matrix(0.06172839506172839,0,0,0.06172839506172839,56.54320987654321,0)" xlink:href="#B"/><use transform="matrix(0.06172839506172839,0,0,0.06172839506172839,63.888888888888886,0)" xlink:href="#v"/><use transform="matrix(0.06172839506172839,0,0,0.06172839506172839,68.76543209876543,0)" xlink:href="#C"/><use transform="matrix(0.06172839506172839,0,0,0.06172839506172839,74.93827160493827,0)" xlink:href="#D"/></g></defs></g></svg>