<svg xmlns="http://www.w3.org/2000/svg" xmlns:xlink="http://www.w3.org/1999/xlink" xmlns:lucid="lucid" width="879.03" height="590"><g transform="translate(-40 -140)" lucid:page-tab-id="0_0"><path d="M260 160h240v60H260z" fill="none"/><use xlink:href="#a" transform="matrix(1,0,0,1,260,160) translate(30.03086419753086 34.44444444444444)"/><use xlink:href="#b" transform="matrix(1,0,0,1,260,160) translate(101.57407407407406 34.44444444444444)"/><path d="M60 250h240v60H60z" fill="none"/><use xlink:href="#c" transform="matrix(1,0,0,1,60,250) translate(116.91358024691358 34.44444444444444)"/><path d="M360 280c0 22.1-17.9 40-40 40s-40-17.9-40-40 17.9-40 40-40 40 17.9 40 40z" stroke="#5e5e5e" stroke-width="3" fill="#333"/><use xlink:href="#d" transform="matrix(1,0,0,1,285,245) translate(27.592592592592595 39.65277777777778)"/><path d="M360 661.42c0 22.1-17.9 40-40 40s-40-17.9-40-40 17.9-40 40-40 40 17.9 40 40z" stroke="#5e5e5e" stroke-width="3" fill="#fff"/><use xlink:href="#e" transform="matrix(1,0,0,1,285,626.4173228346456) translate(27.006172839506174 39.65277777777778)"/><path d="M360 460c0 22.1-17.9 40-40 40s-40-17.9-40-40 17.9-40 40-40 40 17.9 40 40z" stroke="#5e5e5e" stroke-width="3" fill="#fff"/><use xlink:href="#f" transform="matrix(1,0,0,1,285,425) translate(27.592592592592595 39.65277777777778)"/><path d="M360 560c0 22.1-17.9 40-40 40s-40-17.9-40-40 17.9-40 40-40 40 17.9 40 40z" stroke="#5e5e5e" stroke-width="3" fill="#fff"/><use xlink:href="#g" transform="matrix(1,0,0,1,285,525) translate(27.592592592592595 39.65277777777778)"/><path d="M460 280c0 22.1-17.9 40-40 40s-40-17.9-40-40 17.9-40 40-40 40 17.9 40 40z" stroke="#5e5e5e" stroke-width="3" fill="#333"/><use xlink:href="#h" transform="matrix(1,0,0,1,385,245) translate(25.49382716049383 39.65277777777778)"/><path d="M460 661.42c0 22.1-17.9 40-40 40s-40-17.9-40-40 17.9-40 40-40 40 17.9 40 40z" stroke="#5e5e5e" stroke-width="3" fill="#fff"/><use xlink:href="#i" transform="matrix(1,0,0,1,385,626.4173228346456) translate(27.592592592592595 39.65277777777778)"/><path d="M460 460c0 22.1-17.9 40-40 40s-40-17.9-40-40 17.9-40 40-40 40 17.9 40 40z" stroke="#5e5e5e" stroke-width="3" fill="#fff"/><use xlink:href="#g" transform="matrix(1,0,0,1,385,425) translate(27.592592592592595 39.65277777777778)"/><path d="M460 560c0 22.1-17.9 40-40 40s-40-17.9-40-40 17.9-40 40-40 40 17.9 40 40z" stroke="#5e5e5e" stroke-width="3" fill="#fff"/><use xlink:href="#j" transform="matrix(1,0,0,1,385,525) translate(27.006172839506174 39.65277777777778)"/><path d="M561.5 240.75c.4 0 .75.34.75.75v467c0 .4-.34.75-.75.75-.4 0-.75-.34-.75-.75v-467c0-.4.34-.75.75-.75z" stroke="#5e5e5e" stroke-width="1.5" fill="none"/><path d="M738.9 280c0 22.1-17.9 40-40 40-22.08 0-40-17.9-40-40s17.92-40 40-40c22.1 0 40 17.9 40 40z" stroke="#5e5e5e" stroke-width="3" fill="#333"/><use xlink:href="#d" transform="matrix(1,0,0,1,663.9109142622287,245) translate(27.592592592592595 39.65277777777778)"/><path d="M738.9 661.42c0 22.1-17.9 40-40 40-22.08 0-40-17.9-40-40s17.92-40 40-40c22.1 0 40 17.9 40 40z" stroke="#5e5e5e" stroke-width="3" fill="#fff"/><use xlink:href="#e" transform="matrix(1,0,0,1,663.9109142622287,626.4173228346456) translate(27.006172839506174 39.65277777777778)"/><path d="M738.9 460c0 22.1-17.9 40-40 40-22.08 0-40-17.9-40-40s17.92-40 40-40c22.1 0 40 17.9 40 40z" stroke="#5e5e5e" stroke-width="3" fill="#fff"/><use xlink:href="#f" transform="matrix(1,0,0,1,663.9109142622287,425) translate(27.592592592592595 39.65277777777778)"/><path d="M738.9 560c0 22.1-17.9 40-40 40-22.08 0-40-17.9-40-40s17.92-40 40-40c22.1 0 40 17.9 40 40z" stroke="#5e5e5e" stroke-width="3" fill="#fff"/><use xlink:href="#g" transform="matrix(1,0,0,1,663.9109142622287,525) translate(27.592592592592595 39.65277777777778)"/><path d="M838.9 280c0 22.1-17.9 40-40 40-22.08 0-40-17.9-40-40s17.92-40 40-40c22.1 0 40 17.9 40 40z" stroke="#5e5e5e" stroke-width="3" fill="#333"/><use xlink:href="#h" transform="matrix(1,0,0,1,763.9109142622287,245) translate(25.49382716049383 39.65277777777778)"/><path d="M838.9 661.42c0 22.1-17.9 40-40 40-22.08 0-40-17.9-40-40s17.92-40 40-40c22.1 0 40 17.9 40 40z" stroke="#5e5e5e" stroke-width="3" fill="#fff"/><use xlink:href="#i" transform="matrix(1,0,0,1,763.9109142622287,626.4173228346456) translate(27.592592592592595 39.65277777777778)"/><path d="M838.9 460c0 22.1-17.9 40-40 40-22.08 0-40-17.9-40-40s17.92-40 40-40c22.1 0 40 17.9 40 40z" stroke="#5e5e5e" stroke-width="3" fill="#fff"/><use xlink:href="#g" transform="matrix(1,0,0,1,763.9109142622287,425) translate(27.592592592592595 39.65277777777778)"/><path d="M838.9 560c0 22.1-17.9 40-40 40-22.08 0-40-17.9-40-40s17.92-40 40-40c22.1 0 40 17.9 40 40z" stroke="#5e5e5e" stroke-width="3" fill="#fff"/><use xlink:href="#j" transform="matrix(1,0,0,1,763.9109142622287,525) translate(27.006172839506174 39.65277777777778)"/><path d="M620 160h240v60H620z" fill="none"/><use xlink:href="#k" transform="matrix(1,0,0,1,620,160) translate(39.29012345679011 34.44444444444444)"/><use xlink:href="#b" transform="matrix(1,0,0,1,620,160) translate(92.31481481481481 34.44444444444444)"/><path d="M60 430h240v60H60z" fill="none"/><use xlink:href="#l" transform="matrix(1,0,0,1,60,430) translate(107.68518518518519 34.44444444444444)"/><path d="M60 631.42h240v60H60z" fill="none"/><use xlink:href="#m" transform="matrix(1,0,0,1,60,631.4173228346456) translate(97.8395061728395 34.44444444444444)"/><path d="M60 530.7h240v60H60z" fill="none"/><use xlink:href="#n" transform="matrix(1,0,0,1,60,530.7086614173228) translate(97.8395061728395 34.44444444444444)"/><path d="M320 417.5V340" stroke="#5e5e5e" stroke-width="2" fill="none"/><path d="M321 418.56l-.98-.06-1.02.03v-1.06h2" fill="#5e5e5e"/><path d="M320 324.74l4.64 14.26h-9.28z" stroke="#5e5e5e" stroke-width="2" fill="#5e5e5e"/><path d="M420 417.5V340" stroke="#5e5e5e" stroke-width="2" fill="none"/><path d="M421 418.56l-.98-.06-1.02.03v-1.06h2" fill="#5e5e5e"/><path d="M420 324.74l4.64 14.26h-9.28z" stroke="#5e5e5e" stroke-width="2" fill="#5e5e5e"/><path d="M462.5 559.98l2.8-.06 3.2-.2 2.7-.28 2.35-.35 2.04-.4 1.8-.4 1.58-.46 1.43-.46 1.3-.48 1.15-.5 1.06-.48.98-.5.9-.52.8-.53.78-.53.7-.54.68-.55.62-.56.6-.6.54-.57.52-.6.5-.63.46-.64.44-.67.42-.7.4-.72.37-.75.36-.8.33-.82.3-.87.28-.94.25-1 .23-1.08.2-1.16.16-1.26.1-1.38.08-1.52v-1.68l-.1-1.9-.17-2.14-.3-2.46-.5-2.87-.72-3.4-1.06-4.14-1.57-5.17-2.37-6.8-3.86-9.7-7.58-16.9-38.42-80.76-6.1-15.35-4.14-11.84-2.93-9.7-2.12-8.23-1.52-7.13-.92-5.4" stroke="#5e5e5e" stroke-width="2" fill="none"/><path d="M462.55 560.98l-1.1.02.05-.98-.03-1.02 1.04-.02" fill="#5e5e5e"/><path d="M420.26 324.73l5.8 13.83-9.25.76z" stroke="#5e5e5e" stroke-width="2" fill="#5e5e5e"/><path d="M277.5 559.98h-.7l-1.5-.1-1.4-.16-1.28-.18-1.17-.23-1.1-.24-1-.3-.96-.3-.9-.33-.84-.35-.8-.37-.75-.4-.7-.4-.7-.44-.66-.46-.63-.48-.6-.5-.6-.54-.56-.56-.56-.58-.53-.63-.52-.64-.5-.7-.5-.74-.48-.8-.47-.85-.45-.9-.44-1-.43-1.06-.4-1.16-.4-1.27-.35-1.4-.33-1.55-.3-1.72-.25-1.94-.18-2.18-.1-2.5v-2.85l.14-3.32.34-3.9.6-4.62.94-5.57 1.45-6.8 2.18-8.47 3.26-10.7 4.8-13.8 7.16-18 10.42-23.34.6-1.27L309.78 379l2.46-6.34 1.85-5.45 1.5-5.16 1.24-5.24 1.05-5.6.88-6.28.46-4.94" stroke="#5e5e5e" stroke-width="2" fill="none"/><path d="M278.56 559l-.06.98.03 1.02-1.08-.02.04-2" fill="#5e5e5e"/><path d="M319.87 324.73l4.04 14.45-9.25-.38z" stroke="#5e5e5e" stroke-width="2" fill="#5e5e5e"/><path d="M462.5 661.4l2.07-.05 2.9-.18 2.78-.3 2.64-.38 2.52-.5 2.44-.56 2.35-.66 2.28-.74 2.2-.8 2.13-.9 2.1-1 2.02-1.05 2-1.16 1.93-1.23 1.9-1.32 1.9-1.42 1.83-1.53 1.83-1.65 1.8-1.76 1.78-1.9 1.76-2.02 1.73-2.2 1.7-2.34 1.7-2.54 1.66-2.74 1.62-2.97 1.6-3.2 1.54-3.47 1.48-3.76 1.42-4.1 1.34-4.4 1.23-4.8 1.1-5.2.94-5.6.77-6.02.54-6.44.3-6.84v-7.22l-.32-7.54-.66-7.8-1-7.93-1.35-8-1.7-7.94-2-7.78-2.26-7.52-2.5-7.2-1.83-4.73-2.97-6.9-3.52-7.3-4.25-7.98-5.3-9-7.08-10.94-11.83-16.65-32.14-43.6-6.16-9.5-4.45-7.56-3.47-6.5-2.8-5.82-2.3-5.36-1.92-5.03-1.6-4.78-1.32-4.6-1.1-4.48-.8-4.1" stroke="#5e5e5e" stroke-width="2" fill="none"/><path d="M462.55 662.4l-1.1.02.05-.98-.03-1.02 1.04-.02" fill="#5e5e5e"/><path d="M420.3 324.72l5.88 13.8-9.23.83z" stroke="#5e5e5e" stroke-width="2" fill="#5e5e5e"/><path d="M277.5 661.4l-1.82-.04-2.66-.17-2.53-.27-2.4-.36-2.3-.44-2.2-.5-2.12-.6-2.03-.66-1.98-.74-1.9-.8-1.87-.87-1.8-.95-1.78-1-1.73-1.1-1.7-1.2-1.68-1.26-1.65-1.37-1.62-1.46-1.6-1.56-1.6-1.7-1.57-1.82-1.56-1.96-1.54-2.13-1.53-2.3-1.5-2.5-1.5-2.7-1.47-2.96-1.43-3.23-1.4-3.54-1.35-3.87-1.28-4.26-1.2-4.68-1.1-5.16-.95-5.66-.78-6.2-.58-6.8-.3-7.4v-7.98l.35-8.53.76-9 1.18-9.3 1.6-9.47 2-9.44 2.37-9.2 2.65-8.76 2.86-8.2 2.05-5.3 3.24-7.53 3.77-7.83 4.46-8.37 5.5-9.32 7.36-11.38 16.2-22.65 18.8-26.1 6.12-9.46 4.32-7.32 3.35-6.28 2.7-5.64 2.27-5.24 1.9-4.97 1.6-4.77 1.33-4.66 1.12-4.6.9-4.57.22-1.38" stroke="#5e5e5e" stroke-width="2" fill="none"/><path d="M278.56 660.42l-.06.98.03 1.02-1.08-.02.04-2" fill="#5e5e5e"/><path d="M319.74 324.73l3.45 14.6-9.25-.76z" stroke="#5e5e5e" stroke-width="2" fill="#5e5e5e"/><path d="M698.94 417.5v-.73l.14-1.65.2-1.6.27-1.54.35-1.52.42-1.5.5-1.46.57-1.46.65-1.47.76-1.47.88-1.5 1-1.53 1.13-1.57 1.3-1.63 1.53-1.7 1.77-1.8 2.1-1.95 2.53-2.12 3.14-2.36 4.04-2.73 5.62-3.38 9.55-5.13L770 359.17l5.6-3.4 4.05-2.72 3.14-2.36 2.52-2.12 2.1-1.94 1.78-1.8 1.5-1.7 1.3-1.64 1.15-1.57.6-.93" stroke="#5e5e5e" stroke-width="2" fill="none"/><path d="M699.94 417.5l-.03 1.06-.97-.06-1.02.03.04-1.08" fill="#5e5e5e"/><path d="M798 324.6l.4 15-8.88-2.62z" stroke="#5e5e5e" stroke-width="2" fill="#5e5e5e"/><path d="M798.9 417.5l-.05-1.36-.17-2.2-.27-2.06-.34-1.95-.44-1.86-.52-1.78-.6-1.73-.67-1.67-.77-1.63-.85-1.6-.95-1.6-1.08-1.6-1.2-1.6-1.36-1.64-1.53-1.66-1.78-1.73-2.06-1.8-2.43-1.93-2.94-2.08-3.7-2.35-5-2.8-8.04-4-30.7-14.18-5.1-2.88-3.78-2.4-3-2.15-2.5-1.97-2.13-1.86-1.82-1.78-1.6-1.73-1.4-1.7-1.26-1.66-1.12-1.66-1-1.65-.08-.16" stroke="#5e5e5e" stroke-width="2" fill="none"/><path d="M799.9 418.56l-.97-.06-1.02.03v-1.03l1.98-.05" fill="#5e5e5e"/><path d="M702.66 324.52l8.2 12.55-8.93 2.43z" stroke="#5e5e5e" stroke-width="2" fill="#5e5e5e"/><path d="M656.4 559.98h-.53l-1.46-.1-1.37-.15-1.33-.2-1.26-.24-1.22-.3-1.18-.32-1.13-.37-1.1-.4-1.07-.45-1.04-.5-1.03-.53-1-.57-1-.63-.96-.67-.94-.73-.94-.78-.94-.84-.93-.9-.92-.98-.9-1.06-.92-1.15-.9-1.24-.9-1.35-.9-1.47-.88-1.62-.88-1.76-.86-1.95-.85-2.16-.83-2.37-.8-2.64-.74-2.92-.7-3.25-.6-3.62-.5-4.05-.4-4.5-.2-5v-5.53l.26-6.07.56-6.6.9-7.06 1.25-7.46 1.65-7.72 2-7.82 2.35-7.76 2.62-7.54 2.84-7.18 3-6.72 3.07-6.2 3.12-5.7 3.1-5.13 3.07-4.64 3.02-4.15 2.93-3.7 2.85-3.3 2.78-2.97 2.68-2.63.33-.3 2.7-2.4 2.8-2.3 2.95-2.2 3.1-2.15 3.3-2.07 3.55-2.02 3.8-1.96 4.16-1.93 4.58-1.9 5.17-1.88 5.96-1.9 7.24-1.98 9.9-2.25 39.3-7.62 4.65-1.27 3.5-1.1 2.8-1.03 2.34-.97 2-.93 1.75-.9 1.55-.88 1.38-.86 1.24-.84 1.13-.85 1.04-.84.95-.85.88-.85.82-.86.76-.9.72-.9.68-.9.63-.95.58-.97.25-.44" stroke="#5e5e5e" stroke-width="2" fill="none"/><path d="M657.47 559l-.06.98.05 1.02-1.1-.02.05-2" fill="#5e5e5e"/><path d="M798.2 324.66l1.33 14.94-9.04-2.07z" stroke="#5e5e5e" stroke-width="2" fill="#5e5e5e"/><path d="M841.4 559.98h.55l1.45-.1 1.38-.15 1.32-.2 1.26-.23 1.2-.3 1.17-.3 1.12-.37 1.1-.4 1.04-.45 1.02-.5 1-.5.98-.58.97-.6.94-.67.95-.7.92-.77.9-.82.9-.88.9-.95.9-1.02.88-1.12.87-1.2.88-1.32.86-1.43.86-1.55.85-1.7.83-1.9.82-2.06.8-2.3.76-2.54.73-2.8.67-3.15.6-3.5.48-3.9.37-4.35.2-4.85v-5.38l-.25-5.94-.55-6.5-.9-7-1.25-7.43-1.65-7.77-2.04-7.92-2.4-7.9-2.68-7.74-2.93-7.4-3.1-6.95-3.18-6.43-3.23-5.87-3.22-5.3-3.17-4.8-3.1-4.27-3.03-3.8-2.92-3.4-2.83-3-2.74-2.7-.33-.3-2.73-2.43-2.84-2.33-2.98-2.24-3.15-2.16-3.33-2.1-3.55-2-3.82-1.98-4.16-1.93-4.6-1.9-5.14-1.9-5.96-1.88-7.26-1.98-10-2.28-37.26-7.3-4.64-1.27-3.48-1.1-2.8-1.03-2.3-.96-2-.92-1.73-.9-1.54-.86-1.37-.86-1.24-.85-1.13-.84-1.03-.84-.95-.84-.88-.86-.82-.86-.76-.87-.73-.9-.67-.9-.63-.96-.6-.97-.35-.64" stroke="#5e5e5e" stroke-width="2" fill="none"/><path d="M841.46 560.98l-1.1.02.05-.98-.02-1.02 1.04-.02" fill="#5e5e5e"/><path d="M699.62 324.66l7.64 12.9-9.04 2.03z" stroke="#5e5e5e" stroke-width="2" fill="#5e5e5e"/><path d="M841.4 661.4l2.03-.05 2.88-.18 2.75-.28 2.62-.4 2.52-.48 2.42-.57 2.35-.66 2.27-.74 2.2-.82 2.15-.9 2.08-1 2.05-1.06 2-1.16 1.97-1.25 1.94-1.34 1.9-1.45 1.9-1.56 1.85-1.67 1.82-1.8 1.82-1.94 1.8-2.07 1.78-2.24 1.75-2.43 1.74-2.62 1.72-2.82 1.68-3.06 1.64-3.3 1.6-3.6 1.54-3.9 1.47-4.2 1.38-4.6 1.27-4.94 1.13-5.36.98-5.76.8-6.18.54-6.6.3-6.98v-7.33l-.33-7.6-.65-7.8-1-7.94-1.34-7.92-1.65-7.82-1.96-7.62-2.22-7.33-2.43-6.98-1.78-4.6-2.86-6.65-3.37-7-4.03-7.58-4.96-8.43-6.44-9.94-9.63-13.57-38.6-51.38-5.52-8.53-4.12-6.98-3.25-6.1-2.65-5.52-2.2-5.1-1.84-4.82-1.54-4.6-1.28-4.45-1.06-4.33-.72-3.62" stroke="#5e5e5e" stroke-width="2" fill="none"/><path d="M841.46 662.4l-1.1.02.05-.98-.02-1.02 1.04-.02" fill="#5e5e5e"/><path d="M799.2 324.72l5.93 13.8-9.23.83z" stroke="#5e5e5e" stroke-width="2" fill="#5e5e5e"/><path d="M656.4 661.4l-1.8-.04-2.7-.17-2.62-.3-2.53-.36-2.47-.47-2.4-.56-2.35-.65-2.3-.75-2.26-.84-2.23-.93-2.2-1.04-2.17-1.14-2.15-1.25-2.13-1.34-2.13-1.47-2.1-1.62-2.1-1.74-2.1-1.9-2.1-2.04-2.1-2.22-2.08-2.42-2.1-2.63-2.07-2.86-2.06-3.1-2.05-3.4-2.02-3.67-2-4-1.92-4.34-1.87-4.72-1.76-5.1-1.66-5.5-1.52-5.92-1.34-6.32-1.13-6.7-.9-7.05-.62-7.33-.3-7.56v-7.7l.3-7.7.66-7.68.94-7.5 1.24-7.3 1.48-6.98 1.7-6.64 1.9-6.27 2.04-5.88 1.48-3.82 2.25-5.23 2.55-5.3 2.9-5.42 3.3-5.65 3.87-5.97 4.58-6.48 5.68-7.35 7.66-9.1 15.88-17.2 22.32-23.86 6.6-7.83 4.7-6.05 3.64-5.16 2.98-4.63 2.5-4.24 2.12-3.98 1.83-3.8 1.57-3.67 1.36-3.57 1.17-3.5 1-3.48.85-3.48.1-.47" stroke="#5e5e5e" stroke-width="2" fill="none"/><path d="M657.47 660.42l-.06.98.05 1.02-1.1-.02.05-2" fill="#5e5e5e"/><path d="M698.84 329.92l3.1 14.67-9.2-.98z" stroke="#5e5e5e" stroke-width="2" fill="#5e5e5e"/><defs><path fill="#333" d="M160-131c35 5 61 23 61 61C221 17 115-2 30 0v-248c76 3 177-17 177 60 0 33-19 50-47 57zm-97-11c50-1 110 9 110-42 0-47-63-36-110-37v79zm0 115c55-2 124 14 124-45 0-56-70-42-124-44v89" id="o"/><path fill="#333" d="M100-194c63 0 86 42 84 106H49c0 40 14 67 53 68 26 1 43-12 49-29l28 8c-11 28-37 45-77 45C44 4 14-33 15-96c1-61 26-98 85-98zm52 81c6-60-76-77-97-28-3 7-6 17-6 28h103" id="p"/><path fill="#333" d="M101-234c-31-9-42 10-38 44h38v23H63V0H32v-167H5v-23h27c-7-52 17-82 69-68v24" id="q"/><path fill="#333" d="M100-194c62-1 85 37 85 99 1 63-27 99-86 99S16-35 15-95c0-66 28-99 85-99zM99-20c44 1 53-31 53-75 0-43-8-75-51-75s-53 32-53 75 10 74 51 75" id="r"/><path fill="#333" d="M114-163C36-179 61-72 57 0H25l-1-190h30c1 12-1 29 2 39 6-27 23-49 58-41v29" id="s"/><g id="a"><use transform="matrix(0.06172839506172839,0,0,0.06172839506172839,0,0)" xlink:href="#o"/><use transform="matrix(0.06172839506172839,0,0,0.06172839506172839,14.814814814814813,0)" xlink:href="#p"/><use transform="matrix(0.06172839506172839,0,0,0.06172839506172839,27.160493827160494,0)" xlink:href="#q"/><use transform="matrix(0.06172839506172839,0,0,0.06172839506172839,33.333333333333336,0)" xlink:href="#r"/><use transform="matrix(0.06172839506172839,0,0,0.06172839506172839,45.67901234567901,0)" xlink:href="#s"/><use transform="matrix(0.06172839506172839,0,0,0.06172839506172839,53.02469135802469,0)" xlink:href="#p"/></g><path fill="#333" d="M135-143c-3-34-86-38-87 0 15 53 115 12 119 90S17 21 10-45l28-5c4 36 97 45 98 0-10-56-113-15-118-90-4-57 82-63 122-42 12 7 21 19 24 35" id="t"/><path fill="#333" d="M141-36C126-15 110 5 73 4 37 3 15-17 15-53c-1-64 63-63 125-63 3-35-9-54-41-54-24 1-41 7-42 31l-33-3c5-37 33-52 76-52 45 0 72 20 72 64v82c-1 20 7 32 28 27v20c-31 9-61-2-59-35zM48-53c0 20 12 33 32 33 41-3 63-29 60-74-43 2-92-5-92 41" id="u"/><path fill="#333" d="M210-169c-67 3-38 105-44 169h-31v-121c0-29-5-50-35-48C34-165 62-65 56 0H25l-1-190h30c1 10-1 24 2 32 10-44 99-50 107 0 11-21 27-35 58-36 85-2 47 119 55 194h-31v-121c0-29-5-49-35-48" id="v"/><path fill="#333" d="M115-194c55 1 70 41 70 98S169 2 115 4C84 4 66-9 55-30l1 105H24l-1-265h31l2 30c10-21 28-34 59-34zm-8 174c40 0 45-34 45-75s-6-73-45-74c-42 0-51 32-51 76 0 43 10 73 51 73" id="w"/><path fill="#333" d="M24 0v-261h32V0H24" id="x"/><path fill="#333" d="M24-231v-30h32v30H24zM24 0v-190h32V0H24" id="y"/><path fill="#333" d="M117-194c89-4 53 116 60 194h-32v-121c0-31-8-49-39-48C34-167 62-67 57 0H25l-1-190h30c1 10-1 24 2 32 11-22 29-35 61-36" id="z"/><path fill="#333" d="M177-190C167-65 218 103 67 71c-23-6-38-20-44-43l32-5c15 47 100 32 89-28v-30C133-14 115 1 83 1 29 1 15-40 15-95c0-56 16-97 71-98 29-1 48 16 59 35 1-10 0-23 2-32h30zM94-22c36 0 50-32 50-73 0-42-14-75-50-75-39 0-46 34-46 75s6 73 46 73" id="A"/><g id="b"><use transform="matrix(0.06172839506172839,0,0,0.06172839506172839,0,0)" xlink:href="#s"/><use transform="matrix(0.06172839506172839,0,0,0.06172839506172839,7.345679012345679,0)" xlink:href="#p"/><use transform="matrix(0.06172839506172839,0,0,0.06172839506172839,19.691358024691358,0)" xlink:href="#t"/><use transform="matrix(0.06172839506172839,0,0,0.06172839506172839,30.80246913580247,0)" xlink:href="#u"/><use transform="matrix(0.06172839506172839,0,0,0.06172839506172839,43.148148148148145,0)" xlink:href="#v"/><use transform="matrix(0.06172839506172839,0,0,0.06172839506172839,61.60493827160494,0)" xlink:href="#w"/><use transform="matrix(0.06172839506172839,0,0,0.06172839506172839,73.95061728395062,0)" xlink:href="#x"/><use transform="matrix(0.06172839506172839,0,0,0.06172839506172839,78.82716049382717,0)" xlink:href="#y"/><use transform="matrix(0.06172839506172839,0,0,0.06172839506172839,83.70370370370371,0)" xlink:href="#z"/><use transform="matrix(0.06172839506172839,0,0,0.06172839506172839,96.0493827160494,0)" xlink:href="#A"/></g><path fill="#333" d="M59-47c-2 24 18 29 38 22v24C64 9 27 4 27-40v-127H5v-23h24l9-43h21v43h35v23H59v120" id="B"/><use transform="matrix(0.06172839506172839,0,0,0.06172839506172839,0,0)" xlink:href="#B" id="c"/><path fill="#fff" d="M30-248c87 1 191-15 191 75 0 78-77 80-158 76V0H30v-248zm33 125c57 0 124 11 124-50 0-59-68-47-124-48v98" id="C"/><use transform="matrix(0.06172839506172839,0,0,0.06172839506172839,0,0)" xlink:href="#C" id="d"/><path fill="#333" d="M30-248c118-7 216 8 213 122C240-48 200 0 122 0H30v-248zM63-27c89 8 146-16 146-99s-60-101-146-95v194" id="D"/><use transform="matrix(0.06172839506172839,0,0,0.06172839506172839,0,0)" xlink:href="#D" id="e"/><path fill="#333" d="M205 0l-28-72H64L36 0H1l101-248h38L239 0h-34zm-38-99l-47-123c-12 45-31 82-46 123h93" id="E"/><use transform="matrix(0.06172839506172839,0,0,0.06172839506172839,0,0)" xlink:href="#E" id="f"/><use transform="matrix(0.06172839506172839,0,0,0.06172839506172839,0,0)" xlink:href="#o" id="g"/><path fill="#fff" d="M47-170H22l-4-78h33" id="F"/><g id="h"><use transform="matrix(0.06172839506172839,0,0,0.06172839506172839,0,0)" xlink:href="#C"/><use transform="matrix(0.06172839506172839,0,0,0.06172839506172839,14.814814814814813,0)" xlink:href="#F"/></g><path fill="#333" d="M30 0v-248h187v28H63v79h144v27H63v87h162V0H30" id="G"/><use transform="matrix(0.06172839506172839,0,0,0.06172839506172839,0,0)" xlink:href="#G" id="i"/><path fill="#333" d="M212-179c-10-28-35-45-73-45-59 0-87 40-87 99 0 60 29 101 89 101 43 0 62-24 78-52l27 14C228-24 195 4 139 4 59 4 22-46 18-125c-6-104 99-153 187-111 19 9 31 26 39 46" id="H"/><use transform="matrix(0.06172839506172839,0,0,0.06172839506172839,0,0)" xlink:href="#H" id="j"/><g id="k"><use transform="matrix(0.06172839506172839,0,0,0.06172839506172839,0,0)" xlink:href="#E"/><use transform="matrix(0.06172839506172839,0,0,0.06172839506172839,14.814814814814813,0)" xlink:href="#q"/><use transform="matrix(0.06172839506172839,0,0,0.06172839506172839,20.98765432098765,0)" xlink:href="#B"/><use transform="matrix(0.06172839506172839,0,0,0.06172839506172839,27.16049382716049,0)" xlink:href="#p"/><use transform="matrix(0.06172839506172839,0,0,0.06172839506172839,39.50617283950617,0)" xlink:href="#s"/></g><path fill="#333" d="M16-82v-28h88v28H16" id="I"/><path fill="#333" d="M179-190L93 31C79 59 56 82 12 73V49c39 6 53-20 64-50L1-190h34L92-34l54-156h33" id="J"/><g id="l"><use transform="matrix(0.06172839506172839,0,0,0.06172839506172839,0,0)" xlink:href="#B"/><use transform="matrix(0.06172839506172839,0,0,0.06172839506172839,6.172839506172839,0)" xlink:href="#I"/><use transform="matrix(0.06172839506172839,0,0,0.06172839506172839,13.518518518518519,0)" xlink:href="#J"/></g><path fill="#333" d="M101-251c82-7 93 87 43 132L82-64C71-53 59-42 53-27h129V0H18c2-99 128-94 128-182 0-28-16-43-45-43s-46 15-49 41l-32-3c6-41 34-60 81-64" id="K"/><g id="m"><use transform="matrix(0.06172839506172839,0,0,0.06172839506172839,0,0)" xlink:href="#B"/><use transform="matrix(0.06172839506172839,0,0,0.06172839506172839,6.172839506172839,0)" xlink:href="#I"/><use transform="matrix(0.06172839506172839,0,0,0.06172839506172839,13.518518518518519,0)" xlink:href="#J"/><use transform="matrix(0.06172839506172839,0,0,0.06172839506172839,24.62962962962963,0)" xlink:href="#I"/><use transform="matrix(0.06172839506172839,0,0,0.06172839506172839,31.975308641975307,0)" xlink:href="#K"/></g><path fill="#333" d="M27 0v-27h64v-190l-56 39v-29l58-41h29v221h61V0H27" id="L"/><g id="n"><use transform="matrix(0.06172839506172839,0,0,0.06172839506172839,0,0)" xlink:href="#B"/><use transform="matrix(0.06172839506172839,0,0,0.06172839506172839,6.172839506172839,0)" xlink:href="#I"/><use transform="matrix(0.06172839506172839,0,0,0.06172839506172839,13.518518518518519,0)" xlink:href="#J"/><use transform="matrix(0.06172839506172839,0,0,0.06172839506172839,24.62962962962963,0)" xlink:href="#I"/><use transform="matrix(0.06172839506172839,0,0,0.06172839506172839,31.975308641975307,0)" xlink:href="#L"/></g></defs></g></svg>