<svg xmlns="http://www.w3.org/2000/svg" xmlns:xlink="http://www.w3.org/1999/xlink" xmlns:lucid="lucid" width="320" height="397"><g transform="translate(-660 -320)" lucid:page-tab-id="0_0"><path d="M860 380c0 22.1-17.9 40-40 40s-40-17.9-40-40 17.9-40 40-40 40 17.9 40 40z" stroke="#5e5e5e" stroke-width="3" fill="#333"/><use xlink:href="#a" transform="matrix(1,0,0,1,785,345) translate(20.833333333333336 39.65277777777778)"/><path d="M760 500c0 22.1-17.9 40-40 40s-40-17.9-40-40 17.9-40 40-40 40 17.9 40 40z" stroke="#5e5e5e" stroke-width="3" fill="#fff"/><use xlink:href="#b" transform="matrix(1,0,0,1,685,465) translate(27.592592592592595 39.65277777777778)"/><path d="M960 500c0 22.1-17.9 40-40 40s-40-17.9-40-40 17.9-40 40-40 40 17.9 40 40z" stroke="#5e5e5e" stroke-width="3" fill="#fff"/><use xlink:href="#c" transform="matrix(1,0,0,1,885,465) translate(27.006172839506174 39.65277777777778)"/><path d="M860 500c0 22.1-17.9 40-40 40s-40-17.9-40-40 17.9-40 40-40 40 17.9 40 40z" stroke="#5e5e5e" stroke-width="3" fill="#fff"/><use xlink:href="#d" transform="matrix(1,0,0,1,785,465) translate(27.592592592592595 39.65277777777778)"/><path d="M720.1 457.5l.06-.25.07-.25.08-.26.12-.26.12-.26.14-.27.16-.28.2-.3.2-.3.27-.33.3-.34.37-.37.43-.4.52-.42.62-.46.78-.53.97-.58 1.23-.67 1.64-.78 2.23-.92 3.2-1.15 4.9-1.48 8.8-2.18 53.8-11.06 4.67-1.4" stroke="#5e5e5e" stroke-width="2" fill="none"/><path d="M721.03 457.5l-.03 1.06-.98-.06-1.02.03.03-1.08" fill="#5e5e5e"/><path d="M817.4 423.44l-8.66 12.24-5.54-7.43z" stroke="#5e5e5e" stroke-width="2" fill="#5e5e5e"/><path d="M820 457.5V440" stroke="#5e5e5e" stroke-width="2" fill="none"/><path d="M821 458.56l-.98-.06-1.02.03v-1.06h2" fill="#5e5e5e"/><path d="M820 424.74l4.64 14.26h-9.28z" stroke="#5e5e5e" stroke-width="2" fill="#5e5e5e"/><path d="M919.9 457.5l-.06-.25-.07-.25-.08-.26-.12-.26-.12-.26-.14-.27-.16-.28-.2-.3-.2-.3-.27-.33-.3-.34-.37-.37-.43-.4-.52-.42-.62-.46-.78-.53-.97-.58-1.23-.67-1.64-.78-2.23-.92-3.2-1.15-4.9-1.48-8.8-2.18-53.8-11.06-4.67-1.4" stroke="#5e5e5e" stroke-width="2" fill="none"/><path d="M921 458.56l-.98-.06-1.02.03-.03-1.03 2-.05" fill="#5e5e5e"/><path d="M822.6 423.44l14.2 4.8-5.54 7.44z" stroke="#5e5e5e" stroke-width="2" fill="#5e5e5e"/><path d="M720.02 542.5l.02.98.12 1.92.2 1.87.27 1.82.34 1.78.4 1.75.5 1.72.54 1.7.64 1.68.7 1.67.78 1.66.87 1.66.94 1.65 1.05 1.66 1.15 1.65 1.26 1.67 1.4 1.68 1.52 1.7 1.68 1.7 1.83 1.72 2.02 1.75 2.23 1.76 2.45 1.78 2.7 1.8 3 1.8 3.3 1.82 3.65 1.8 4.04 1.8 4.46 1.77 4.92 1.7 5.4 1.64 5.87 1.5 6.38 1.36 6.84 1.16 7.24.9 7.57.63 7.8.33h7.83l7.78-.33 7.58-.63 7.25-.92 6.84-1.15 6.37-1.36 5.88-1.5 5.4-1.63 4.9-1.7 4.47-1.77 4.02-1.8 3.66-1.8 3.3-1.83 3-1.8 2.7-1.8 2.45-1.8 2.22-1.75 2.02-1.75 1.84-1.73 1.68-1.7 1.52-1.7 1.4-1.67 1.26-1.67 1.15-1.66 1.06-1.65.95-1.66.88-1.64.75-1.6" stroke="#19967d" stroke-width="2" fill="none"/><path d="M719.98 541.5l1.02-.03.02 1.04-2 .05-.02-1.1" fill="#19967d"/><path d="M919.34 544.67l1.6 14.9-9.07-1.9z" stroke="#19967d" stroke-width="2" fill="#19967d"/><path d="M700 643c0-3.32 2.7-6 6-6h228c3.3 0 6 2.68 6 6v48c0 3.3-2.7 6-6 6H706c-3.3 0-6-2.7-6-6z" stroke="#000" stroke-opacity="0" stroke-width="3" fill="#fff" fill-opacity="0"/><path d="M919.98 542.5l-.02.98-.12 1.92-.2 1.87-.27 1.82-.34 1.78-.4 1.75-.5 1.72-.54 1.7-.64 1.68-.7 1.67-.78 1.66-.87 1.66-.94 1.65-1.05 1.66-1.15 1.65-1.26 1.67-1.4 1.68-1.52 1.7-1.68 1.7-1.83 1.72-2.02 1.75-2.23 1.76-2.45 1.78-2.7 1.8-3 1.8-3.3 1.82-3.65 1.8-4.04 1.8-4.46 1.77-4.92 1.7-5.4 1.64-5.87 1.5-6.38 1.36-6.84 1.16-7.24.9-7.57.63-7.8.33h-7.83l-7.78-.33-7.58-.63-7.25-.92-6.84-1.15-6.37-1.36-5.88-1.5-5.4-1.63-4.9-1.7-4.47-1.77-4.02-1.8-3.66-1.8-3.3-1.83-3-1.8-2.7-1.8-2.45-1.8-2.22-1.75-2.02-1.75-1.84-1.73-1.68-1.7-1.52-1.7-1.4-1.67-1.26-1.67-1.15-1.66-1.06-1.65-.95-1.66-.88-1.64-.75-1.6" stroke="#19967d" stroke-width="2" fill="none"/><path d="M919.98 541.5l1.02-.03-.02 1.08-2-.04.02-1.06" fill="#19967d"/><path d="M720.66 544.67l7.47 13-9.07 1.9z" stroke="#19967d" stroke-width="2" fill="#19967d"/><path d="M700 606c0-3.3 2.7-6 6-6h228c3.3 0 6 2.7 6 6v51.33c0 3.32-2.7 6-6 6H706c-3.3 0-6-2.68-6-6z" stroke="#000" stroke-opacity="0" stroke-width="3" fill="#fff" fill-opacity="0"/><use xlink:href="#e" transform="matrix(1,0,0,1,705,605) translate(77.43827160493828 31.27777777777778)"/><path d="M819.98 542.5v.18l-.1 1.14-.13 1.1-.2 1.07-.23 1.04-.3 1.02-.33 1.02-.4 1-.46 1-.5.98-.58.98-.64 1-.7.98-.8 1-.9 1-1 1.03-1.12 1.03-1.25 1.05-1.4 1.05-1.6 1.07-1.77 1.08-2 1.1-2.26 1.07-2.55 1.06-2.86 1.03-3.2.96-3.55.9-3.9.76-4.2.62-4.47.43-4.64.2h-4.68l-4.6-.26-4.44-.45-4.16-.65-3.84-.8-3.5-.9-3.14-.98-2.8-1.04-2.5-1.07-2.2-1.07-1.98-1.08-1.74-1.08-1.55-1.07-1.37-1.05-1.23-1.05-.98-.92" stroke="#19967d" stroke-width="2" fill="none"/><path d="M819.98 541.5l1.02-.03-.03 1.08-2-.05.03-1.06" fill="#19967d"/><path d="M721.3 544.47l9.97 11.2-8.5 3.72z" stroke="#19967d" stroke-width="2" fill="#19967d"/><path d="M820.02 542.5v.18l.1 1.14.13 1.1.2 1.07.23 1.04.3 1.02.33 1.02.4 1 .46 1 .5.98.58.98.64 1 .7.98.8 1 .9 1 1 1.03 1.12 1.03 1.25 1.05 1.4 1.05 1.6 1.07 1.77 1.08 2 1.1 2.26 1.07 2.55 1.06 2.86 1.03 3.2.96 3.55.9 3.9.76 4.2.62 4.47.43 4.64.2h4.68l4.6-.26 4.44-.45 4.16-.65 3.84-.8 3.5-.9 3.14-.98 2.8-1.04 2.5-1.07 2.2-1.07 1.98-1.08 1.74-1.08 1.55-1.07 1.37-1.05 1.23-1.05.98-.92" stroke="#19967d" stroke-width="2" fill="none"/><path d="M819.98 541.5l1.02-.03.03 1.03-2 .05-.03-1.1" fill="#19967d"/><path d="M918.7 544.47l-1.48 14.92-8.5-3.73z" stroke="#19967d" stroke-width="2" fill="#19967d"/><path d="M919.98 542.5v.18l-.1 1.14-.13 1.1-.2 1.07-.23 1.04-.3 1.02-.33 1.02-.4 1-.46 1-.5.98-.58.98-.64 1-.7.98-.8 1-.9 1-1 1.03-1.12 1.03-1.25 1.05-1.4 1.05-1.6 1.07-1.77 1.08-2 1.1-2.26 1.07-2.55 1.06-2.86 1.03-3.2.96-3.55.9-3.9.76-4.2.62-4.47.43-4.64.2h-4.68l-4.6-.26-4.44-.45-4.16-.65-3.84-.8-3.5-.9-3.14-.98-2.8-1.04-2.5-1.07-2.2-1.07-1.98-1.08-1.74-1.08-1.55-1.07-1.37-1.05-1.23-1.05-.98-.92" stroke="#19967d" stroke-width="2" fill="none"/><path d="M919.98 541.5l1.02-.03-.03 1.08-2-.05.03-1.06" fill="#19967d"/><path d="M821.3 544.47l9.97 11.2-8.5 3.72z" stroke="#19967d" stroke-width="2" fill="#19967d"/><path d="M720.02 542.5v.18l.1 1.14.13 1.1.2 1.07.23 1.04.3 1.02.33 1.02.4 1 .46 1 .5.98.58.98.64 1 .7.98.8 1 .9 1 1 1.03 1.12 1.03 1.25 1.05 1.4 1.05 1.6 1.07 1.77 1.08 2 1.1 2.26 1.07 2.55 1.06 2.86 1.03 3.2.96 3.55.9 3.9.76 4.2.62 4.47.43 4.64.2h4.68l4.6-.26 4.44-.45 4.16-.65 3.84-.8 3.5-.9 3.14-.98 2.8-1.04 2.5-1.07 2.2-1.07 1.98-1.08 1.74-1.08 1.55-1.07 1.37-1.05 1.23-1.05.98-.92" stroke="#19967d" stroke-width="2" fill="none"/><path d="M719.98 541.5l1.02-.03.03 1.03-2 .05-.03-1.1" fill="#19967d"/><path d="M818.7 544.47l-1.48 14.92-8.5-3.73z" stroke="#19967d" stroke-width="2" fill="#19967d"/><defs><path fill="#fff" d="M63-220v92h138v28H63V0H30v-248h175v28H63" id="f"/><path fill="#fff" d="M30-248c87 1 191-15 191 75 0 78-77 80-158 76V0H30v-248zm33 125c57 0 124 11 124-50 0-59-68-47-124-48v98" id="g"/><g id="a"><use transform="matrix(0.06172839506172839,0,0,0.06172839506172839,0,0)" xlink:href="#f"/><use transform="matrix(0.06172839506172839,0,0,0.06172839506172839,13.518518518518517,0)" xlink:href="#g"/></g><path fill="#333" d="M205 0l-28-72H64L36 0H1l101-248h38L239 0h-34zm-38-99l-47-123c-12 45-31 82-46 123h93" id="h"/><use transform="matrix(0.06172839506172839,0,0,0.06172839506172839,0,0)" xlink:href="#h" id="b"/><path fill="#333" d="M212-179c-10-28-35-45-73-45-59 0-87 40-87 99 0 60 29 101 89 101 43 0 62-24 78-52l27 14C228-24 195 4 139 4 59 4 22-46 18-125c-6-104 99-153 187-111 19 9 31 26 39 46" id="i"/><use transform="matrix(0.06172839506172839,0,0,0.06172839506172839,0,0)" xlink:href="#i" id="c"/><path fill="#333" d="M160-131c35 5 61 23 61 61C221 17 115-2 30 0v-248c76 3 177-17 177 60 0 33-19 50-47 57zm-97-11c50-1 110 9 110-42 0-47-63-36-110-37v79zm0 115c55-2 124 14 124-45 0-56-70-42-124-44v89" id="j"/><use transform="matrix(0.06172839506172839,0,0,0.06172839506172839,0,0)" xlink:href="#j" id="d"/><path fill="#19967d" d="M209 0H11v-25l151-195H24v-28h176v25L50-27h159V0" id="k"/><path fill="#19967d" d="M16-82v-28h88v28H16" id="l"/><path fill="#19967d" d="M135-143c-3-34-86-38-87 0 15 53 115 12 119 90S17 21 10-45l28-5c4 36 97 45 98 0-10-56-113-15-118-90-4-57 82-63 122-42 12 7 21 19 24 35" id="m"/><path fill="#19967d" d="M96-169c-40 0-48 33-48 73s9 75 48 75c24 0 41-14 43-38l32 2c-6 37-31 61-74 61-59 0-76-41-82-99-10-93 101-131 147-64 4 7 5 14 7 22l-32 3c-4-21-16-35-41-35" id="n"/><path fill="#19967d" d="M100-194c62-1 85 37 85 99 1 63-27 99-86 99S16-35 15-95c0-66 28-99 85-99zM99-20c44 1 53-31 53-75 0-43-8-75-51-75s-53 32-53 75 10 74 51 75" id="o"/><path fill="#19967d" d="M114-163C36-179 61-72 57 0H25l-1-190h30c1 12-1 29 2 39 6-27 23-49 58-41v29" id="p"/><path fill="#19967d" d="M100-194c63 0 86 42 84 106H49c0 40 14 67 53 68 26 1 43-12 49-29l28 8c-11 28-37 45-77 45C44 4 14-33 15-96c1-61 26-98 85-98zm52 81c6-60-76-77-97-28-3 7-6 17-6 28h103" id="q"/><g id="e"><use transform="matrix(0.06172839506172839,0,0,0.06172839506172839,0,0)" xlink:href="#k"/><use transform="matrix(0.06172839506172839,0,0,0.06172839506172839,13.518518518518517,0)" xlink:href="#l"/><use transform="matrix(0.06172839506172839,0,0,0.06172839506172839,20.864197530864196,0)" xlink:href="#m"/><use transform="matrix(0.06172839506172839,0,0,0.06172839506172839,31.975308641975307,0)" xlink:href="#n"/><use transform="matrix(0.06172839506172839,0,0,0.06172839506172839,43.08641975308642,0)" xlink:href="#o"/><use transform="matrix(0.06172839506172839,0,0,0.06172839506172839,55.432098765432094,0)" xlink:href="#p"/><use transform="matrix(0.06172839506172839,0,0,0.06172839506172839,62.77777777777777,0)" xlink:href="#q"/></g></defs></g></svg>