<svg xmlns="http://www.w3.org/2000/svg" xmlns:xlink="http://www.w3.org/1999/xlink" xmlns:lucid="lucid" width="1280" height="680.49"><g transform="translate(0 40)" lucid:page-tab-id="0_0"><path d="M321.5 60.75a.75.75 0 0 1 .75.75v437a.75.75 0 0 1-.75.75.75.75 0 0 1-.75-.75v-437a.75.75 0 0 1 .75-.75z" stroke="#5e5e5e" stroke-width="1.5" fill="none"/><path d="M200 100c0 22.1-17.9 40-40 40s-40-17.9-40-40 17.9-40 40-40 40 17.9 40 40z" stroke="#5e5e5e" stroke-width="3" fill="#333"/><use xlink:href="#a" transform="matrix(1,0,0,1,125,65) translate(27.592592592592595 39.65277777777778)"/><path d="M100 220c0 22.1-17.9 40-40 40s-40-17.9-40-40 17.9-40 40-40 40 17.9 40 40z" stroke="#5e5e5e" stroke-width="3" fill="#fff"/><use xlink:href="#b" transform="matrix(1,0,0,1,25,185) translate(27.592592592592595 39.65277777777778)"/><path d="M200 220c0 22.1-17.9 40-40 40s-40-17.9-40-40 17.9-40 40-40 40 17.9 40 40z" stroke="#5e5e5e" stroke-width="3" fill="#fff"/><use xlink:href="#c" transform="matrix(1,0,0,1,125,185) translate(27.592592592592595 39.65277777777778)"/><path d="M300 220c0 22.1-17.9 40-40 40s-40-17.9-40-40 17.9-40 40-40 40 17.9 40 40z" stroke="#5e5e5e" stroke-width="3" fill="#fff"/><use xlink:href="#c" transform="matrix(1,0,0,1,225,185) translate(27.592592592592595 39.65277777777778)"/><path d="M60.1 177.5l.06-.25.07-.25.08-.26.12-.26.12-.26.14-.27.16-.28.2-.3.2-.3.27-.33.3-.34.37-.37.43-.4.52-.42.62-.46.78-.53.97-.58 1.23-.67 1.64-.78 2.23-.92 3.2-1.15 4.9-1.48 8.8-2.18 53.8-11.06 4.67-1.4" stroke="#5e5e5e" stroke-width="2" stroke-linejoin="round" fill="none"/><path d="M61.03 177.5l-.03 1.06-.98-.06-1.02.03.03-1.08z" stroke="#5e5e5e" stroke-width=".05" fill="#5e5e5e"/><path d="M157.4 143.44l-8.66 12.24-5.54-7.43z" stroke="#5e5e5e" stroke-width="2" fill="#5e5e5e"/><path d="M160 177.5V160" stroke="#5e5e5e" stroke-width="2" stroke-linejoin="round" fill="none"/><path d="M161 178.56l-.98-.06-1.02.03v-1.06h2z" stroke="#5e5e5e" stroke-width=".05" fill="#5e5e5e"/><path d="M160 144.74l4.64 14.26h-9.28z" stroke="#5e5e5e" stroke-width="2" fill="#5e5e5e"/><path d="M259.9 177.5l-.06-.25-.07-.25-.08-.26-.12-.26-.12-.26-.14-.27-.16-.28-.2-.3-.2-.3-.27-.33-.3-.34-.37-.37-.43-.4-.52-.42-.62-.46-.78-.53-.97-.58-1.23-.67-1.64-.78-2.23-.92-3.2-1.15-4.9-1.48-8.8-2.18-53.8-11.06-4.67-1.4" stroke="#5e5e5e" stroke-width="2" stroke-linejoin="round" fill="none"/><path d="M261 178.56l-.98-.06-1.02.03-.03-1.03 2-.05z" stroke="#5e5e5e" stroke-width=".05" fill="#5e5e5e"/><path d="M162.6 143.44l14.2 4.8-5.54 7.44z" stroke="#5e5e5e" stroke-width="2" fill="#5e5e5e"/><path d="M200 340c0 22.1-17.9 40-40 40s-40-17.9-40-40 17.9-40 40-40 40 17.9 40 40z" stroke="#5e5e5e" stroke-width="3" fill="#333"/><use xlink:href="#a" transform="matrix(1,0,0,1,125,305) translate(27.592592592592595 39.65277777777778)"/><path d="M100 460c0 22.1-17.9 40-40 40s-40-17.9-40-40 17.9-40 40-40 40 17.9 40 40z" stroke="#5e5e5e" stroke-width="3" fill="#fff"/><use xlink:href="#c" transform="matrix(1,0,0,1,25,425) translate(27.592592592592595 39.65277777777778)"/><path d="M200 460c0 22.1-17.9 40-40 40s-40-17.9-40-40 17.9-40 40-40 40 17.9 40 40z" stroke="#5e5e5e" stroke-width="3" fill="#fff"/><use xlink:href="#d" transform="matrix(1,0,0,1,125,425) translate(27.006172839506174 39.65277777777778)"/><path d="M300 460c0 22.1-17.9 40-40 40s-40-17.9-40-40 17.9-40 40-40 40 17.9 40 40z" stroke="#5e5e5e" stroke-width="3" fill="#fff"/><use xlink:href="#e" transform="matrix(1,0,0,1,225,425) translate(27.592592592592595 39.65277777777778)"/><path d="M60.1 417.5l.06-.25.07-.25.08-.26.12-.26.12-.26.14-.27.16-.28.2-.3.2-.3.27-.33.3-.34.37-.37.43-.4.52-.42.62-.46.78-.53.97-.58 1.23-.67 1.64-.78 2.23-.92 3.2-1.15 4.9-1.48 8.8-2.18 53.8-11.06 4.67-1.4" stroke="#5e5e5e" stroke-width="2" stroke-linejoin="round" fill="none"/><path d="M61.03 417.5l-.03 1.06-.98-.06-1.02.03.03-1.08z" stroke="#5e5e5e" stroke-width=".05" fill="#5e5e5e"/><path d="M157.4 383.44l-8.66 12.24-5.54-7.43z" stroke="#5e5e5e" stroke-width="2" fill="#5e5e5e"/><path d="M160 417.5V400" stroke="#5e5e5e" stroke-width="2" stroke-linejoin="round" fill="none"/><path d="M161 418.56l-.98-.06-1.02.03v-1.06h2z" stroke="#5e5e5e" stroke-width=".05" fill="#5e5e5e"/><path d="M160 384.74l4.64 14.26h-9.28z" stroke="#5e5e5e" stroke-width="2" fill="#5e5e5e"/><path d="M259.9 417.5l-.06-.25-.07-.25-.08-.26-.12-.26-.12-.26-.14-.27-.16-.28-.2-.3-.2-.3-.27-.33-.3-.34-.37-.37-.43-.4-.52-.42-.62-.46-.78-.53-.97-.58-1.23-.67-1.64-.78-2.23-.92-3.2-1.15-4.9-1.48-8.8-2.18-53.8-11.06-4.67-1.4" stroke="#5e5e5e" stroke-width="2" stroke-linejoin="round" fill="none"/><path d="M261 418.56l-.98-.06-1.02.03-.03-1.03 2-.05z" stroke="#5e5e5e" stroke-width=".05" fill="#5e5e5e"/><path d="M162.6 383.44l14.2 4.8-5.54 7.44z" stroke="#5e5e5e" stroke-width="2" fill="#5e5e5e"/><path d="M641.5 60.75a.75.75 0 0 1 .75.75v437a.75.75 0 0 1-.75.75.75.75 0 0 1-.75-.75v-437a.75.75 0 0 1 .75-.75zM961.5 63.43a.75.75 0 0 1 .75.75v437a.75.75 0 0 1-.75.75.75.75 0 0 1-.75-.75v-437a.75.75 0 0 1 .75-.75z" stroke="#5e5e5e" stroke-width="1.5" fill="none"/><path d="M520 100c0 22.1-17.9 40-40 40s-40-17.9-40-40 17.9-40 40-40 40 17.9 40 40z" stroke="#5e5e5e" stroke-width="3" fill="#333"/><use xlink:href="#a" transform="matrix(1,0,0,1,445,64.99999999999994) translate(27.592592592592595 39.65277777777778)"/><path d="M420 220c0 22.1-17.9 40-40 40s-40-17.9-40-40 17.9-40 40-40 40 17.9 40 40z" stroke="#5e5e5e" stroke-width="3" fill="#fff"/><use xlink:href="#b" transform="matrix(1,0,0,1,345,184.99999999999994) translate(27.592592592592595 39.65277777777778)"/><path d="M520 220c0 22.1-17.9 40-40 40s-40-17.9-40-40 17.9-40 40-40 40 17.9 40 40z" stroke="#5e5e5e" stroke-width="3" fill="#fff"/><use xlink:href="#e" transform="matrix(1,0,0,1,445,184.99999999999994) translate(27.592592592592595 39.65277777777778)"/><path d="M620 220c0 22.1-17.9 40-40 40s-40-17.9-40-40 17.9-40 40-40 40 17.9 40 40z" stroke="#5e5e5e" stroke-width="3" fill="#fff"/><use xlink:href="#c" transform="matrix(1,0,0,1,545,184.99999999999994) translate(27.592592592592595 39.65277777777778)"/><path d="M380.1 177.5l.06-.25.07-.25.08-.26.12-.26.12-.26.14-.27.16-.28.2-.3.2-.3.27-.33.3-.34.37-.37.43-.4.52-.42.62-.46.78-.53.97-.58 1.23-.67 1.64-.78 2.23-.92 3.2-1.15 4.9-1.48 8.8-2.18 53.8-11.06 4.67-1.4" stroke="#5e5e5e" stroke-width="2" stroke-linejoin="round" fill="none"/><path d="M381.03 177.5l-.03 1.06-.98-.06-1.02.03.03-1.08z" stroke="#5e5e5e" stroke-width=".05" fill="#5e5e5e"/><path d="M477.4 143.44l-8.66 12.24-5.54-7.43z" stroke="#5e5e5e" stroke-width="2" fill="#5e5e5e"/><path d="M480 177.5V160" stroke="#5e5e5e" stroke-width="2" stroke-linejoin="round" fill="none"/><path d="M481 178.56l-.98-.06-1.02.03v-1.06h2z" stroke="#5e5e5e" stroke-width=".05" fill="#5e5e5e"/><path d="M480 144.74l4.64 14.26h-9.28z" stroke="#5e5e5e" stroke-width="2" fill="#5e5e5e"/><path d="M579.9 177.5l-.06-.25-.07-.25-.08-.26-.12-.26-.12-.26-.14-.27-.16-.28-.2-.3-.2-.3-.27-.33-.3-.34-.37-.37-.43-.4-.52-.42-.62-.46-.78-.53-.97-.58-1.23-.67-1.64-.78-2.23-.92-3.2-1.15-4.9-1.48-8.8-2.18-53.8-11.06-4.67-1.4" stroke="#5e5e5e" stroke-width="2" stroke-linejoin="round" fill="none"/><path d="M581 178.56l-.98-.06-1.02.03-.03-1.03 2-.05z" stroke="#5e5e5e" stroke-width=".05" fill="#5e5e5e"/><path d="M482.6 143.44l14.2 4.8-5.54 7.44z" stroke="#5e5e5e" stroke-width="2" fill="#5e5e5e"/><path d="M520 340c0 22.1-17.9 40-40 40s-40-17.9-40-40 17.9-40 40-40 40 17.9 40 40z" stroke="#5e5e5e" stroke-width="3" fill="#333"/><use xlink:href="#a" transform="matrix(1,0,0,1,445,304.9999999999999) translate(27.592592592592595 39.65277777777778)"/><path d="M621.5 460c0 22.1-17.9 40-40 40s-40-17.9-40-40 17.9-40 40-40 40 17.9 40 40z" stroke="#5e5e5e" stroke-width="3" fill="#fff"/><use xlink:href="#c" transform="matrix(1,0,0,1,546.5,425) translate(27.592592592592595 39.65277777777778)"/><path d="M520 460c0 22.1-17.9 40-40 40s-40-17.9-40-40 17.9-40 40-40 40 17.9 40 40z" stroke="#5e5e5e" stroke-width="3" fill="#fff"/><use xlink:href="#f" transform="matrix(1,0,0,1,445,425) translate(27.006172839506174 39.65277777777778)"/><path d="M418.5 460c0 22.1-17.9 40-40 40s-40-17.9-40-40 17.9-40 40-40 40 17.9 40 40z" stroke="#5e5e5e" stroke-width="3" fill="#fff"/><use xlink:href="#d" transform="matrix(1,0,0,1,343.5,425) translate(27.006172839506174 39.65277777777778)"/><path d="M581.4 417.5l-.05-.22-.07-.24-.08-.25-.1-.26-.1-.25-.14-.28-.16-.27-.18-.28-.2-.3-.25-.3-.3-.34-.33-.35-.4-.38-.48-.4-.57-.46-.72-.5-.9-.55-1.1-.63-1.46-.73-1.95-.85-2.7-1.03-4.02-1.3-6.6-1.78-14.63-3.15-40.98-8.04-6.6-1.77-2.26-.73" stroke="#5e5e5e" stroke-width="2" stroke-linejoin="round" fill="none"/><path d="M582.5 418.56l-.98-.06-1.02.03-.03-1.03 2-.05z" stroke="#5e5e5e" stroke-width=".05" fill="#5e5e5e"/><path d="M482.6 383.42l14.23 4.75-5.5 7.46z" stroke="#5e5e5e" stroke-width="2" fill="#5e5e5e"/><path d="M480 417.5V400" stroke="#5e5e5e" stroke-width="2" stroke-linejoin="round" fill="none"/><path d="M481 418.56l-.98-.06-1.02.03v-1.06h2z" stroke="#5e5e5e" stroke-width=".05" fill="#5e5e5e"/><path d="M480 384.74l4.64 14.26h-9.28z" stroke="#5e5e5e" stroke-width="2" fill="#5e5e5e"/><path d="M378.6 417.5l.05-.22.07-.24.08-.25.1-.26.1-.25.14-.28.16-.27.18-.28.2-.3.25-.3.3-.34.33-.35.4-.38.48-.4.57-.46.72-.5.9-.55 1.1-.63 1.46-.73 1.95-.85 2.7-1.03 4.02-1.3 6.6-1.78 14.63-3.15 40.98-8.04 6.6-1.77 2.26-.73" stroke="#5e5e5e" stroke-width="2" stroke-linejoin="round" fill="none"/><path d="M379.53 417.5l-.03 1.06-.98-.06-1.02.03.03-1.08z" stroke="#5e5e5e" stroke-width=".05" fill="#5e5e5e"/><path d="M477.4 383.42l-8.73 12.2-5.5-7.45z" stroke="#5e5e5e" stroke-width="2" fill="#5e5e5e"/><path d="M841.5 220c0 22.1-17.9 40-40 40s-40-17.9-40-40 17.9-40 40-40 40 17.9 40 40z" stroke="#5e5e5e" stroke-width="3" fill="#4c535d"/><use xlink:href="#g" transform="matrix(1,0,0,1,766.5,185) translate(20.833333333333336 39.65277777777778)"/><path d="M741.5 340c0 22.1-17.9 40-40 40s-40-17.9-40-40 17.9-40 40-40 40 17.9 40 40z" stroke="#5e5e5e" stroke-width="3" fill="#fff"/><use xlink:href="#b" transform="matrix(1,0,0,1,666.5,305) translate(27.592592592592595 39.65277777777778)"/><path d="M841.5 340c0 22.1-17.9 40-40 40s-40-17.9-40-40 17.9-40 40-40 40 17.9 40 40z" stroke="#5e5e5e" stroke-width="3" fill="#fff"/><use xlink:href="#c" transform="matrix(1,0,0,1,766.5,305) translate(27.592592592592595 39.65277777777778)"/><path d="M941.5 340c0 22.1-17.9 40-40 40s-40-17.9-40-40 17.9-40 40-40 40 17.9 40 40z" stroke="#5e5e5e" stroke-width="3" fill="#fff"/><use xlink:href="#d" transform="matrix(1,0,0,1,866.5,305) translate(27.006172839506174 39.65277777777778)"/><path d="M701.6 297.5l.06-.25.07-.25.08-.26.12-.26.12-.26.14-.27.16-.28.2-.3.2-.3.27-.33.3-.34.37-.37.43-.4.52-.42.62-.46.78-.53.97-.58 1.23-.67 1.64-.78 2.23-.92 3.2-1.15 4.9-1.48 8.8-2.18 53.8-11.06 4.67-1.4" stroke="#5e5e5e" stroke-width="2" stroke-linejoin="round" fill="none"/><path d="M702.53 297.5l-.03 1.06-.98-.06-1.02.03.03-1.08z" stroke="#5e5e5e" stroke-width=".05" fill="#5e5e5e"/><path d="M798.9 263.44l-8.66 12.24-5.54-7.43z" stroke="#5e5e5e" stroke-width="2" fill="#5e5e5e"/><path d="M801.5 297.5V280" stroke="#5e5e5e" stroke-width="2" stroke-linejoin="round" fill="none"/><path d="M802.5 298.56l-.98-.06-1.02.03v-1.06h2z" stroke="#5e5e5e" stroke-width=".05" fill="#5e5e5e"/><path d="M801.5 264.74l4.64 14.26h-9.28z" stroke="#5e5e5e" stroke-width="2" fill="#5e5e5e"/><path d="M901.4 297.5l-.06-.25-.07-.25-.08-.26-.12-.26-.12-.26-.14-.27-.16-.28-.2-.3-.2-.3-.27-.33-.3-.34-.37-.37-.43-.4-.52-.42-.62-.46-.78-.53-.97-.58-1.23-.67-1.64-.78-2.23-.92-3.2-1.15-4.9-1.48-8.8-2.18-53.8-11.06-4.67-1.4" stroke="#5e5e5e" stroke-width="2" stroke-linejoin="round" fill="none"/><path d="M902.5 298.56l-.98-.06-1.02.03-.03-1.03 2-.05z" stroke="#5e5e5e" stroke-width=".05" fill="#5e5e5e"/><path d="M804.1 263.44l14.2 4.8-5.54 7.44z" stroke="#5e5e5e" stroke-width="2" fill="#5e5e5e"/><path d="M1160 220c0 22.1-17.9 40-40 40s-40-17.9-40-40 17.9-40 40-40 40 17.9 40 40z" stroke="#5e5e5e" stroke-width="3" fill="#333"/><use xlink:href="#a" transform="matrix(1,0,0,1,1085,185) translate(27.592592592592595 39.65277777777778)"/><path d="M1060 340c0 22.1-17.9 40-40 40s-40-17.9-40-40 17.9-40 40-40 40 17.9 40 40z" stroke="#5e5e5e" stroke-width="3" fill="#fff"/><use xlink:href="#b" transform="matrix(1,0,0,1,984.9999999999999,305) translate(27.592592592592595 39.65277777777778)"/><path d="M1160 340c0 22.1-17.9 40-40 40s-40-17.9-40-40 17.9-40 40-40 40 17.9 40 40z" stroke="#5e5e5e" stroke-width="3" fill="#fff"/><use xlink:href="#d" transform="matrix(1,0,0,1,1085,305) translate(27.006172839506174 39.65277777777778)"/><path d="M1260 340c0 22.1-17.9 40-40 40s-40-17.9-40-40 17.9-40 40-40 40 17.9 40 40z" stroke="#5e5e5e" stroke-width="3" fill="#fff"/><use xlink:href="#e" transform="matrix(1,0,0,1,1185,305) translate(27.592592592592595 39.65277777777778)"/><path d="M1020.1 297.5l.06-.25.07-.25.08-.26.12-.26.12-.26.14-.27.16-.28.2-.3.2-.3.27-.33.3-.34.37-.37.43-.4.52-.42.62-.46.78-.53.97-.58 1.23-.67 1.64-.78 2.23-.92 3.2-1.15 4.9-1.48 8.8-2.18 53.8-11.06 4.67-1.4" stroke="#5e5e5e" stroke-width="2" stroke-linejoin="round" fill="none"/><path d="M1021.03 297.5l-.03 1.06-.98-.06-1.02.03.03-1.08z" stroke="#5e5e5e" stroke-width=".05" fill="#5e5e5e"/><path d="M1117.4 263.44l-8.66 12.24-5.54-7.43z" stroke="#5e5e5e" stroke-width="2" fill="#5e5e5e"/><path d="M1120 297.5V280" stroke="#5e5e5e" stroke-width="2" stroke-linejoin="round" fill="none"/><path d="M1121 298.56l-.98-.06-1.02.03v-1.06h2z" stroke="#5e5e5e" stroke-width=".05" fill="#5e5e5e"/><path d="M1120 264.74l4.64 14.26h-9.28z" stroke="#5e5e5e" stroke-width="2" fill="#5e5e5e"/><path d="M1219.9 297.5l-.06-.25-.07-.25-.08-.26-.12-.26-.12-.26-.14-.27-.16-.28-.2-.3-.2-.3-.27-.33-.3-.34-.37-.37-.43-.4-.52-.42-.62-.46-.78-.53-.97-.58-1.23-.67-1.64-.78-2.23-.92-3.2-1.15-4.9-1.48-8.8-2.18-53.8-11.06-4.67-1.4" stroke="#5e5e5e" stroke-width="2" stroke-linejoin="round" fill="none"/><path d="M1221 298.56l-.98-.06-1.02.03-.03-1.03 2-.05z" stroke="#5e5e5e" stroke-width=".05" fill="#5e5e5e"/><path d="M1122.6 263.44l14.2 4.8-5.54 7.44z" stroke="#5e5e5e" stroke-width="2" fill="#5e5e5e"/><path d="M701.52 382.5l.02.98.12 1.92.2 1.87.27 1.82.34 1.78.4 1.75.5 1.72.54 1.7.64 1.68.7 1.67.78 1.66.87 1.66.94 1.65 1.05 1.66 1.15 1.65 1.26 1.67 1.4 1.68 1.52 1.7 1.68 1.7 1.83 1.72 2.02 1.75 2.23 1.76 2.45 1.78 2.7 1.8 3 1.8 3.3 1.82 3.65 1.8 4.04 1.8 4.46 1.77 4.92 1.7 5.4 1.64 5.87 1.5 6.38 1.36 6.84 1.16 7.24.9 7.57.63 7.8.33h7.83l7.78-.33 7.58-.63 7.25-.92 6.84-1.15 6.37-1.36 5.88-1.5 5.4-1.63 4.9-1.7 4.47-1.77 4.02-1.8 3.66-1.8 3.3-1.83 3-1.8 2.7-1.8 2.45-1.8 2.22-1.75 2.02-1.75 1.84-1.73 1.68-1.7 1.52-1.7 1.4-1.67 1.26-1.67 1.15-1.66 1.06-1.65.95-1.66.88-1.64.75-1.6" stroke="#00c2a8" stroke-width="2" stroke-linejoin="round" fill="none"/><path d="M701.48 381.5l1.02-.03.02 1.04-2 .05-.02-1.1z" stroke="#00c2a8" stroke-width=".05" fill="#00c2a8"/><path d="M900.84 384.67l1.6 14.9-9.07-1.9z" stroke="#00c2a8" stroke-width="2" fill="#00c2a8"/><path d="M901.48 382.5l-.02.98-.12 1.92-.2 1.87-.27 1.82-.34 1.78-.4 1.75-.5 1.72-.54 1.7-.64 1.68-.7 1.67-.78 1.66-.87 1.66-.94 1.65-1.05 1.66-1.15 1.65-1.26 1.67-1.4 1.68-1.52 1.7-1.68 1.7-1.83 1.72-2.02 1.75-2.23 1.76-2.45 1.78-2.7 1.8-3 1.8-3.3 1.82-3.65 1.8-4.04 1.8-4.46 1.77-4.92 1.7-5.4 1.64-5.87 1.5-6.38 1.36-6.84 1.16-7.24.9-7.57.63-7.8.33h-7.83l-7.78-.33-7.58-.63-7.25-.92-6.84-1.15-6.37-1.36-5.88-1.5-5.4-1.63-4.9-1.7-4.47-1.77-4.02-1.8-3.66-1.8-3.3-1.83-3-1.8-2.7-1.8-2.45-1.8-2.22-1.75-2.02-1.75-1.84-1.73-1.68-1.7-1.52-1.7-1.4-1.67-1.26-1.67-1.15-1.66-1.06-1.65-.95-1.66-.88-1.64-.75-1.6" stroke="#00c2a8" stroke-width="2" stroke-linejoin="round" fill="none"/><path d="M901.48 381.5l1.02-.03-.02 1.08-2-.04.02-1.06z" stroke="#00c2a8" stroke-width=".05" fill="#00c2a8"/><path d="M702.16 384.67l7.47 13-9.07 1.9z" stroke="#00c2a8" stroke-width="2" fill="#00c2a8"/><path d="M1020.02 382.5v.18l.1 1.14.13 1.1.2 1.07.23 1.04.3 1.02.33 1.02.4 1 .46 1 .5.98.58.98.64 1 .7.98.8 1 .9 1 1 1.03 1.12 1.03 1.25 1.05 1.4 1.05 1.6 1.07 1.77 1.08 2 1.1 2.26 1.07 2.55 1.06 2.86 1.03 3.2.96 3.55.9 3.9.76 4.2.62 4.47.43 4.64.2h4.68l4.6-.26 4.44-.45 4.16-.65 3.84-.8 3.5-.9 3.14-.98 2.8-1.04 2.5-1.07 2.2-1.07 1.98-1.08 1.74-1.08 1.55-1.07 1.37-1.05 1.23-1.05.98-.92" stroke="#00c2a8" stroke-width="2" stroke-linejoin="round" fill="none"/><path d="M1019.98 381.5l1.02-.03.03 1.03-2 .05-.03-1.1z" stroke="#00c2a8" stroke-width=".05" fill="#00c2a8"/><path d="M1118.7 384.47l-1.48 14.92-8.5-3.73z" stroke="#00c2a8" stroke-width="2" fill="#00c2a8"/><path d="M1119.98 382.5v.18l-.1 1.14-.13 1.1-.2 1.07-.23 1.04-.3 1.02-.33 1.02-.4 1-.46 1-.5.98-.58.98-.64 1-.7.98-.8 1-.9 1-1 1.03-1.12 1.03-1.25 1.05-1.4 1.05-1.6 1.07-1.77 1.08-2 1.1-2.26 1.07-2.55 1.06-2.86 1.03-3.2.96-3.55.9-3.9.76-4.2.62-4.47.43-4.64.2h-4.68l-4.6-.26-4.44-.45-4.16-.65-3.84-.8-3.5-.9-3.14-.98-2.8-1.04-2.5-1.07-2.2-1.07-1.98-1.08-1.74-1.08-1.55-1.07-1.37-1.05-1.23-1.05-.98-.92" stroke="#00c2a8" stroke-width="2" stroke-linejoin="round" fill="none"/><path d="M1119.98 381.5l1.02-.03-.03 1.08-2-.05.03-1.06z" stroke="#00c2a8" stroke-width=".05" fill="#00c2a8"/><path d="M1021.3 384.47l9.97 11.2-8.5 3.72z" stroke="#00c2a8" stroke-width="2" fill="#00c2a8"/><path d="M41.02 560H1221.5" stroke="#5e5e5e" stroke-width="2" stroke-linejoin="round" fill="none"/><path d="M41.04 560h-1.02" stroke="#5e5e5e" stroke-width="2" fill="none"/><path d="M1236.76 560l-14.26 4.64v-9.28z" stroke="#5e5e5e" stroke-width="2" fill="#5e5e5e"/><path d="M161.5 540.75a.75.75 0 0 1 .75.75v37a.75.75 0 0 1-.75.75.75.75 0 0 1-.75-.75v-37a.75.75 0 0 1 .75-.75zM481.5 540.75a.75.75 0 0 1 .75.75v37a.75.75 0 0 1-.75.75.75.75 0 0 1-.75-.75v-37a.75.75 0 0 1 .75-.75zM801.5 540.75a.75.75 0 0 1 .75.75v37a.75.75 0 0 1-.75.75.75.75 0 0 1-.75-.75v-37a.75.75 0 0 1 .75-.75zM1121.5 540.75a.75.75 0 0 1 .75.75v37a.75.75 0 0 1-.75.75.75.75 0 0 1-.75-.75v-37a.75.75 0 0 1 .75-.75z" stroke="#5e5e5e" stroke-width="1.5" fill="none"/><path d="M680 446a6 6 0 0 1 6-6h228a6 6 0 0 1 6 6v48a6 6 0 0 1-6 6H686a6 6 0 0 1-6-6z" stroke="#000" stroke-opacity="0" stroke-width="3" fill="#fff" fill-opacity="0"/><use xlink:href="#h" transform="matrix(1,0,0,1,685,445) translate(29.969135802469125 30.27777777777778)"/><use xlink:href="#i" transform="matrix(1,0,0,1,685,445) translate(80.46296296296296 30.27777777777778)"/><path d="M960 426a6 6 0 0 1 6-6h228a6 6 0 0 1 6 6v48a6 6 0 0 1-6 6H966a6 6 0 0 1-6-6z" stroke="#000" stroke-opacity="0" stroke-width="3" fill="#fff" fill-opacity="0"/><use xlink:href="#j" transform="matrix(1,0,0,1,965,425.00000000000006) translate(15.771604938271594 30.27777777777778)"/><use xlink:href="#k" transform="matrix(1,0,0,1,965,425.00000000000006) translate(146.38888888888889 30.27777777777778)"/><path d="M355.88 254.95l-4.2 7.04-4 7.4-3.4 7-2.9 6.65-2.47 6.4-2.08 6.14-1.75 5.97-1.45 5.83-1.17 5.72-.9 5.65-.67 5.6-.43 5.6-.2 5.6.06 5.67.3 5.74.53 5.84.8 6 1.1 6.2 1.43 6.4 1.78 6.73 2.2 7.08 2.7 7.52 3.26 8.06 3.48 7.67" stroke="#00c2a8" stroke-width="2" stroke-linejoin="round" fill="none"/><path d="M355.74 253.68l1.5.94-.5.86-1.73-1.02.56-.93z" stroke="#00c2a8" stroke-width=".05" fill="#00c2a8"/><path d="M354.9 422.02l-10.67-10.54 8.23-4.26z" stroke="#00c2a8" stroke-width="2" fill="#00c2a8"/><path d="M355.92 424l-4.97-9.26-4.44-9.18-3.64-8.4-3-7.82-2.46-7.3-2-6.92-1.62-6.58-1.27-6.3-.96-6.1-.68-5.93-.43-5.8-.17-5.68.06-5.63.3-5.6.52-5.6.77-5.63 1.04-5.68 1.3-5.78 1.57-5.9 1.9-6.04 2.26-6.25 2.65-6.5 3.13-6.8 1.6-3.12" stroke="#00c2a8" stroke-width="2" stroke-linejoin="round" fill="none"/><path d="M357.27 424.4l-1.16.65-.54.4-.54-1 1.77-.94z" stroke="#00c2a8" stroke-width=".05" fill="#00c2a8"/><path d="M354.8 256.9l-2.95 14.72-8.08-4.55z" stroke="#00c2a8" stroke-width="2" fill="#00c2a8"/><path d="M260 314.33a6 6 0 0 1 6-6h228a6 6 0 0 1 6 6v51.34a6 6 0 0 1-6 6H266a6 6 0 0 1-6-6z" stroke="#000" stroke-opacity="0" stroke-width="3" fill="#fff" fill-opacity="0"/><use xlink:href="#l" transform="matrix(1,0,0,1,265,313.33333333333337) translate(80.49382716049382 17.77777777777778)"/><use xlink:href="#m" transform="matrix(1,0,0,1,265,313.33333333333337) translate(70.12345679012347 44.44444444444444)"/><path d="M120-20h74.5v56.85H120z" fill="#fff" fill-opacity="0"/><path d="M161.03 4.2v.9c-4.75 0-5.76 1.44-6.32 3.45l-3.45 12.07c-4.42 2.63-8.6 2.63-12.13 2.63-8.78 0-16.33-4.2-16.33-14.2 0-11.73 10.17-23.8 24.3-23.8 2.75 0 4.54.5 5.77.9 1.23.32 2.3 1.16 3.52 1.16 1.22 0 2.22-1.16 2.4-2.06h.9L157.16-2.3h-.9c.06-.55.12-1.17.12-1.78 0-4.08-2.64-8.6-8.96-8.6-12.8 0-17.77 13.85-17.77 23.86 0 4.58 1.9 10 10.12 10 2.28 0 3.9-.44 5.4-1.4l3.2-11.23c.1-.45.16-1 .16-1.4 0-1.23-.78-2.06-4.2-2.06h-1.05l.23-.9h17.5M168.96 5.2h10.7c6.73 0 9.18 3.4 9.18 6.32 0 3.87-3.2 7.86-11.26 7.86-1.1 0-1.98-.04-2.93-.2-.2 0-.3-.04-.47-.08l-2.2 8.82c-.1.3-.13.6-.13.9 0 .95.7 1.55 3.04 1.55h1.26L176 31h-13.48l.16-.63h.67c3.04 0 3.83-1.1 4.2-2.45l4.93-19.64c.08-.32.16-.68.16-1 0-.82-.67-1.45-3.08-1.45h-.76m8.46.94l-2.7 10.83c.65.16 1.6.32 2.4.32 4.02 0 7.18-2.77 7.18-6.8 0-2.37-1.2-4.46-4.94-4.46-.67 0-1.27.03-1.94.1"/><path d="M445.5-20h74.18v56.85H445.5z" fill="#fff" fill-opacity="0"/><path d="M486.54 4.2v.9c-4.76 0-5.76 1.44-6.32 3.45l-3.47 12.07c-4.4 2.63-8.6 2.63-12.13 2.63-8.77 0-16.32-4.2-16.32-14.2 0-11.73 10.18-23.8 24.32-23.8 2.74 0 4.52.5 5.75.9 1.23.32 2.3 1.16 3.53 1.16s2.23-1.16 2.4-2.06h.9L482.67-2.3h-.9c.06-.55.12-1.17.12-1.78 0-4.08-2.63-8.6-8.95-8.6-12.8 0-17.77 13.85-17.77 23.86 0 4.58 1.9 10 10.1 10 2.3 0 3.93-.44 5.44-1.4l3.18-11.23c.1-.45.17-1 .17-1.4 0-1.23-.78-2.06-4.2-2.06h-1.05l.22-.9h17.5M494.35 5.2h9.96c3.33 0 9.34.35 9.34 5.72 0 3.1-1.7 4.86-3.6 5.8-1 .53-2.13.84-2.92 1.04l.12.16c2.37.43 5 2.1 5 5.45 0 3.9-3.23 7.63-11.4 7.63h-12.8l.15-.63h.78c3 0 3.75-1.15 4.07-2.5l4.86-19.55c.05-.2.1-.6.1-.83 0-1.04-.76-1.67-3.1-1.67h-.75m8.42 1.02l-2.33 9.96c.8.17 1.5.25 2.1.25 4.42 0 6.63-2.6 6.63-6.44 0-3.04-2.56-3.87-4.7-3.87-.6 0-1.18.04-1.7.12m-2.7 11.74l-2.67 10.54c1 .28 1.78.36 2.8.36 3.72 0 7.5-1.66 7.5-6.8 0-2.88-2.52-4.27-5.6-4.27-.63 0-1.42 0-2.02.16"/><path d="M761.5-20h59.04v56.85H761.5z" fill="#fff" fill-opacity="0"/><path d="M802.53 4.2v.9c-4.75 0-5.76 1.44-6.32 3.45l-3.45 12.07c-4.42 2.63-8.6 2.63-12.13 2.63-8.78 0-16.33-4.2-16.33-14.2 0-11.73 10.17-23.8 24.3-23.8 2.75 0 4.54.5 5.77.9 1.23.32 2.3 1.16 3.52 1.16 1.22 0 2.22-1.16 2.4-2.06h.9L798.66-2.3h-.9c.06-.55.12-1.17.12-1.78 0-4.08-2.64-8.6-8.96-8.6-12.8 0-17.77 13.85-17.77 23.86 0 4.58 1.9 10 10.12 10 2.28 0 3.9-.44 5.4-1.4l3.2-11.23c.1-.45.16-1 .16-1.4 0-1.23-.78-2.06-4.2-2.06h-1.05l.23-.9h17.5M813.7 13.7l-.4 1.5h-2.76l-3.08 12.64c-.04.12-.08.3-.08.43 0 .24.12.48.63.48 0 0 .92-.08 2.38-2.06l.52.43c-.95 1.22-2.93 4.22-5.26 4.22-1.22 0-1.54-.98-1.54-2.05 0-.5.08-1.03.2-1.46l3.2-12.65h-3.04l.2-1.15c2.96-.56 5.37-2.02 7-5.46h.5l-1.22 5.1h2.76"/><path d="M1084.25-20h75.25v56.85h-75.25z" fill="#fff" fill-opacity="0"/><path d="M1125.28 4.2v.9c-4.75 0-5.76 1.44-6.3 3.45l-3.48 12.07c-4.42 2.63-8.6 2.63-12.13 2.63-8.78 0-16.32-4.2-16.32-14.2 0-11.73 10.17-23.8 24.3-23.8 2.75 0 4.54.5 5.77.9 1.23.32 2.3 1.16 3.52 1.16 1.23 0 2.24-1.16 2.4-2.06h.9l-2.52 12.47h-.9c.07-.55.12-1.17.12-1.78 0-4.08-2.63-8.6-8.94-8.6-12.8 0-17.78 13.85-17.78 23.86 0 4.58 1.9 10 10.12 10 2.3 0 3.9-.44 5.42-1.4l3.2-11.23c.1-.45.16-1 .16-1.4 0-1.23-.8-2.06-4.2-2.06h-1.06l.23-.9h17.48M1153.85 5.2l-1.6 6.32h-.62c.04-.32.04-.87.04-1.43-.12-3.1-2.5-3.44-4.34-3.44h-5.8l-2.46 9.8h3.28c2.45 0 4.26-.4 5.1-3.76h.63l-2.38 9.57h-.63c.12-.56.2-1.7.2-2.42 0-1.85-1.62-1.97-2.77-1.97h-3.83l-2.45 10.04c-.04.23-.16.55-.16.83 0 .98.75 1.62 3.12 1.62h1.27l-.16.63h-13.52l.15-.63h.7c3.02 0 3.85-1.1 4.2-2.45l4.9-19.64c.08-.32.16-.68.16-.95 0-.83-.64-1.54-3-1.54h-.76l.16-.6h20.55"/><path d="M85.4 580h152.2v40.5H85.4z" fill="#fff" fill-opacity="0"/><path d="M97.3 616.54h-8.4v-32.57h8.4v1H94c-1.36 0-2.08.48-2.08 1.9v26.52c0 1.6.76 2.14 2.07 2.14h3.3v1M109.92 592.9l-.4 1.5h-2.8l-3.1 12.74c-.03.12-.07.32-.07.44 0 .24.1.48.63.48 0 0 .92-.08 2.4-2.07l.5.43c-.95 1.23-2.94 4.26-5.3 4.26-1.22 0-1.54-1-1.54-2.08 0-.52.08-1.04.2-1.48l3.22-12.74h-3.06l.2-1.15c2.98-.56 5.4-2.03 7.04-5.5h.52l-1.23 5.14h2.8M124.52 607.03c0 4.85-1.78 9.7-6.37 9.7-4.8 0-6.36-5.25-6.36-9.86 0-5 1.93-9.57 6.47-9.57 3.68 0 6.25 3.96 6.25 9.73m-2.7.15c0-5.86-1.25-9.15-3.72-9.15-2.34 0-3.6 3.32-3.6 9.03 0 5.72 1.23 8.93 3.65 8.93 2.4 0 3.66-3.25 3.66-8.82M136.8 594.28c0 1.2-1 2.2-2.2 2.2-1.2 0-2.23-1-2.23-2.2 0-1.27.95-2.23 2.23-2.23 1.2 0 2.2 1.04 2.2 2.23m-3.36 21.66l-.4-.76c2.2-1.43 3.3-2.9 3.3-4.22 0-.27-.23-.55-.55-.55-.25 0-.76.17-1.12.17-1.48 0-2.3-.76-2.3-2.07 0-1.32 1.02-2.23 2.34-2.23 1.8 0 3.18 1.4 3.18 3.54 0 2.52-1.67 4.83-4.46 6.14M158.2 592.9l-.4 1.5h-2.78l-3.1 12.74c-.04.12-.08.32-.08.44 0 .24.12.48.63.48 0 0 .92-.08 2.4-2.07l.5.43c-.95 1.23-2.94 4.26-5.3 4.26-1.22 0-1.54-1-1.54-2.08 0-.52.08-1.04.2-1.48l3.23-12.74h-3.07l.2-1.15c2.97-.56 5.4-2.03 7.04-5.5h.5l-1.22 5.14h2.8M192.96 601.57H170.8v-2.63h22.16v2.63M220.07 610.33h-11v-.6c2.96-.16 3.8-1 3.8-3.18v-17.88c0-1.35-.36-1.95-1.2-1.95-.4 0-1.07.2-1.8.48l-1.06.4v-.56l7.13-3.62.36.12v23.76c0 1.7.8 2.43 3.77 2.43v.6M234.1 616.54h-8.4v-1h3.5c1.38 0 1.86-.6 1.86-1.83v-26.58c0-1.4-.52-2.15-2.03-2.15h-3.34v-1h8.4v32.57"/><path d="M383.66 580h197.87v40.5H383.66z" fill="#fff" fill-opacity="0"/><path d="M395.57 616.54h-8.4v-32.57h8.4v1h-3.3c-1.36 0-2.08.48-2.08 1.9v26.52c0 1.6.75 2.14 2.06 2.14h3.3v1M408.2 592.9l-.4 1.5H405l-3.1 12.74c-.04.12-.08.32-.08.44 0 .24.12.48.63.48 0 0 .92-.08 2.4-2.07l.5.43c-.95 1.23-2.94 4.26-5.3 4.26-1.22 0-1.54-1-1.54-2.08 0-.52.1-1.04.2-1.48l3.24-12.74h-3.07l.2-1.15c3-.56 5.4-2.03 7.05-5.5h.5l-1.22 5.14h2.8M442.98 601.57H420.8v-2.63H443v2.63M462.9 595.12l.15.16c1.3-1.27 2.86-2.5 4.8-2.5 2.8 0 4.43 2.74 4.43 6 0 4.82-4.34 12-10.6 12-2.1 0-3.73-.73-5.52-1.93l5.73-22.4c.03-.17.07-.33.07-.45-.04-.5-.64-.83-1.15-.83-.4 0-.88.04-1.2.16l-.12-.64 6.3-.97m-4.3 16.57l-2.2 8.55c0 .28 1.28.76 2.2.76 4.85 0 7.48-6.92 7.48-10.98 0-2.78-1.52-3.66-2.83-3.66-2.87 0-4.22 3.54-4.66 5.34M480.72 594.28c0 1.2-1 2.2-2.2 2.2-1.18 0-2.22-1-2.22-2.2 0-1.27.96-2.23 2.23-2.23 1.2 0 2.2 1.04 2.2 2.23m-3.35 21.66l-.4-.76c2.2-1.43 3.3-2.9 3.3-4.22 0-.27-.24-.55-.55-.55-.24 0-.76.17-1.12.17-1.46 0-2.3-.76-2.3-2.07 0-1.32 1.04-2.23 2.35-2.23 1.8 0 3.2 1.4 3.2 3.54 0 2.52-1.7 4.83-4.47 6.14M502.1 592.9l-.4 1.5h-2.78l-3.1 12.74c-.05.12-.1.32-.1.44 0 .24.13.48.65.48 0 0 .9-.08 2.4-2.07l.5.43c-.95 1.23-2.94 4.26-5.3 4.26-1.23 0-1.54-1-1.54-2.08 0-.52.08-1.04.2-1.48l3.22-12.74h-3.07l.2-1.15c3-.56 5.42-2.03 7.05-5.5h.52l-1.24 5.14h2.8M536.9 601.57H514.7v-2.63h22.17v2.63M564 610.33h-10.98v-.6c2.94-.16 3.78-1 3.78-3.18v-17.88c0-1.35-.36-1.95-1.2-1.95-.4 0-1.07.2-1.8.48l-1.06.4v-.56l7.13-3.62.35.12v23.76c0 1.7.8 2.43 3.8 2.43v.6M577.98 616.54h-8.4v-1h3.5c1.4 0 1.87-.6 1.87-1.83v-26.58c0-1.4-.5-2.15-2.03-2.15h-3.34v-1h8.4v32.57"/><path d="M795.26 585.04h12.48v30.4h-12.48z" fill="#fff" fill-opacity="0"/><path d="M806.53 592.9l-.4 1.5h-2.8l-3.1 12.75c-.03.1-.07.3-.07.43 0 .24.12.48.63.48 0 0 .9-.08 2.38-2.07l.52.43c-.96 1.23-2.95 4.26-5.3 4.26-1.23 0-1.55-1-1.55-2.08 0-.52.08-1.04.2-1.47l3.23-12.74h-3.07l.2-1.15c3-.56 5.42-2.03 7.06-5.5h.5l-1.22 5.14h2.8"/><path d="M1018.18 580h203.64v40.5h-203.64z" fill="#fff" fill-opacity="0"/><path d="M1030.1 616.54h-8.4v-32.57h8.4v1h-3.32c-1.35 0-2.07.48-2.07 1.9v26.52c0 1.6.77 2.14 2.08 2.14h3.3v1M1042.7 592.9l-.4 1.5h-2.78l-3.1 12.74c-.04.12-.08.32-.08.44 0 .24.1.48.63.48 0 0 .92-.08 2.4-2.07l.5.43c-.95 1.23-2.94 4.26-5.3 4.26-1.22 0-1.54-1-1.54-2.08 0-.52.08-1.04.2-1.48l3.22-12.74h-3.06l.2-1.15c2.97-.56 5.4-2.03 7.04-5.5h.5l-1.22 5.14h2.8M1078.1 601.57h-10.4v10.4h-2.62v-10.4h-10.4v-2.63h10.4v-10.4h2.63v10.4h10.4v2.63M1104.57 610.33h-11v-.6c2.96-.16 3.8-1 3.8-3.18v-17.88c0-1.35-.36-1.95-1.2-1.95-.4 0-1.07.2-1.8.48l-1.07.4v-.56l7.13-3.62.36.12v23.76c0 1.7.8 2.43 3.77 2.43v.6M1116.43 594.28c0 1.2-1 2.2-2.18 2.2-1.2 0-2.23-1-2.23-2.2 0-1.27.95-2.23 2.23-2.23 1.2 0 2.18 1.04 2.18 2.23m-3.34 21.66l-.4-.76c2.18-1.43 3.3-2.9 3.3-4.22 0-.27-.24-.55-.56-.55-.24 0-.76.17-1.12.17-1.47 0-2.3-.76-2.3-2.07 0-1.32 1.03-2.23 2.34-2.23 1.8 0 3.2 1.4 3.2 3.54 0 2.52-1.68 4.83-4.47 6.14M1137.8 592.9l-.38 1.5h-2.8l-3.1 12.74c-.04.12-.08.32-.08.44 0 .24.12.48.64.48 0 0 .92-.08 2.4-2.07l.5.43c-.95 1.23-2.94 4.26-5.3 4.26-1.22 0-1.54-1-1.54-2.08 0-.52.08-1.04.2-1.48l3.22-12.74h-3.06l.2-1.15c2.98-.56 5.4-2.03 7.04-5.5h.52l-1.23 5.14h2.78M1173.2 601.57h-10.4v10.4h-2.6v-10.4h-10.4v-2.63h10.4v-10.4h2.6v10.4h10.4v2.63M1193.9 592.93h1.48c2.5 0 2.3-3.06 4.02-5.6 1.23-1.88 2.95-3.6 5.97-3.6 2 0 3.15.96 3.15 2.35 0 1.12-.84 1.6-1.63 1.6-1.13 0-1.4-.44-1.4-1s.35-1.15.35-1.47c0-.2-.12-.3-.6-.3-2 0-3.54 2.14-4.38 5.24l-.75 2.8h3.18l-.48 1.5h-3.02l-3.15 12.2c-.27 1.06-.6 2.57-1.2 4.05-1.3 3.3-3.45 7.07-6.96 7.07-1.92 0-2.87-.95-2.87-2.15 0-.95.55-1.95 1.7-1.95 1.08 0 1.48.72 1.48 1.32 0 .74-.63.78-.63 1.26 0 .24.24.36.6.36 2.6 0 3.78-6.3 4.38-8.56l3.46-13.62h-3.05M1218.27 616.54h-8.4v-1h3.5c1.4 0 1.88-.6 1.88-1.83v-26.58c0-1.4-.52-2.15-2.03-2.15h-3.35v-1h8.4v32.57"/><defs><path fill="#fff" d="M30-248c87 1 191-15 191 75 0 78-77 80-158 76V0H30v-248zm33 125c57 0 124 11 124-50 0-59-68-47-124-48v98" id="n"/><use transform="matrix(0.06172839506172839,0,0,0.06172839506172839,0,0)" xlink:href="#n" id="a"/><path fill="#333" d="M205 0l-28-72H64L36 0H1l101-248h38L239 0h-34zm-38-99l-47-123c-12 45-31 82-46 123h93" id="o"/><use transform="matrix(0.06172839506172839,0,0,0.06172839506172839,0,0)" xlink:href="#o" id="b"/><path fill="#333" d="M160-131c35 5 61 23 61 61C221 17 115-2 30 0v-248c76 3 177-17 177 60 0 33-19 50-47 57zm-97-11c50-1 110 9 110-42 0-47-63-36-110-37v79zm0 115c55-2 124 14 124-45 0-56-70-42-124-44v89" id="p"/><use transform="matrix(0.06172839506172839,0,0,0.06172839506172839,0,0)" xlink:href="#p" id="c"/><path fill="#333" d="M212-179c-10-28-35-45-73-45-59 0-87 40-87 99 0 60 29 101 89 101 43 0 62-24 78-52l27 14C228-24 195 4 139 4 59 4 22-46 18-125c-6-104 99-153 187-111 19 9 31 26 39 46" id="q"/><use transform="matrix(0.06172839506172839,0,0,0.06172839506172839,0,0)" xlink:href="#q" id="d"/><path fill="#333" d="M30 0v-248h187v28H63v79h144v27H63v87h162V0H30" id="r"/><use transform="matrix(0.06172839506172839,0,0,0.06172839506172839,0,0)" xlink:href="#r" id="e"/><path fill="#333" d="M30-248c118-7 216 8 213 122C240-48 200 0 122 0H30v-248zM63-27c89 8 146-16 146-99s-60-101-146-95v194" id="s"/><use transform="matrix(0.06172839506172839,0,0,0.06172839506172839,0,0)" xlink:href="#s" id="f"/><path fill="#fff" d="M63-220v92h138v28H63V0H30v-248h175v28H63" id="t"/><g id="g"><use transform="matrix(0.06172839506172839,0,0,0.06172839506172839,0,0)" xlink:href="#t"/><use transform="matrix(0.06172839506172839,0,0,0.06172839506172839,13.518518518518517,0)" xlink:href="#n"/></g><path fill="#00c2a8" d="M190 0L58-211 59 0H30v-248h39L202-35l-2-213h31V0h-41" id="u"/><path fill="#00c2a8" d="M100-194c63 0 86 42 84 106H49c0 40 14 67 53 68 26 1 43-12 49-29l28 8c-11 28-37 45-77 45C44 4 14-33 15-96c1-61 26-98 85-98zm52 81c6-60-76-77-97-28-3 7-6 17-6 28h103" id="v"/><path fill="#00c2a8" d="M206 0h-36l-40-164L89 0H53L-1-190h32L70-26l43-164h34l41 164 42-164h31" id="w"/><g id="h"><use transform="matrix(0.06172839506172839,0,0,0.06172839506172839,0,0)" xlink:href="#u"/><use transform="matrix(0.06172839506172839,0,0,0.06172839506172839,15.987654320987653,0)" xlink:href="#v"/><use transform="matrix(0.06172839506172839,0,0,0.06172839506172839,28.333333333333332,0)" xlink:href="#w"/></g><path fill="#00c2a8" d="M96-169c-40 0-48 33-48 73s9 75 48 75c24 0 41-14 43-38l32 2c-6 37-31 61-74 61-59 0-76-41-82-99-10-93 101-131 147-64 4 7 5 14 7 22l-32 3c-4-21-16-35-41-35" id="x"/><path fill="#00c2a8" d="M100-194c62-1 85 37 85 99 1 63-27 99-86 99S16-35 15-95c0-66 28-99 85-99zM99-20c44 1 53-31 53-75 0-43-8-75-51-75s-53 32-53 75 10 74 51 75" id="y"/><path fill="#00c2a8" d="M210-169c-67 3-38 105-44 169h-31v-121c0-29-5-50-35-48C34-165 62-65 56 0H25l-1-190h30c1 10-1 24 2 32 10-44 99-50 107 0 11-21 27-35 58-36 85-2 47 119 55 194h-31v-121c0-29-5-49-35-48" id="z"/><path fill="#00c2a8" d="M115-194c53 0 69 39 70 98 0 66-23 100-70 100C84 3 66-7 56-30L54 0H23l1-261h32v101c10-23 28-34 59-34zm-8 174c40 0 45-34 45-75 0-40-5-75-45-74-42 0-51 32-51 76 0 43 10 73 51 73" id="A"/><path fill="#00c2a8" d="M24-231v-30h32v30H24zM24 0v-190h32V0H24" id="B"/><path fill="#00c2a8" d="M117-194c89-4 53 116 60 194h-32v-121c0-31-8-49-39-48C34-167 62-67 57 0H25l-1-190h30c1 10-1 24 2 32 11-22 29-35 61-36" id="C"/><path fill="#00c2a8" d="M141-36C126-15 110 5 73 4 37 3 15-17 15-53c-1-64 63-63 125-63 3-35-9-54-41-54-24 1-41 7-42 31l-33-3c5-37 33-52 76-52 45 0 72 20 72 64v82c-1 20 7 32 28 27v20c-31 9-61-2-59-35zM48-53c0 20 12 33 32 33 41-3 63-29 60-74-43 2-92-5-92 41" id="D"/><path fill="#00c2a8" d="M59-47c-2 24 18 29 38 22v24C64 9 27 4 27-40v-127H5v-23h24l9-43h21v43h35v23H59v120" id="E"/><g id="i"><use transform="matrix(0.06172839506172839,0,0,0.06172839506172839,0,0)" xlink:href="#x"/><use transform="matrix(0.06172839506172839,0,0,0.06172839506172839,11.11111111111111,0)" xlink:href="#y"/><use transform="matrix(0.06172839506172839,0,0,0.06172839506172839,23.45679012345679,0)" xlink:href="#z"/><use transform="matrix(0.06172839506172839,0,0,0.06172839506172839,41.91358024691358,0)" xlink:href="#A"/><use transform="matrix(0.06172839506172839,0,0,0.06172839506172839,54.25925925925926,0)" xlink:href="#B"/><use transform="matrix(0.06172839506172839,0,0,0.06172839506172839,59.135802469135804,0)" xlink:href="#C"/><use transform="matrix(0.06172839506172839,0,0,0.06172839506172839,71.48148148148148,0)" xlink:href="#D"/><use transform="matrix(0.06172839506172839,0,0,0.06172839506172839,83.82716049382717,0)" xlink:href="#E"/><use transform="matrix(0.06172839506172839,0,0,0.06172839506172839,90,0)" xlink:href="#B"/><use transform="matrix(0.06172839506172839,0,0,0.06172839506172839,94.87654320987654,0)" xlink:href="#y"/><use transform="matrix(0.06172839506172839,0,0,0.06172839506172839,107.22222222222223,0)" xlink:href="#C"/></g><path fill="#00c2a8" d="M212-179c-10-28-35-45-73-45-59 0-87 40-87 99 0 60 29 101 89 101 43 0 62-24 78-52l27 14C228-24 195 4 139 4 59 4 22-46 18-125c-6-104 99-153 187-111 19 9 31 26 39 46" id="F"/><g id="j"><use transform="matrix(0.06172839506172839,0,0,0.06172839506172839,0,0)" xlink:href="#F"/><use transform="matrix(0.06172839506172839,0,0,0.06172839506172839,15.987654320987653,0)" xlink:href="#y"/><use transform="matrix(0.06172839506172839,0,0,0.06172839506172839,28.333333333333332,0)" xlink:href="#z"/><use transform="matrix(0.06172839506172839,0,0,0.06172839506172839,46.79012345679012,0)" xlink:href="#A"/><use transform="matrix(0.06172839506172839,0,0,0.06172839506172839,59.1358024691358,0)" xlink:href="#B"/><use transform="matrix(0.06172839506172839,0,0,0.06172839506172839,64.01234567901234,0)" xlink:href="#C"/><use transform="matrix(0.06172839506172839,0,0,0.06172839506172839,76.35802469135803,0)" xlink:href="#D"/><use transform="matrix(0.06172839506172839,0,0,0.06172839506172839,88.70370370370371,0)" xlink:href="#E"/><use transform="matrix(0.06172839506172839,0,0,0.06172839506172839,94.87654320987654,0)" xlink:href="#B"/><use transform="matrix(0.06172839506172839,0,0,0.06172839506172839,99.75308641975309,0)" xlink:href="#y"/><use transform="matrix(0.06172839506172839,0,0,0.06172839506172839,112.09876543209877,0)" xlink:href="#C"/></g><path fill="#00c2a8" d="M114-163C36-179 61-72 57 0H25l-1-190h30c1 12-1 29 2 39 6-27 23-49 58-41v29" id="G"/><path fill="#00c2a8" d="M84 4C-5 8 30-112 23-190h32v120c0 31 7 50 39 49 72-2 45-101 50-169h31l1 190h-30c-1-10 1-25-2-33-11 22-28 36-60 37" id="H"/><path fill="#00c2a8" d="M135-143c-3-34-86-38-87 0 15 53 115 12 119 90S17 21 10-45l28-5c4 36 97 45 98 0-10-56-113-15-118-90-4-57 82-63 122-42 12 7 21 19 24 35" id="I"/><path fill="#00c2a8" d="M85-194c31 0 48 13 60 33l-1-100h32l1 261h-30c-2-10 0-23-3-31C134-8 116 4 85 4 32 4 16-35 15-94c0-66 23-100 70-100zm9 24c-40 0-46 34-46 75 0 40 6 74 45 74 42 0 51-32 51-76 0-42-9-74-50-73" id="J"/><g id="k"><use transform="matrix(0.06172839506172839,0,0,0.06172839506172839,0,0)" xlink:href="#G"/><use transform="matrix(0.06172839506172839,0,0,0.06172839506172839,7.345679012345679,0)" xlink:href="#v"/><use transform="matrix(0.06172839506172839,0,0,0.06172839506172839,19.691358024691358,0)" xlink:href="#H"/><use transform="matrix(0.06172839506172839,0,0,0.06172839506172839,32.03703703703704,0)" xlink:href="#I"/><use transform="matrix(0.06172839506172839,0,0,0.06172839506172839,43.14814814814815,0)" xlink:href="#v"/><use transform="matrix(0.06172839506172839,0,0,0.06172839506172839,55.49382716049383,0)" xlink:href="#J"/></g><g id="l"><use transform="matrix(0.06172839506172839,0,0,0.06172839506172839,0,0)" xlink:href="#F"/><use transform="matrix(0.06172839506172839,0,0,0.06172839506172839,15.987654320987653,0)" xlink:href="#y"/><use transform="matrix(0.06172839506172839,0,0,0.06172839506172839,28.333333333333332,0)" xlink:href="#I"/><use transform="matrix(0.06172839506172839,0,0,0.06172839506172839,39.44444444444444,0)" xlink:href="#B"/><use transform="matrix(0.06172839506172839,0,0,0.06172839506172839,44.32098765432099,0)" xlink:href="#C"/><use transform="matrix(0.06172839506172839,0,0,0.06172839506172839,56.666666666666664,0)" xlink:href="#v"/></g><path fill="#00c2a8" d="M185-189c-5-48-123-54-124 2 14 75 158 14 163 119 3 78-121 87-175 55-17-10-28-26-33-46l33-7c5 56 141 63 141-1 0-78-155-14-162-118-5-82 145-84 179-34 5 7 8 16 11 25" id="K"/><path fill="#00c2a8" d="M24 0v-261h32V0H24" id="L"/><path fill="#00c2a8" d="M179-190L93 31C79 59 56 82 12 73V49c39 6 53-20 64-50L1-190h34L92-34l54-156h33" id="M"/><g id="m"><use transform="matrix(0.06172839506172839,0,0,0.06172839506172839,0,0)" xlink:href="#K"/><use transform="matrix(0.06172839506172839,0,0,0.06172839506172839,14.814814814814813,0)" xlink:href="#B"/><use transform="matrix(0.06172839506172839,0,0,0.06172839506172839,19.691358024691354,0)" xlink:href="#z"/><use transform="matrix(0.06172839506172839,0,0,0.06172839506172839,38.14814814814814,0)" xlink:href="#B"/><use transform="matrix(0.06172839506172839,0,0,0.06172839506172839,43.02469135802468,0)" xlink:href="#L"/><use transform="matrix(0.06172839506172839,0,0,0.06172839506172839,47.90123456790123,0)" xlink:href="#D"/><use transform="matrix(0.06172839506172839,0,0,0.06172839506172839,60.246913580246904,0)" xlink:href="#G"/><use transform="matrix(0.06172839506172839,0,0,0.06172839506172839,67.59259259259258,0)" xlink:href="#B"/><use transform="matrix(0.06172839506172839,0,0,0.06172839506172839,72.46913580246913,0)" xlink:href="#E"/><use transform="matrix(0.06172839506172839,0,0,0.06172839506172839,78.64197530864196,0)" xlink:href="#M"/></g></defs></g></svg>